<?xml version="1.0" encoding="utf-8"?>
<!-- Generator: Adobe Illustrator 22.1.0, SVG Export Plug-In . SVG Version: 6.00 Build 0)  -->
<svg version="1.1" id="Capa_1" xmlns="http://www.w3.org/2000/svg" xmlns:xlink="http://www.w3.org/1999/xlink" x="0px" y="0px"
	 viewBox="0 0 537 547" style="enable-background:new 0 0 537 547;" xml:space="preserve">
<style type="text/css">
	.st0{fill:none;}
	.st1{fill:url(#Shape_4_);}
	.st2{fill:url(#Shape_5_);}
	.st3{fill:url(#Shape_6_);}
</style>
<symbol  id="Bank_x5F_Ayandeh_x5F_Color" viewBox="-24 -24 48 48">
	<g id="Bank_x5F_Ayandeh_x5F_Color_1_">
		<rect id="Boundary_102_" x="-24" y="-24" class="st0" width="48" height="48"/>
		
			<radialGradient id="Shape_4_" cx="7629.5835" cy="-8656.292" r="0.5" gradientTransform="matrix(48 0 0 -48 -366220.0313 -415502)" gradientUnits="userSpaceOnUse">
			<stop  offset="0" style="stop-color:#F4B31B"/>
			<stop  offset="1" style="stop-color:#CC932B"/>
		</radialGradient>
		<path id="Shape_142_" class="st1" d="M-17.3,24h34.6c3.7,0,6.7-3,6.7-6.7v-34.6c0-3.7-3-6.7-6.7-6.7h-34.6c-3.7,0-6.7,3-6.7,6.7
			v34.6C-24,21-21,24-17.3,24C-17.3,24-17.3,24-17.3,24"/>
		
			<linearGradient id="Shape_5_" gradientUnits="userSpaceOnUse" x1="7614.7729" y1="-8820.583" x2="7614.7729" y2="-8821.583" gradientTransform="matrix(44 0 0 -24 -335050.25 -211716)">
			<stop  offset="0" style="stop-color:#6E2616"/>
			<stop  offset="1" style="stop-color:#9B4722"/>
		</linearGradient>
		<path id="Shape_141_" class="st2" d="M22,2v-18.9c0-1.3-0.5-2.6-1.5-3.6c-0.9-1-2.2-1.5-3.6-1.5H-17c-1.3,0-2.6,0.5-3.6,1.5
			c-0.9,1-1.5,2.2-1.5,3.6V-9c1.9,20.2,21-0.3,29.8-0.3C14.9-9.2,19.1-3.8,22,2"/>
		
			<linearGradient id="Shape_6_" gradientUnits="userSpaceOnUse" x1="7614.7729" y1="-8821.583" x2="7614.7729" y2="-8820.583" gradientTransform="matrix(44 0 0 -24 -335050.1563 -211696)">
			<stop  offset="0" style="stop-color:#6E2616"/>
			<stop  offset="1" style="stop-color:#9B4722"/>
		</linearGradient>
		<path id="Shape_140_" class="st3" d="M-16.9,22H17c2.8,0,5-2.3,5-5c0,0,0,0,0,0V9.4c-1.6-21-20.9,0-29.9,0
			c-7,0-11.2-5.6-14.1-11.3v19C-22,19.7-19.7,22-16.9,22"/>
	</g>
</symbol>
<use xlink:href="#Bank_x5F_Ayandeh_x5F_Color"  width="48" height="48" x="-24" y="-24" transform="matrix(10.3958 0 0 -10.3958 268.5 273.5)" style="overflow:visible;"/>
</svg>
