<?xml version="1.0" encoding="utf-8"?>
<!-- Generator: Adobe Illustrator 22.1.0, SVG Export Plug-In . SVG Version: 6.00 Build 0)  -->
<svg version="1.1" id="Capa_1" xmlns="http://www.w3.org/2000/svg" xmlns:xlink="http://www.w3.org/1999/xlink" x="0px" y="0px"
	 viewBox="0 0 537 547" style="enable-background:new 0 0 537 547;" xml:space="preserve">
<style type="text/css">
	.st0{fill:none;}
	.st1{fill:#008BA0;}
</style>
<symbol  id="Bank_x5F_Dey_x5F_Color" viewBox="-24.1 -24 48.1 48">
	<g id="Bank_x5F_Dey_x5F_Color_1_">
		<rect id="Boundary_104_" x="-24" y="-24" class="st0" width="48" height="48"/>
		<path id="Shape_145_" class="st1" d="M15-12C9.6-12,4.5-8.1,0.6-4.7l2.2,2.2l0.1-0.1C5.5-4.7,9.3-8,12.5-8.6c0.2,0,0.5,0,0.7,0
			l0,0c0,0,0,0,0,0h0c2.1,0,3.8,1.8,3.8,3.9c0,2.1-1.7,3.8-3.8,3.8V6c-1.9-0.1-3.8-0.7-5.4-1.8C7,3.6,6.2,3,5.4,2.4
			C1.6-0.8-1.5-4.7-5.4-7.9c-0.6-0.5-1.3-1-1.9-1.4c-0.5-0.3-1-0.6-1.4-0.9c-1.9-1.1-4.1-1.7-6.3-1.8c-5-0.1-9,3.9-9.1,8.9
			s3.9,9,8.9,9.1c0.1,0,0.1,0,0.2,0c2.4,0,4.7-0.7,6.8-1.8c1-0.5,1.9-1.1,2.8-1.7l0.1-0.1c0.1-0.1,0.2-0.1,0.3-0.2l0.6-0.4l0,0
			L-6-0.7c-2.6,1.9-5.7,3.6-9,3.6C-17,2.9-19,1.7-20-0.1c-1.1-1.8-1.1-4.1,0-5.9c1.1-1.7,3-2.7,5-2.7C-7.4-8.7-3,0.8,0.6,6
			C1,6.5,1.4,7,1.8,7.5C2.4,8.2,3,8.8,3.6,9.4c2.6,2.4,6,3.7,9.5,3.6h0.1V6h1.8c5,0,9-4,9-9C24.1-8,20-12,15-12L15-12z"/>
	</g>
</symbol>
<use xlink:href="#Bank_x5F_Dey_x5F_Color"  width="48.1" height="48" x="-24.1" y="-24" transform="matrix(10.4657 0 0 -10.4657 268.5 263.1769)" style="overflow:visible;"/>
</svg>
