<?xml version="1.0" encoding="utf-8"?>
<!-- Generator: Adobe Illustrator 22.1.0, SVG Export Plug-In . SVG Version: 6.00 Build 0)  -->
<svg version="1.1" id="Capa_1" xmlns="http://www.w3.org/2000/svg" xmlns:xlink="http://www.w3.org/1999/xlink" x="0px" y="0px"
	 viewBox="0 0 537 547" style="enable-background:new 0 0 537 547;" xml:space="preserve">
<style type="text/css">
	.st0{fill:none;}
	.st1{fill-rule:evenodd;clip-rule:evenodd;fill:#662891;}
</style>
<symbol  id="Bank_x5F_Eghtesad_x5F_Novin_x5F_Color" viewBox="-24 -24 48 48">
	<g id="Bank_x5F_Eghtesad_x5F_Novin_x5F_Color_1_">
		<rect id="Boundary_105_" x="-24" y="-24" class="st0" width="48" height="48"/>
		<path id="Shape_146_" class="st1" d="M16.5-9c4.1,0,7.5-3.4,7.5-7.5S20.6-24,16.5-24S9-20.6,9-16.5S12.4-9,16.5-9z M10.1,23.6
			c0.1,0.2,0.3,0.4,0.5,0.4h13.1c0.1,0,0.1,0,0.2-0.1c0-0.1,0-0.1,0-0.2L1.4-23.7C1.3-23.9,1.2-24,1-24H0.4c-0.2,0-0.3,0.1-0.4,0.2
			c-0.1,0.1-0.1,0.3-0.1,0.4L10.1,23.6z M2.6,23.6C2.6,23.8,2.8,24,3.1,24h4c0.2,0,0.3-0.1,0.4-0.2c0.1-0.1,0.1-0.3,0.1-0.4
			l-10.2-47C-2.7-23.8-2.9-24-3.1-24h-4.1c-0.2,0-0.3,0.1-0.4,0.2c-0.1,0.1-0.1,0.3-0.1,0.4L2.6,23.6z M-1.4,23.7
			C-1.3,23.9-1.2,24-1,24h0.4c0.2,0,0.3-0.1,0.4-0.2C0,23.7,0,23.5,0,23.4l-10.2-47c-0.1-0.2-0.3-0.4-0.5-0.4h-13.1
			c-0.1,0-0.1,0-0.2,0.1c0,0.1,0,0.1,0,0.2L-1.4,23.7z M-16.5,24c4.1,0,7.5-3.4,7.5-7.5l0,0c0-4.1-3.4-7.5-7.5-7.5l0,0
			c-4.1,0-7.5,3.4-7.5,7.5l0,0C-24,20.6-20.6,24-16.5,24L-16.5,24z"/>
	</g>
</symbol>
<use xlink:href="#Bank_x5F_Eghtesad_x5F_Novin_x5F_Color"  width="48" height="48" x="-24" y="-24" transform="matrix(10.4686 0 0 -10.4686 268.7443 273.2443)" style="overflow:visible;"/>
</svg>
