<?xml version="1.0" encoding="utf-8"?>
<!-- Generator: Adobe Illustrator 22.1.0, SVG Export Plug-In . SVG Version: 6.00 Build 0)  -->
<svg version="1.1" id="Capa_1" xmlns="http://www.w3.org/2000/svg" xmlns:xlink="http://www.w3.org/1999/xlink" x="0px" y="0px"
	 viewBox="0 0 537 547" style="enable-background:new 0 0 537 547;" xml:space="preserve">
<style type="text/css">
	.st0{fill:none;}
	.st1{fill-rule:evenodd;clip-rule:evenodd;fill:#B01116;}
	.st2{fill-rule:evenodd;clip-rule:evenodd;fill:#00A1BE;}
</style>
<symbol  id="Bank_x5F_Gardeshgari_x5F_Color" viewBox="-24 -24 48 48">
	<g id="Bank_x5F_Gardeshgari_x5F_Color_1_" transform="translate(396)">
		<rect id="Boundary_107_" x="-420" y="-24" class="st0" width="48" height="48"/>
		<path id="Shape_151_" class="st1" d="M-415.7-7.5l7.7-13.3h5.7l-7.7,13.2l1.5,2.5l9.1-15.7h15.4l2.9,5l-15.3,0L-405.5,0l3.3,5.8
			h-5.8L-415.7-7.5z M-379.7-13.3L-372,0l-2.9,5l-7.6-13.2h-2.9l9.1,15.7l-7.7,13.3h-5.7l7.6-13.2l-9.1-15.8h-6.7l2.9-5H-379.7z
			 M-394.1,13.3l-1.5,2.5l-15.3,0l2.9,5h15.4l7.6-13.2l-2.9-5l-3.3,5.8h-18.3L-417.1-5l-2.9,5l7.7,13.3H-394.1z"/>
		<path id="Shape_150_" class="st2" d="M-396,5.7c3.2,0,5.8-2.6,5.8-5.8c0-3.2-2.6-5.8-5.8-5.8c-3.2,0-5.8,2.6-5.8,5.8
			C-401.8,3.1-399.2,5.7-396,5.7z"/>
	</g>
</symbol>
<use xlink:href="#Bank_x5F_Gardeshgari_x5F_Color"  width="48" height="48" x="-24" y="-24" transform="matrix(10.6458 0 0 -10.6458 268.5 268.5)" style="overflow:visible;"/>
</svg>
