<?xml version="1.0" encoding="utf-8"?>
<!-- Generator: Adobe Illustrator 22.1.0, SVG Export Plug-In . SVG Version: 6.00 Build 0)  -->
<svg version="1.1" id="Capa_1" xmlns="http://www.w3.org/2000/svg" xmlns:xlink="http://www.w3.org/1999/xlink" x="0px" y="0px"
	 viewBox="0 0 537 547" style="enable-background:new 0 0 537 547;" xml:space="preserve">
<style type="text/css">
	.st0{fill:none;}
	.st1{fill:#007D3D;}
	.st2{fill:#FFF400;}
</style>
<symbol  id="Bank_x5F_Ghavamin_x5F_Color" viewBox="-24 -24 48 48">
	<g id="Bank_x5F_Ghavamin_x5F_Color_1_" transform="translate(594)">
		<rect id="Boundary_108_" x="-618" y="-24" class="st0" width="48" height="48"/>
		<path id="Shape_153_" class="st1" d="M-598.8-24l-8.2,7.4h26.7V2.7c-1.4,4.5-5.7,7.5-10.4,7.2c-8.5,0-9.9-6.3-9.9-6.3
			S-602.4,14-587,14s16-11.2,16-11.2v-23.5c0,0-0.5-3.3-2.8-3.3H-598.8z M-617-2.8v23.5c0,0,0.5,3.3,2.8,3.3h25l8.2-7.4h-26.7V-2.7
			c1.4-4.5,5.7-7.5,10.4-7.2c8.5,0,9.9,6.3,9.9,6.3S-585.6-14-601-14C-616.4-14-617-2.8-617-2.8z"/>
		<path id="Shape_152_" class="st2" d="M-593.6,9c4.9,0,8.9-4,8.9-8.9s-4-8.9-8.9-8.9c-4.9,0-8.9,4-8.9,8.9c0,0,0,0,0,0
			C-602.5,5-598.5,9-593.6,9C-593.6,9-593.6,9-593.6,9z"/>
	</g>
</symbol>
<use xlink:href="#Bank_x5F_Ghavamin_x5F_Color"  width="48" height="48" x="-24" y="-24" transform="matrix(10.5625 0 0 -10.5625 269.5 273.5)" style="overflow:visible;"/>
</svg>
