<?xml version="1.0" encoding="utf-8"?>
<!-- Generator: Adobe Illustrator 22.1.0, SVG Export Plug-In . SVG Version: 6.00 Build 0)  -->
<svg version="1.1" id="Capa_1" xmlns="http://www.w3.org/2000/svg" xmlns:xlink="http://www.w3.org/1999/xlink" x="0px" y="0px"
	 viewBox="0 0 537 547" style="enable-background:new 0 0 537 547;" xml:space="preserve">
<style type="text/css">
	.st0{fill:none;}
	.st1{fill:#324C88;}
</style>
<symbol  id="Bank_x5F_Hekmat_x5F_Color" viewBox="-24 -24 48 48">
	<g id="Bank_x5F_Hekmat_x5F_Color_1_" transform="translate(792)">
		<rect id="Boundary_109_" x="-816" y="-24" class="st0" width="48" height="48"/>
		<path id="Shape_154_" class="st1" d="M-793.7-22.1c0,1,0.9,1.8,1.9,1.8c1,0,1.8-0.9,1.8-1.9c0-1-0.8-1.8-1.8-1.8
			C-792.9-24-793.7-23.2-793.7-22.1z M-784.7-18.5c0,1,0.9,1.8,1.9,1.8s1.8-0.9,1.8-1.9c0-1-0.8-1.8-1.8-1.8
			C-783.9-20.3-784.7-19.5-784.7-18.5L-784.7-18.5z M-802.7-18.5c0,1,0.9,1.8,1.9,1.8c1,0,1.8-0.9,1.8-1.9c0-1-0.8-1.8-1.8-1.8
			C-801.9-20.3-802.7-19.5-802.7-18.5L-802.7-18.5z M-795.5-12.9c0,1.9,1.7,3.5,3.6,3.4s3.5-1.7,3.4-3.6c0-1.9-1.6-3.4-3.5-3.4
			C-794-16.5-795.5-14.9-795.5-12.9L-795.5-12.9z M-784.6-5.5c0,1.9,1.6,3.5,3.6,3.4s3.5-1.6,3.4-3.6c0-1.9-1.6-3.4-3.5-3.4
			C-783-9-784.6-7.4-784.6-5.5L-784.6-5.5z M-806.3-5.5c0,2,1.5,3.5,3.5,3.6c2,0,3.5-1.7,3.5-3.7c0-1.9-1.6-3.4-3.5-3.5
			C-804.7-9-806.3-7.4-806.3-5.5L-806.3-5.5z M-797.3,0.1c0.1,3,2.5,5.3,5.5,5.2c3-0.1,5.3-2.5,5.2-5.5c-0.1-2.9-2.4-5.2-5.4-5.2
			C-794.9-5.4-797.3-2.9-797.3,0.1L-797.3,0.1z M-784.7,7.3c0.1,3,2.5,5.3,5.5,5.2c3-0.1,5.3-2.5,5.2-5.5c-0.1-2.9-2.4-5.2-5.4-5.2
			C-782.4,1.9-784.8,4.3-784.7,7.3L-784.7,7.3z M-810,7.4c0,3,2.4,5.4,5.4,5.5c3-0.1,5.4-2.6,5.3-5.6c-0.1-2.9-2.4-5.3-5.3-5.3
			C-807.6,2-810,4.4-810,7.4z M-799.2,16.6c0,4,3.2,7.3,7.2,7.4c4-0.1,7.3-3.4,7.2-7.4c0-4-3.2-7.3-7.2-7.4
			C-796,9.3-799.2,12.6-799.2,16.6z"/>
	</g>
</symbol>
<use xlink:href="#Bank_x5F_Hekmat_x5F_Color"  width="48" height="48" x="-24" y="-24" transform="matrix(10.625 0 0 -10.625 273 273.5)" style="overflow:visible;"/>
</svg>
