<?xml version="1.0" encoding="utf-8"?>
<!-- Generator: Adobe Illustrator 22.1.0, SVG Export Plug-In . SVG Version: 6.00 Build 0)  -->
<svg version="1.1" id="Capa_1" xmlns="http://www.w3.org/2000/svg" xmlns:xlink="http://www.w3.org/1999/xlink" x="0px" y="0px"
	 viewBox="0 0 537 547" style="enable-background:new 0 0 537 547;" xml:space="preserve">
<style type="text/css">
	.st0{fill:none;}
	.st1{fill:#4C2A93;}
	.st2{fill:#F10B7C;}
</style>
<symbol  id="Bank_Iran_Zamin_Color" viewBox="-24 -24 48 48">
	<g id="Bank_Iran_Zamin_Color_5_" transform="translate(1386)">
		<rect id="Boundary_171_" x="-1410" y="-24" class="st0" width="48" height="48"/>
		<path id="Shape_294_" class="st1" d="M-1403.2-17.2c20.3-8.3,35.4,7.8,27.7,25c13.7-15.7,2.4-31.8-12.1-31.8
			C-1392.7-24-1398.2-22-1403.2-17.2z M-1393.6,10.7c21.4,18.4,43-9.2,24.7-28C-1360.4,3-1376.4,18.2-1393.6,10.7z M-1403,17.6
			c-8.6-20.3,7.2-35.6,24.5-28.1c-5-4.2-9.9-6-14.4-6C-1407.8-16.5-1417.2,3.2-1403,17.6z M-1367.3,15.7
			c-19.5,10.2-35.9-4.4-29.9-22.3C-1413.6,16.4-1384.4,35.6-1367.3,15.7L-1367.3,15.7z"/>
		<path id="Shape_293_" class="st2" d="M-1386-9c5,0,9,4,9,9s-4,9-9,9s-9-4-9-9C-1395-5-1391-9-1386-9"/>
	</g>
</symbol>
<use xlink:href="#Bank_Iran_Zamin_Color"  width="48" height="48" id="XMLID_6_" x="-24" y="-24" transform="matrix(10.2706 0 0 -10.2706 270.5 271.499)" style="overflow:visible;"/>
</svg>
