<?xml version="1.0" encoding="utf-8"?>
<!-- Generator: Adobe Illustrator 22.1.0, SVG Export Plug-In . SVG Version: 6.00 Build 0)  -->
<svg version="1.1" id="Capa_1" xmlns="http://www.w3.org/2000/svg" xmlns:xlink="http://www.w3.org/1999/xlink" x="0px" y="0px"
	 viewBox="0 0 537 547" style="enable-background:new 0 0 537 547;" xml:space="preserve">
<style type="text/css">
	.st0{fill:none;}
	.st1{fill-rule:evenodd;clip-rule:evenodd;fill:url(#Shape_3_);}
	.st2{fill-rule:evenodd;clip-rule:evenodd;fill:#1F261A;}
</style>
<symbol  id="Bank_x5F_Keshavarzi_x5F_Color" viewBox="-24 -24 48 48">
	<g id="Bank_x5F_Keshavarzi_x5F_Color_1_" transform="translate(198)">
		<rect id="Boundary_114_" x="-222" y="-24" class="st0" width="48" height="48"/>
		
			<linearGradient id="Shape_3_" gradientUnits="userSpaceOnUse" x1="7385.9722" y1="-8656.292" x2="7386.7983" y2="-8656.292" gradientTransform="matrix(38.527 0 0 -48 -284773.2813 -415502)">
			<stop  offset="0" style="stop-color:#ECE482"/>
			<stop  offset="1" style="stop-color:#D8AC4E"/>
		</linearGradient>
		<path id="Shape_164_" class="st1" d="M-196.1-24h-3.9v2.9h-1.8v3.6l-7.8,0l0,9.3h-1.8l0,0.8h-2.3v1.2h-1.4v1.9h1.4v1.6h2.2l-0.6,1
			h-3.7c-0.5,0-0.9-0.6-0.9-0.6l-0.6,0.2c0.1,0.3,0.1,0.5,0.2,0.8c0.1,0.3,0.3,0.8,0.3,0.8l0,0.1c0.1,0.1,0.1,0.2,0.2,0.4
			c0.3,0.7,0.8,1.3,1.5,1.7c0.1,0,0.2,0.1,0.3,0.1c0.2,0.1,0.4,0.1,0.5,0.1c0.1,0,0.1,0,0.2,0l0,0l0,0.1c0.1,0.1,0.2,0.3,0.3,0.4
			c0.1,0.1,0.1,0.2,0.2,0.2c0.3,0.3,0.7,0.5,1.1,0.6l0,3.5l1.9,0l0,2.5l1.8,0l0,1.6l1.1,0l-1.3,2.2h-1.7l2.9,2.9l5,0v5.5h2.8V24h3.8
			v-2.6h2.8v-5.5l5,0l2.9-2.9h-1.7l-1.3-2.2l1.1,0l0-1.6l1.8,0l0-2.5l1.9,0l0-3.5c0.4-0.1,0.8-0.3,1.1-0.6c0.1-0.1,0.2-0.1,0.2-0.2
			c0.1-0.1,0.2-0.3,0.3-0.4l0-0.1l0,0c0.1,0,0.1,0,0.2,0c0.2,0,0.4,0,0.5-0.1c0.1,0,0.2-0.1,0.3-0.1c0.7-0.4,1.2-1,1.5-1.7
			c0.1-0.1,0.1-0.2,0.2-0.4l0-0.1c0,0,0.2-0.6,0.3-0.8c0.1-0.2,0.2-0.5,0.2-0.8l-0.6-0.2c0,0-0.3,0.6-0.9,0.6h-3.7l-0.6-1h2.2v-1.6
			h1.4v-1.8h-1.4v-1.2h-2.3l0-0.8h-1.8l0-9.3l-7.8,0V-21h-1.8V-24z"/>
		<path id="Shape_163_" class="st2" d="M-196.9-23.2h-2.3v2.9h-1.8v2.8h1.8V-19h2.2v1.6h1.8v-2.8h-1.8V-23.2z M-187.3-16.6h-21.4
			v8.9h21.4L-187.3-16.6z M-190.8-15.6c0,0,0-0.1,0-0.1c0-0.1,0-0.1-0.1-0.2c0-0.1-0.1-0.1-0.1-0.2c0,0-0.1,0-0.1-0.1
			c0,0-0.1,0-0.1,0.1c0,0-0.1,0.1-0.1,0.1c0,0-0.1,0.1-0.1,0.1c0,0,0,0,0,0.1c0,0.1,0.1,0.1,0.1,0.1c0,0.1,0.1,0.2,0.1,0.2
			c0,0.1,0.1,0.1,0.1,0.2l0,0.1c0,0,0,0,0,0l0.1,0c0.1-0.1,0.1-0.1,0.2-0.2C-190.9-15.4-190.8-15.5-190.8-15.6L-190.8-15.6z
			 M-196.2-14.6c0.3,0,0.6,0,1,0.1c0.3,0.1,0.6,0.1,0.8,0.2c0.2,0.1,0.5,0.2,0.7,0.4c0.2,0.1,0.4,0.3,0.5,0.5c0,0.1,0.1,0.1,0.2,0.3
			c0,0.1,0.1,0.1,0.1,0.1c0,0,0,0,0,0c0,0,0,0,0,0l0-0.1c0,0,0-0.1,0-0.3c0-0.1,0-0.2,0-0.4l0,0c0-0.2,0-0.4,0.1-0.5
			c0.1-0.1,0.2-0.2,0.3-0.2c0.1,0,0.2,0.1,0.3,0.2c0.1,0.2,0.2,0.4,0.2,0.6l0,0.1c0,0,0,0.1,0,0.1c0,0,0,0.1,0,0.1s0,0,0-0.1
			c0,0,0-0.1,0-0.1c-0.1-0.1-0.1-0.2-0.2-0.2c-0.1,0-0.2,0-0.2,0.1c-0.1,0.1-0.2,0.2-0.2,0.4v0.1v0c0,0.1,0,0.2,0,0.4
			c0,0.2,0,0.4,0.1,0.5l0.2,0.7c0,0,0,0.1,0,0.1l0.2,0.1l0.7,0.5c0.2,0.1,0.4,0.2,0.6,0.4c0.2,0.1,0.3,0.2,0.5,0.3
			c0.3,0.2,0.5,0.3,0.6,0.4c0.2,0.1,0.3,0.2,0.4,0.3c0.1,0.1,0.1,0.1,0.2,0.2c0.1,0.1,0.2,0.2,0.2,0.3c0.1,0.1,0.1,0.2,0.2,0.3
			c0.1,0.1,0.1,0.2,0.1,0.3c0,0,0,0,0,0.1c0,0-0.2-0.2-0.5-0.5c-0.2-0.2-0.4-0.3-0.6-0.5c-0.2-0.2-0.4-0.3-0.6-0.5
			c-0.3-0.2-0.6-0.4-0.9-0.6c-0.3-0.2-0.6-0.4-0.8-0.7l0,0c-0.1-0.1-0.1-0.1-0.2-0.2l0,0c0,0,0,0,0,0l0,0c0-0.1-0.1-0.1-0.1-0.2
			l0-0.1c-0.1-0.1-0.1-0.2-0.2-0.4l-0.1-0.4c0-0.2-0.1-0.4-0.2-0.5c-0.1-0.2-0.3-0.4-0.6-0.5c-0.6-0.3-1.2-0.5-1.9-0.5
			c-0.2,0-0.4,0-0.6,0c-0.3,0-0.7,0-0.9,0.2c-0.1,0.1-0.1,0.1-0.1,0.2c0,0.1,0,0.1,0,0.1c0,0-0.1-0.1-0.1-0.2c0-0.2,0-0.3,0-0.5
			c0-0.1,0-0.3,0.1-0.4c0.1-0.1,0.3-0.2,0.4-0.2c0.2,0,0.3,0,0.5,0L-196.2-14.6z M-203.5-12.7c0-0.1,0-0.2,0-0.3
			c0-0.1,0-0.2-0.1-0.3l-0.1-0.3c0-0.1-0.1-0.2-0.1-0.3c0-0.1-0.1-0.1-0.1-0.2c0,0-0.1-0.1-0.1-0.1c-0.1,0-0.1-0.1-0.2-0.1l-0.3-0.1
			c-0.1,0-0.1,0-0.2,0c-0.1,0-0.1,0-0.2,0c0,0,0,0,0,0c0,0,0,0,0,0.1c0,0.1,0.1,0.1,0.2,0.2c0.1,0.1,0.2,0.1,0.3,0.2
			c0.1,0.1,0.2,0.2,0.2,0.2c0.1,0.1,0.2,0.2,0.2,0.3c0,0,0,0.1,0.1,0.1c0,0.1,0.1,0.2,0.1,0.3l0.1,0.2c0,0,0,0.1,0,0.1
			C-203.6-12.7-203.6-12.6-203.5-12.7C-203.5-12.6-203.5-12.7-203.5-12.7L-203.5-12.7z M-198.3-13.5L-198.3-13.5L-198.3-13.5
			c0.1,0.1,0.2,0.2,0.2,0.2c0.1,0.1,0.1,0.2,0.2,0.3c0.1,0.1,0.1,0.3,0.1,0.4c0,0.1,0,0.3,0.1,0.4c0,0.1,0,0.2,0,0.4s0,0.3,0,0.4
			c0,0.1,0,0.2,0,0.2c0,0,0,0,0,0c0,0,0,0,0.1,0l0.2,0.1l0.5,0.3c0.2,0.1,0.4,0.3,0.6,0.4c0.2,0.1,0.3,0.2,0.5,0.4
			c0.3,0.2,0.5,0.4,0.6,0.5c0.2,0.1,0.3,0.2,0.4,0.3c0.1,0.1,0.1,0.1,0.2,0.2c0.1,0.1,0.2,0.2,0.3,0.3c0.1,0.1,0.1,0.2,0.2,0.3
			c0.1,0.1,0.1,0.2,0.2,0.3c0,0,0,0,0,0.1c0,0-0.2-0.2-0.6-0.5c-0.2-0.2-0.4-0.3-0.6-0.5c-0.2-0.2-0.4-0.3-0.7-0.5
			c-0.3-0.2-0.6-0.4-0.9-0.7c-0.2-0.2-0.5-0.3-0.7-0.5c-0.1-0.1-0.1-0.1-0.2-0.2c0-0.1-0.1-0.2-0.1-0.2l0,0l0,0v0l0,0l-0.2-0.6
			c0-0.1,0-0.1,0-0.2c0-0.1,0-0.2,0-0.3l0-0.4c0-0.1,0-0.3-0.1-0.4c0,0,0-0.1-0.1-0.1c0,0-0.1-0.1-0.1-0.1l0,0l0,0l0,0
			c0,0-0.1,0-0.1,0c0,0,0-0.1-0.1-0.1c0-0.1-0.1-0.1-0.1-0.1c0,0-0.1,0-0.1,0c0,0-0.1-0.1-0.1-0.1c0,0-0.1-0.1-0.2-0.1
			c-0.1,0-0.1,0-0.2,0c-0.1-0.1-0.2-0.1-0.3-0.2c-0.1-0.1-0.2-0.1-0.3-0.1c-0.2,0-0.3,0.1-0.4,0.2c-0.1,0.1-0.1,0.2-0.1,0.3
			c0,0.1,0,0.1,0,0.3c0,0.1,0,0.3,0.1,0.4l0.1,0.8l0,0.2c0,0,0,0.1,0,0.1l0,0c0-0.1-0.1-0.2-0.2-0.4s-0.1-0.3-0.1-0.3
			c0-0.2-0.1-0.5-0.1-0.9c-0.1-0.4-0.1-0.6-0.1-0.7l0,0c0-0.1,0-0.1,0-0.2c0-0.1,0-0.1,0-0.2c0.1-0.2,0.2-0.4,0.5-0.4
			c0.2,0,0.4,0.1,0.5,0.3c0.1,0.2,0.2,0.3,0.3,0.3l0.1,0c0,0,0.1,0,0.1,0c0.1,0,0.1,0,0.1,0.1c0,0,0.1,0.1,0.1,0.1c0,0,0.1,0,0.1,0
			c0,0,0.1,0,0.1,0c0,0,0.1,0.1,0.1,0.1c0,0,0.1,0,0.1,0C-198.5-13.6-198.4-13.6-198.3-13.5L-198.3-13.5L-198.3-13.5z M-204.2-10.8
			C-204.2-10.8-204.2-10.8-204.2-10.8C-204.2-10.7-204.3-10.7-204.2-10.8c-0.1,0.1-0.2,0-0.3,0c-0.1,0-0.2-0.1-0.3-0.2
			c-0.1-0.1-0.2-0.1-0.2-0.2c-0.1-0.1-0.3-0.2-0.4-0.4c-0.2-0.2-0.3-0.4-0.4-0.6c-0.1-0.1-0.1-0.3-0.1-0.5c0-0.1,0-0.1,0.1-0.2
			c0-0.1,0.1-0.1,0.2-0.1c0,0,0.1,0,0.1,0c0,0,0.1,0,0.1,0s0.1,0,0.1-0.1c0-0.1,0-0.2-0.1-0.2c-0.1-0.1-0.1-0.2-0.2-0.3
			c-0.1-0.1-0.2-0.2-0.4-0.2c-0.2-0.1-0.4-0.1-0.6-0.1c-0.2,0-0.4,0-0.6,0.2c-0.1,0.1-0.2,0.2-0.2,0.4c0,0.3,0.1,0.5,0.2,0.7
			l0.1,0.2c0.1,0.1,0.1,0.2,0.1,0.3c0.1,0.1,0.1,0.2,0.1,0.2s0,0.1,0.1,0.2c0,0,0,0,0,0.1c0,0,0,0.1,0,0.1c0,0,0,0-0.1-0.1
			c0,0,0-0.1-0.1-0.1l-0.2-0.3l-0.2-0.4c-0.1-0.2-0.2-0.3-0.2-0.5c0-0.1-0.1-0.2-0.1-0.3c0-0.1,0-0.2,0-0.3c0-0.1,0-0.2,0-0.3
			c0-0.1,0.1-0.2,0.1-0.3c0.2-0.2,0.4-0.3,0.7-0.3c0.2,0,0.5,0.1,0.7,0.2c0.1,0.1,0.2,0.1,0.3,0.2c0.1,0.1,0.2,0.2,0.2,0.3
			c0.1,0.2,0.2,0.4,0.3,0.7c0.1,0.2,0.1,0.4,0.1,0.7c0,0.1,0,0.2-0.1,0.3c0,0,0,0-0.1,0l-0.1,0l-0.1,0.1c0,0,0,0.1-0.1,0.1
			c0,0.1,0.1,0.1,0.1,0.2c0.1,0.1,0.2,0.2,0.3,0.3c0.1,0.1,0.2,0.1,0.3,0.2c0.1,0,0.1,0.1,0.2,0.1c0,0,0,0,0,0l0.1,0
			c0,0,0.1,0,0.1,0.1c0,0,0,0.1,0.1,0.2c0,0.1,0.1,0.1,0.1,0.2C-204.2-10.9-204.2-10.8-204.2-10.8L-204.2-10.8z M-201.2-13.6
			l-0.1-0.3c0-0.1-0.1-0.2-0.2-0.3c0-0.1-0.1-0.1-0.1-0.2c-0.1,0-0.1-0.1-0.2-0.1l-0.1-0.1c-0.1,0-0.2,0-0.2-0.1c-0.1,0-0.2,0-0.2,0
			l0,0c0,0,0.1,0.1,0.3,0.2l0.3,0.2c0,0,0.1,0.1,0.2,0.1c0.1,0.1,0.1,0.1,0.2,0.2c0.1,0.1,0.1,0.1,0.1,0.2c0,0,0,0,0,0l-0.2,0
			c-0.1,0-0.2,0-0.2,0.1c-0.1,0-0.1,0.1-0.1,0.2c0,0,0,0.1,0,0.1c0,0.1,0.1,0.1,0.1,0.3c0,0.1,0.1,0.2,0.1,0.2
			c0.1,0.1,0.1,0.1,0.2,0.1c0.1,0,0.2,0,0.3-0.1c0.1-0.1,0.1-0.2,0.1-0.3c0-0.1,0-0.1,0-0.2l0-0.1c0,0,0-0.1,0-0.1
			C-201.2-13.5-201.2-13.5-201.2-13.6L-201.2-13.6z M-202.3-12.6c0-0.1,0-0.2,0-0.3c0-0.1,0-0.2-0.1-0.3l-0.1-0.3
			c0-0.1-0.1-0.2-0.1-0.3c0-0.1-0.1-0.1-0.1-0.2c0,0-0.1-0.1-0.1-0.1c-0.1,0-0.1-0.1-0.2-0.1l-0.3-0.1c-0.1,0-0.1,0-0.2,0
			c-0.1,0-0.1,0-0.2,0c0,0,0,0,0,0c0,0,0,0,0,0.1c0.1,0.1,0.1,0.1,0.2,0.2c0.1,0.1,0.2,0.1,0.3,0.2c0.1,0.1,0.2,0.2,0.2,0.2
			c0.1,0.1,0.2,0.2,0.2,0.3c0,0,0,0.1,0.1,0.1c0,0.1,0.1,0.2,0.1,0.3l0.1,0.2c0,0,0,0.1,0,0.1S-202.4-12.6-202.3-12.6
			C-202.3-12.6-202.3-12.6-202.3-12.6z M-191.2-13.2c0,0.1,0,0.1,0,0.3c0,0.1,0,0.3,0.1,0.4l0.1,0.8l0,0.2c0,0,0,0.1,0,0.1l0,0
			c0-0.1-0.1-0.2-0.2-0.4c-0.1-0.2-0.1-0.3-0.1-0.3c0-0.2-0.1-0.5-0.1-1c-0.1-0.4-0.1-0.7-0.1-0.7l0,0c0-0.2,0-0.4,0.1-0.5
			c0.1-0.1,0.2-0.2,0.3-0.2c0.1,0,0.2,0.1,0.3,0.2c0.1,0.2,0.2,0.4,0.2,0.6l0,0.1c0,0,0,0.1,0,0.1c0,0,0,0.1,0,0.1s0,0,0-0.1l0-0.1
			c-0.1-0.1-0.1-0.2-0.2-0.2c-0.1,0-0.2,0-0.2,0.1c-0.1,0.1-0.2,0.2-0.2,0.4L-191.2-13.2L-191.2-13.2z M-203.2-11.1c0,0,0-0.1,0-0.1
			c0-0.1,0-0.1-0.1-0.2c0-0.1-0.1-0.1-0.1-0.2c0,0-0.1,0-0.1-0.1c0,0-0.1,0-0.1,0.1c0,0-0.1,0.1-0.1,0.1c0,0-0.1,0.1-0.1,0.1
			c0,0,0,0,0,0.1c0,0.1,0.1,0.1,0.1,0.1c0,0.1,0.1,0.2,0.1,0.2c0,0.1,0.1,0.1,0.1,0.2l0,0.1c0,0,0,0,0,0l0.1,0
			c0.1-0.1,0.1-0.1,0.2-0.2C-203.2-11-203.2-11.1-203.2-11.1z M-199.5-10.2c0,0.1,0,0.1-0.1,0.1c-0.1,0.1-0.1,0.1-0.2,0.2l-0.1,0
			c0,0,0,0,0,0l0-0.1c0-0.1-0.1-0.1-0.1-0.2c0,0-0.1-0.1-0.1-0.2c0,0,0-0.1-0.1-0.1c0,0,0-0.1,0-0.1c0,0,0.1-0.1,0.1-0.1
			c0,0,0.1-0.1,0.1-0.1c0,0,0.1,0,0.1-0.1c0,0,0.1,0,0.1,0.1c0.1,0.1,0.1,0.1,0.1,0.2c0,0.1,0.1,0.1,0.1,0.2
			C-199.4-10.3-199.4-10.3-199.5-10.2L-199.5-10.2z M-198.7-10.2c0,0,0-0.1,0-0.1c0-0.1,0-0.1-0.1-0.2c0-0.1-0.1-0.1-0.1-0.2
			c0,0-0.1,0-0.1-0.1c0,0-0.1,0-0.1,0.1c0,0-0.1,0.1-0.1,0.1c0,0-0.1,0.1-0.1,0.1c0,0,0,0,0,0.1c0,0.1,0.1,0.1,0.1,0.1
			c0,0.1,0.1,0.1,0.1,0.2c0,0.1,0.1,0.1,0.1,0.2l0,0.1c0,0,0,0,0,0l0.1,0c0.1-0.1,0.1-0.1,0.2-0.2
			C-198.7-10.1-198.7-10.1-198.7-10.2L-198.7-10.2z M-192.1-10.1c0,0,0-0.1,0-0.1c0-0.1,0-0.1-0.1-0.2c0-0.1-0.1-0.1-0.1-0.2
			c0,0-0.1,0-0.1-0.1c0,0-0.1,0-0.1,0.1c0,0-0.1,0.1-0.1,0.1c0,0-0.1,0.1-0.1,0.1c0,0,0,0,0,0.1c0,0.1,0.1,0.1,0.1,0.1
			c0,0.1,0.1,0.2,0.1,0.2c0,0.1,0.1,0.1,0.1,0.2l0,0.1c0,0,0,0,0,0l0.1,0c0.1-0.1,0.1-0.1,0.2-0.2C-192.2-10-192.2-10.1-192.1-10.1
			L-192.1-10.1z M-199.1-9.3c0,0.1,0,0.1-0.1,0.1c-0.1,0.1-0.1,0.1-0.2,0.2l-0.1,0c0,0,0,0,0,0l0-0.1c0-0.1-0.1-0.1-0.1-0.2
			c0,0-0.1-0.1-0.1-0.2c0,0,0-0.1-0.1-0.1c0,0,0-0.1,0-0.1c0,0,0.1-0.1,0.1-0.1l0.1-0.1c0,0,0.1,0,0.1-0.1c0,0,0.1,0,0.1,0.1
			c0.1,0.1,0.1,0.1,0.1,0.2c0,0.1,0.1,0.1,0.1,0.2C-199.1-9.4-199.1-9.4-199.1-9.3L-199.1-9.3z M-202.5,15.2l1.3-2.2V2.5l2.8-2v-7.4
			h-3.2v6.8l-3.2,3.2v7.7l-1.9,3.2h-1.7l1.1,1.1L-202.5,15.2z M-205.2,2.4l2.8-2.8v-6.5h-2.6l-4,6.1h-6.9c0.6,1.4,1.5,2.3,2.6,1.7
			c0,0.9,0.3,1.5,1.9,1.5L-205.2,2.4z M-209.5-1.6l3.4-5.3h-1.6l-3.4,5.3H-209.5z M-194.4-6.9h-3.2v7.4l2.8,2V13l1.3,2.2h4.9
			l1.1-1.1h-1.7l-1.9-3.2V3.1l-3.2-3.2L-194.4-6.9z M-187-0.8l-4-6.1h-2.6v6.5l2.8,2.8h6.2c1.5,0,1.9-0.6,1.9-1.5
			c1.1,0.6,2.1-0.3,2.6-1.7L-187-0.8z M-190-6.9l3.4,5.3h1.6l-3.4-5.3H-190z M-209.5-5.5h-1.9v0.9h1.3L-209.5-5.5z M-184.5-5.5h-1.9
			l0.6,0.9h1.3L-184.5-5.5z M-196.9,20.6h2.8l0-4.8l-1.5-2.6V2.9l-2-1.4v2.4l0.7,0.5v14.8h-2.2V4.4l0.7-0.5V1.5l-2,1.4v10.2
			l-1.5,2.6l0,4.8h2.8v2.6h2.2L-196.9,20.6z M-208.1,3.2h0.8v2.4h-0.8V3.2z M-206.4,3.2h0.8v7.4l-1.5,2.7h-0.9l1.6-2.8V3.2z
			 M-188.7,3.2h0.8v2.4h-0.8V3.2z M-189.6,3.2h-0.8v7.4l1.5,2.7h0.9l-1.6-2.8V3.2z"/>
	</g>
</symbol>
<use xlink:href="#Bank_x5F_Keshavarzi_x5F_Color"  width="48" height="48" x="-24" y="-24" transform="matrix(10.8334 0 0 -10.8334 276.9994 275.0006)" style="overflow:visible;"/>
</svg>
