<?xml version="1.0" encoding="utf-8"?>
<!-- Generator: Adobe Illustrator 22.1.0, SVG Export Plug-In . SVG Version: 6.00 Build 0)  -->
<svg version="1.1" id="Capa_1" xmlns="http://www.w3.org/2000/svg" xmlns:xlink="http://www.w3.org/1999/xlink" x="0px" y="0px"
	 viewBox="0 0 537 547" style="enable-background:new 0 0 537 547;" xml:space="preserve">
<style type="text/css">
	.st0{fill:none;}
	.st1{fill:#F29200;}
</style>
<symbol  id="Bank_x5F_Khavar_x5F_Mianeh_x5F_Color" viewBox="-24 -24 48 48">
	<g id="Bank_x5F_Khavar_x5F_Mianeh_x5F_Color_1_" transform="translate(396)">
		<rect id="Boundary_115_" x="-420" y="-24" class="st0" width="48" height="48"/>
		<path id="Shape_165_" class="st1" d="M-420-13.5l18,14.1l-18-9v6.7l25.9,10.1c0.5-2,1.8-3.8,3.5-5.1l-16-27.2h-6.8L-399-3.1
			L-420-24V-13.5z M-372-23.9l-10.8,25.9c2.2,0.7,4.1,2.3,5.2,4.4L-372,3v-3.2l-3.6,1.8l3.6-4.9v-4.1l-5.8,5.4l5.8-10V-24L-372-23.9
			z M-382-24l-3.6,17.4l-0.2-17.4h-5.4l1.3,17.1l-4.9-17.1h-6.5l11.3,26.9c2-1.2,4.3-1.6,6.6-1l6.8-25.9H-382z M-420,8l16.8,2.3
			l-16.8,1.1v5.1l18-2.3l-18,5.2V24h5.7l20.9-9.5c-0.9-1.8-1.2-3.8-0.8-5.7L-420,1.9V8z M-377.4,7c0.9,2.1,0.9,4.6,0.1,6.7l5.3,1.3
			v-2.3l-3.2-0.9l3.2-0.6V8.9l-2.5-0.1l2.5-0.9V4.8L-377.4,7z M-382.2,18.7l2.9,5.3h3.2l-3.4-5.6l5.2,5.6h2.3v-2.5l-5.8-4.6l5.8,2.9
			v-3.5l-5.5-2.1C-378.5,16.2-380.2,17.8-382.2,18.7z M-408.8,24h7.9l5.1-3.6L-399,24h4l2-2.5l-1.1,2.5h3.1l2.1-5.4
			c-1.7-0.7-3.2-2-4.2-3.6L-408.8,24z M-389.8,24h2.6l0.6-2.2l0.1,2.2h2.4l-0.2-2.8l0.9,2.8h2.8l-2-5.2c-1.9,0.7-4,0.7-5.9,0
			L-389.8,24z"/>
	</g>
</symbol>
<use xlink:href="#Bank_x5F_Khavar_x5F_Mianeh_x5F_Color"  width="48" height="48" x="-24" y="-24" transform="matrix(10.4375 0 0 -10.4375 268.5 273.5)" style="overflow:visible;"/>
</svg>
