<?xml version="1.0" encoding="utf-8"?>
<!-- Generator: Adobe Illustrator 22.1.0, SVG Export Plug-In . SVG Version: 6.00 Build 0)  -->
<svg version="1.1" id="Capa_1" xmlns="http://www.w3.org/2000/svg" xmlns:xlink="http://www.w3.org/1999/xlink" x="0px" y="0px"
	 viewBox="0 0 537 547" style="enable-background:new 0 0 537 547;" xml:space="preserve">
<style type="text/css">
	.st0{fill:none;}
	.st1{fill-rule:evenodd;clip-rule:evenodd;fill:#832D6A;}
	.st2{fill:url(#Shape_7_);}
	.st3{fill:url(#Shape_8_);}
	.st4{fill:url(#Shape_9_);}
	.st5{fill-rule:evenodd;clip-rule:evenodd;fill:#FAA61A;}
	.st6{fill-rule:evenodd;clip-rule:evenodd;fill:url(#Shape_10_);}
</style>
<symbol  id="Bank_x5F_Kosar_x5F_Color" viewBox="-24 -23.2 48 48">
	<g id="Bank_x5F_Kosar_x5F_Color_4_" transform="translate(594)">
		<rect id="Boundary_211_" x="-618" y="-23.2" class="st0" width="48" height="48"/>
		<path id="Shape_300_" class="st1" d="M-580.8-12.9c-3.3-3.2-7.7-5-12.3-5c-7.3,0-14,4.5-16.6,11.4c-0.1,0.1-0.2,0.2-0.3,0.3
			c-0.1,0-0.3,0-0.4-0.1l-7.4-6.8c-0.1-0.1-0.1-0.2-0.1-0.3c0-0.1,0-0.2,0.1-0.3c4.8-5,11.4-7.9,18.3-7.9c7.7,0,14.9,3.5,19.7,9.5
			c0,0,0,0,0,0c0,0,0,0.1-0.1,0.1c0,0,0,0,0,0C-580.2-12.3-580.5-12.6-580.8-12.9z M-590.3,10.6c7.6-2.2,12.8-9.2,12.8-17.1
			c0-4.1-1.4-8-4-11.2c-0.1-0.1-0.1-0.3-0.1-0.4c0-0.1,0.1-0.2,0.3-0.3l9.6-3c0,0,0.1,0,0.1,0c0.2,0,0.4,0.1,0.4,0.3
			c0.7,2.3,1,4.7,1,7.2c0,12.4-9.2,23.1-21.4,24.9c0,0-0.1,0-0.1,0c0,0,0,0,0,0c0,0,0-0.1,0-0.1C-591,10.8-590.6,10.7-590.3,10.6z
			 M-605.9-9.3c-0.3,1.4-0.5,2.8-0.5,4.3c0,9.8,8,17.8,17.8,17.8c0.9,0,1.8-0.1,2.8-0.2c0,0,0,0,0.1,0c0.2,0,0.4,0.2,0.4,0.4
			c0,0,0,0.1,0,0.1l-2.2,9.8c0,0.1-0.1,0.2-0.2,0.3c-0.1,0.1-0.2,0.1-0.3,0.1c-11.3-2.7-19.4-12.9-19.4-24.5c0-3.1,0.6-6.3,1.7-9.2
			c0,0,0,0,0.1,0c0,0,0,0,0,0.1c0,0,0,0,0,0C-605.7-10.1-605.8-9.7-605.9-9.3z"/>
		
			<radialGradient id="Shape_7_" cx="7111.7236" cy="-9026.6064" r="0.636" gradientTransform="matrix(16.7275 11.9008 11.9009 -16.7275 -12135.5732 -235612.9844)" gradientUnits="userSpaceOnUse">
			<stop  offset="0" style="stop-color:#EC008C;stop-opacity:0.4078"/>
			<stop  offset="1" style="stop-color:#621A4F"/>
		</radialGradient>
		<path id="Shape_299_" class="st2" d="M-586.2,13.6l-1.9,8.6c0,0.1-0.1,0.1-0.1,0.2c-0.1,0-0.1,0-0.2,0
			c-10.5-2.8-18.1-12.2-18.3-23.1c0,0,0-0.1,0.1-0.1c0,0,0.1,0,0.1,0c2.2,9.1,10.9,15.1,20.1,14c0,0,0,0,0,0
			C-586.3,13.3-586.2,13.4-586.2,13.6C-586.2,13.6-586.2,13.6-586.2,13.6z"/>
		
			<radialGradient id="Shape_8_" cx="7928.4536" cy="-9086.6201" r="1.1053" gradientTransform="matrix(-1.1181 11.7621 11.7621 1.1181 115169.3203 -83103.4219)" gradientUnits="userSpaceOnUse">
			<stop  offset="0" style="stop-color:#EC008C;stop-opacity:0.4078"/>
			<stop  offset="1" style="stop-color:#621A4F"/>
		</radialGradient>
		<path id="Shape_298_" class="st3" d="M-580.3-17.9l8.4-2.7c0,0,0,0,0.1,0c0.1,0,0.2,0.1,0.2,0.2c2.9,10.5-1.6,21.7-10.9,27.4
			c0,0,0,0,0,0c0,0-0.1,0-0.1-0.1c0,0,0,0,0,0c6.8-6.4,7.7-17,2.1-24.5c0-0.1-0.1-0.1,0-0.2C-580.4-17.8-580.3-17.9-580.3-17.9z"/>
		
			<radialGradient id="Shape_9_" cx="6436.0762" cy="-8780.6953" r="0.9572" gradientTransform="matrix(12.4073 -5.6726 -5.6726 -12.4073 -130269.0391 -72453.7891)" gradientUnits="userSpaceOnUse">
			<stop  offset="0" style="stop-color:#EC008C;stop-opacity:0.4078"/>
			<stop  offset="1" style="stop-color:#621A4F"/>
		</radialGradient>
		<path id="Shape_297_" class="st4" d="M-610.5-7.3l-6.5-5.9c-0.1,0-0.1-0.1-0.1-0.2c0-0.1,0-0.1,0.1-0.2c7.7-7.8,19.6-9.5,29.2-4.3
			c0,0,0,0.1,0,0.1c0,0,0,0-0.1,0c-8.9-2.6-18.5,1.9-22.2,10.4c0,0.1-0.1,0.1-0.2,0.1C-610.4-7.2-610.5-7.2-610.5-7.3z"/>
		<path id="Shape_296_" class="st5" d="M-593.7,4.8c4.8,0.8,9.3-2.5,10.1-7.3c0.8-4.8-2.5-9.3-7.3-10.1c-4.8-0.8-9.3,2.5-10.1,7.3
			C-601.8-0.5-598.5,4-593.7,4.8z"/>
		
			<radialGradient id="Shape_10_" cx="7679.9082" cy="-8979.1484" r="0.7328" gradientTransform="matrix(-16.2434 0 0 -16.2434 124151.7578 -145851.4688)" gradientUnits="userSpaceOnUse">
			<stop  offset="0" style="stop-color:#FFE293"/>
			<stop  offset="1" style="stop-color:#FAA61A"/>
		</radialGradient>
		<path id="Shape_295_" class="st6" d="M-584.7-1c-1.6,4.2-6.2,6.4-10.4,4.8s-6.4-6.2-4.8-10.4c1.6-4.2,6.2-6.4,10.4-4.8
			C-585.3-9.9-583.2-5.3-584.7-1z"/>
	</g>
</symbol>
<use xlink:href="#Bank_x5F_Kosar_x5F_Color"  width="48" height="48" id="XMLID_2_" x="-24" y="-23.2" transform="matrix(10.392 0 0 -10.392 266.8397 268.0489)" style="overflow:visible;"/>
</svg>
