<?xml version="1.0" encoding="utf-8"?>
<!-- Generator: Adobe Illustrator 22.1.0, SVG Export Plug-In . SVG Version: 6.00 Build 0)  -->
<svg version="1.1" id="Capa_1" xmlns="http://www.w3.org/2000/svg" xmlns:xlink="http://www.w3.org/1999/xlink" x="0px" y="0px"
	 viewBox="0 0 537 547" style="enable-background:new 0 0 537 547;" xml:space="preserve">
<style type="text/css">
	.st0{fill:none;}
	.st1{fill:#209B1C;}
</style>
<symbol  id="Bank_x5F_Mehr_x5F_Iran_x5F_Color" viewBox="-24 -24 48 48">
	<g id="Bank_x5F_Mehr_x5F_Iran_x5F_Color_1_" transform="translate(1188)">
		<rect id="Boundary_119_" x="-1212" y="-24" class="st0" width="48" height="48"/>
		<path id="Shape_171_" class="st1" d="M-1164,17.3c-3.8-1.4-7.3-3.7-9.9-6.8c-5.8-6.2-9.8-14.8-12.1-25.7c0-0.2-0.5,0.1-0.6-0.1
			c-4.9,2.2-8.6,9-10.4,16.4c-0.6,2.5-1.3,5-2.3,7.4c4,1.1,8.2-1.4,12.7-8.3c1.1,3.8,8.5,14.9,8.5,14.9l0.1,0.3
			c-8.5,7.5-21.4,6.7-28.9-1.7c-7.5-8.5-6.7-21.4,1.7-28.9c3.7-3.3,8.6-5.2,13.6-5.2c13.8,0,18.9,10.1,22.4,20.9
			C-1167.4,6-1166,12.1-1164,17.3"/>
	</g>
</symbol>
<use xlink:href="#Bank_x5F_Mehr_x5F_Iran_x5F_Color"  width="48" height="48" x="-24" y="-24" transform="matrix(10.5417 0 0 -10.5417 274 273)" style="overflow:visible;"/>
</svg>
