<?xml version="1.0" encoding="utf-8"?>
<!-- Generator: Adobe Illustrator 22.1.0, SVG Export Plug-In . SVG Version: 6.00 Build 0)  -->
<svg version="1.1" id="Capa_1" xmlns="http://www.w3.org/2000/svg" xmlns:xlink="http://www.w3.org/1999/xlink" x="0px" y="0px"
	 viewBox="0 0 537 547" style="enable-background:new 0 0 537 547;" xml:space="preserve">
<style type="text/css">
	.st0{fill:none;}
	.st1{fill:#BA0B22;}
	.st2{fill:#FFC730;}
</style>
<symbol  id="Bank_x5F_Mellat_x5F_Color" viewBox="-24 -24 48 48">
	<g id="Bank_x5F_Mellat_x5F_Color_1_" transform="translate(1584)">
		<rect id="Boundary_121_" x="-1608" y="-24" class="st0" width="48" height="48"/>
		<path id="Shape_175_" class="st1" d="M-1593-24c-0.7,0-1.3,0.2-1.9,0.5l-0.1,0l-2.6,1.5l-9.1,5.2c-0.3,0.1-0.5,0.3-0.6,0.6
			c-0.1,0.3-0.2,0.6-0.2,0.9v13.6c0,1.3,0.8,2.5,1.9,3.2l1.7,1l3.3,1.9l0.2,0.1V4.2l0-16.5c0-0.1,0-0.3,0.1-0.4
			c0-0.1,0.1-0.1,0.2-0.2c0.1,0,0.2-0.1,0.3-0.1h0c0.1,0,0.3,0,0.4,0.1l8.3,4.7l0.1,0l0.1-0.1v0l0.1-0.1l0.1-0.1l0,0l0.1-0.1
			l0.1-0.1l0,0l0.1-0.1l0.1-0.1l0,0l0.1-0.1l0.1-0.1l0,0l0.1-0.1l0.1-0.1v0c0.3-0.3,0.6-0.6,1-0.9c0.1-0.1,0.1-0.1,0.2-0.2l0,0
			c0.1,0,0.1-0.1,0.2-0.1l0.1-0.1l0.1-0.1l0,0l0.1,0l0.1,0l0,0l0.1,0l0.1,0l0,0l0.1-0.1l0,0l0,0l0,0l0.1,0l0.1,0l0,0l0.1,0l0.1,0
			l0,0c0.3-0.1,0.5-0.2,0.8-0.3c0.1,0,0.1,0,0.2-0.1c0,0,0.1,0,0.1,0l0,0h0l0.1,0l0.1,0h0l0.1,0l0.1,0l0,0l0.1,0l0.1,0l0,0l0.1,0
			l0.1,0l0,0l0.1,0l0.1,0l0.1,0l0.1,0l0.1,0l0.1,0l0.1,0l0.1,0l0.1,0l0.1,0l0.1,0l0.1,0l0.1,0l0.1,0l0,0c0.2,0,0.3,0,0.5-0.1l0.1,0
			l0.1,0h0h0.1h0.1h0.1h0.1h0.3h0.1h0.1h0.1h0.1l0.1,0l0.1,0l0.1,0l0.1,0l0.1,0h0l0.1,0l0.1,0l0.1,0l0.1,0h0l0.1,0
			c0.1,0,0.1,0,0.2,0l0,0l0.1,0l0.1,0l0.1,0l0.1,0l0.1,0l0.1,0l0,0l0.1,0l0.1,0l0.1,0l0.1,0l0.1,0l0.1,0l0.1,0l0.1,0l0.1,0l0.1,0
			l0.1,0l0.1,0l0.1,0l0.1,0l0.1,0l0.1,0l0.1,0l0.1,0l0,0l0,0l0,0l0.1,0l0.1,0.1l0,0l0.1,0l0.1,0.1l0.1,0.1l0.1,0.1l0.1,0.1l0.1,0.1
			l0.1,0.1h0l0,0l0.1,0.1l0.1,0.1l0.1,0.1l0.1,0.1c0.1,0.1,0.3,0.2,0.4,0.3l0.1,0.1l0.1,0.1l0,0l0.1,0.1l0.1,0.1
			c0.1,0.1,0.2,0.1,0.2,0.2l0,0l0,0l0,0l0,0l0.1,0.1l0.1,0.1l0,0l0.1,0.1l0,0l0,0l0.1,0.1l0.1,0.1l0.1,0.1l0.1,0.1l0,0l0.1,0.1
			l0.1,0.1l0,0l0.1,0.1l0.1,0.1l0,0l0.1,0.1l0.1,0l6.1-3.5l0.2-0.1l-0.2-0.1l-18.7-10.7l-1.7-1C-1591.7-23.8-1592.4-24-1593-24z
			 M-1575-24c-0.7,0-1.3,0.2-1.9,0.5l-1.7,1l-3.3,1.9l-0.2,0.1l0.2,0.1l14.4,8.3c0.1,0.1,0.2,0.2,0.3,0.3c0,0.1,0.1,0.2,0.1,0.2
			c0,0.1,0,0.2-0.1,0.3c-0.1,0.1-0.2,0.2-0.3,0.3l-8.3,4.7l-0.1,0l0,0.1v0l0,0.1l0,0.1v0l0,0.1l0,0.1l0,0l0,0.1l0,0.1l0,0.1l0,0.1
			l0,0l0,0.1l0,0.1v0c0.1,0.4,0.2,0.8,0.3,1.3c0,0.1,0,0.2,0,0.2s0,0.2,0,0.2l0,0.1l0,0.1v0v0.1v0.1v0V-3v0.1v0c0,0,0,0.1,0,0.1v0.1
			v0.1v0.1v0v0.1v0.1v0c0,0.3,0,0.6-0.1,0.8c0,0.1,0,0.1,0,0.2s0,0.1,0,0.2v0l0,0.1l0,0.1v0l0,0.1l0,0.1l0,0l0,0.1l0,0.1l0,0l0,0.1
			l0,0.1l0,0l0,0.1l0,0.1l0,0.1l0,0.1l0,0.1l0,0.1l0,0.1l0,0.1l0,0.1l0,0.1l0,0.1l0,0l0,0.1l0,0.1l0,0c-0.1,0.2-0.1,0.3-0.2,0.5
			l0,0.1l0,0.1l0,0l0,0.1l0,0.1l0,0.1l0,0.1l0,0l0,0.1c0,0,0,0.1-0.1,0.1v0l0,0.1l0,0l0,0l0,0.1l-0.1,0.1l-0.1,0.1l-0.1,0.1
			l-0.1,0.1l-0.1,0.1l0,0.1l0,0l-0.1,0.1l-0.1,0.1l-0.1,0.1l-0.1,0.1l0,0l-0.1,0.1l-0.1,0.1l0,0l-0.1,0.1l-0.1,0.1l-0.1,0.1l0,0l0,0
			l0,0l0,0l-0.1,0.1l-0.1,0.1l-0.1,0.1l-0.1,0.1c0,0-0.1,0-0.1,0.1l-0.1,0.1l-0.1,0.1l-0.1,0.1l-0.1,0.1l-0.1,0.1l-0.1,0.1l-0.1,0.1
			l-0.1,0.1l-0.1,0.1l-0.1,0.1l-0.1,0.1l-0.1,0.1l0,0l0,0l0,0l-0.1,0l-0.1,0.1l0,0l-0.1,0l-0.1,0.1l-0.1,0.1l-0.1,0.1l-0.1,0.1
			l-0.1,0.1l-0.1,0.1h0l-0.1,0l-0.1,0l-0.1,0l-0.1,0c-0.1,0.1-0.3,0.1-0.4,0.2l-0.1,0l-0.1,0h0l-0.1,0l-0.1,0
			c-0.1,0-0.2,0.1-0.3,0.1l-0.1,0l-0.1,0l-0.1,0l-0.1,0l0,0l-0.1,0l0,0l0,0l0,0l-0.1,0l-0.1,0l-0.1,0l-0.1,0l-0.1,0l-0.1,0h0l-0.1,0
			l-0.1,0h0l-0.1,0v7.2l0.2-0.1l18.7-10.7l1.7-1c1.2-0.7,1.9-1.9,1.9-3.3v-13.5c0-0.3,0-0.6-0.2-0.8c-0.2-0.2-0.4-0.4-0.7-0.6
			l-11.8-6.8C-1573.7-23.9-1574.3-24-1575-24z M-1598.5-9.9v23.6c0,1.4,0.7,2.6,1.9,3.3l0.1,0l2.6,1.5l9.1,5.2
			c0.2,0.2,0.5,0.2,0.8,0.3h0c0.3,0,0.6-0.1,0.8-0.3l11.8-6.8c1.1-0.7,1.8-1.9,1.8-3.2v-6l-0.2,0.1l-14.4,8.3
			c-0.1,0.1-0.2,0.1-0.4,0.1c-0.1,0-0.2,0-0.3-0.1c-0.1,0-0.1-0.1-0.2-0.2c-0.1-0.1-0.1-0.3-0.1-0.4V6l-0.1,0h0l-0.1,0l-0.1,0h0
			l-0.1,0l-0.1,0h0l-0.1,0l-0.1,0h0l-0.1,0l-0.1,0h0l-0.1,0l-0.1,0h0c-0.4-0.1-0.8-0.2-1.2-0.4l-0.2-0.1c-0.1,0-0.1-0.1-0.2-0.1
			l-0.1,0l-0.1,0l0,0l-0.1,0l-0.1,0l0,0l-0.1,0l-0.1,0l0,0l-0.1-0.1l0,0l0,0l0,0l-0.1,0l-0.1,0l0,0l-0.1,0l-0.1,0l0,0
			c-0.2-0.1-0.5-0.3-0.7-0.5l0,0l0,0l-0.1,0c0,0-0.1-0.1-0.1-0.1l0,0l-0.1-0.1l-0.1-0.1l0,0l-0.1-0.1l-0.1-0.1l0,0l-0.1-0.1
			l-0.1-0.1l0,0l-0.1-0.1l-0.1-0.1l0,0l0-0.1l0-0.1l0-0.1l0,0l0,0l-0.1-0.1l0,0l0,0l0,0l0-0.1l0-0.1l0,0l0-0.1l0-0.1l0,0
			c-0.1-0.1-0.2-0.3-0.3-0.4l-0.1-0.1l-0.1-0.1l0,0l0-0.1l0-0.1l0-0.1l-0.1-0.1l0,0l0-0.1l0,0l0,0l0,0v0l0-0.1l0,0l0,0l0-0.1l0-0.1
			l0-0.1l0-0.1l0-0.1l0-0.1l0-0.1l-0.1-0.1l0-0.1l0-0.1c0,0,0,0,0-0.1s0,0,0-0.1v0l0-0.1c0,0,0-0.1,0-0.1l0,0l0,0l0-0.1l0-0.1l0-0.1
			l0-0.1l0-0.1l0-0.1l0,0l0-0.1l0-0.1l0-0.1l0-0.1c0,0,0-0.1,0-0.1l0-0.1l0-0.1l0-0.1l0-0.1l0-0.1l0-0.1l0-0.1l0-0.1l0-0.1l0-0.1
			l0-0.1l0-0.1v0v0v-0.1v-0.1v0v-0.1v-0.1v-0.2V-3v-0.1l0-0.1v0l0-0.1l0-0.1l0-0.1l0-0.1c0-0.2,0-0.3,0.1-0.4l0-0.1l0-0.1v0l0-0.1
			l0-0.1c0-0.1,0-0.2,0.1-0.3l0-0.1l0-0.1l0-0.1l0-0.1l0-0.1l0-0.1l0,0l0,0l0-0.1l0-0.1l0-0.1l0-0.1l0,0l0-0.1l0-0.1l0,0l0-0.1
			l0-0.1v0l0-0.1l-0.1,0l-6.1-3.5L-1598.5-9.9L-1598.5-9.9z"/>
		<path id="Shape_174_" class="st2" d="M-1591-2.7c0-3.9,3.1-7,7-7s7,3.1,7,7s-3.1,7-7,7S-1591,1.1-1591-2.7z"/>
	</g>
</symbol>
<use xlink:href="#Bank_x5F_Mellat_x5F_Color"  width="48" height="48" x="-24" y="-24" transform="matrix(10.5521 0 0 -10.5521 271.75 269.25)" style="overflow:visible;"/>
</svg>
