<?xml version="1.0" encoding="utf-8"?>
<!-- Generator: Adobe Illustrator 22.1.0, SVG Export Plug-In . SVG Version: 6.00 Build 0)  -->
<svg version="1.1" id="Capa_1" xmlns="http://www.w3.org/2000/svg" xmlns:xlink="http://www.w3.org/1999/xlink" x="0px" y="0px"
	 viewBox="0 0 537 547" style="enable-background:new 0 0 537 547;" xml:space="preserve">
<style type="text/css">
	.st0{fill:none;}
	.st1{fill-rule:evenodd;clip-rule:evenodd;fill:#B17D53;}
	.st2{fill-rule:evenodd;clip-rule:evenodd;}
</style>
<symbol  id="Bank_x5F_Parsian_x5F_Color" viewBox="-24 -24 48 48">
	<rect id="Boundary_124_" x="-24" y="-24" class="st0" width="48" height="48"/>
	<path id="Shape_184_" class="st1" d="M20.8-24H0.8v19.6C1-1.2,1.5,1.7,2.7,3.8C3.4,3.4,4.6,1.7,5-1.6C5.9,0.2,7.2,1.8,9,3
		c0.1-3.6-0.1-5-1.1-7.5c-1-2.2-3-3.8-5.3-4.4v-13.3H19c0,10.9,0.2,21.7,0,32.6c0,0.1,0,0.2,0,0.3c0,0.5-0.2,1-0.4,1.5
		c-0.5,1.2-1.5,2.2-2.7,2.7l0,0c0.3,0.5,0.7,1,1.1,1.5c0.6-0.3,1.2-0.8,1.8-1.3c0.7-0.7,1.3-1.6,1.6-2.6c0.3-0.7,0.4-1.5,0.4-2.3
		L20.8-24z M-0.8-24h-20.1v34.2c0,0.8,0.1,1.6,0.4,2.3c0.3,1,0.9,1.9,1.6,2.6c0.5,0.5,1.1,0.9,1.8,1.3c0.4-0.5,0.8-1,1.1-1.5l0,0
		c-1.2-0.5-2.1-1.5-2.7-2.7c-0.2-0.5-0.3-1-0.4-1.5c0-0.1,0-0.2,0-0.3c-0.2-10.9,0-21.7,0-32.6h16.5v13.3c-2.3,0.6-4.3,2.2-5.3,4.4
		C-8.9-2-9.1-0.6-9,3c1.7-1.1,3.1-2.7,4-4.6c0.4,3.3,1.6,5.1,2.3,5.4c1.2-2.1,1.6-5,1.9-8.2L-0.8-24z M7.6,22.8c0-0.2,0-0.3-0.1-0.5
		c0-0.2-0.1-0.5-0.2-0.7c-0.6-1.8-1.6-3.4-3-4.8c-0.2-0.3-0.5-0.5-0.7-0.8c-0.2-0.2-0.5-0.5-0.7-0.7c0.4-1.1,0.8-2.2,1.3-3.3
		c0.2-0.4,0.4-0.9,0.6-1.3c0.6,1,1.3,1.9,2,2.7c0.6,0.7,1.2,1.3,1.8,1.9c-0.5,0.9-0.8,1.9-0.9,2.9C7.6,19.8,7.5,21.3,7.6,22.8z
		 M-7.6,22.8c0-0.2,0-0.3,0.1-0.5c0-0.2,0.1-0.5,0.2-0.7c0.6-1.8,1.6-3.4,3-4.8c0.2-0.3,0.5-0.5,0.7-0.8c0.2-0.2,0.5-0.5,0.7-0.7
		c-0.4-1.1-0.8-2.2-1.3-3.3c-0.2-0.4-0.4-0.9-0.6-1.3c-0.6,1-1.3,1.9-2,2.7c-0.6,0.7-1.2,1.3-1.8,1.9c0.5,0.9,0.8,1.9,0.9,2.9
		C-7.6,19.8-7.5,21.3-7.6,22.8L-7.6,22.8z"/>
	<path id="Shape_183_" class="st2" d="M19,19.4c-3.2-2.3-6.9-7.3-7.3-12.5c-0.4-4.3-1.1-6.2-1.6-7c0.2,1.7,0.2,3.3,0,5
		C9.1,4.5,8.2,3.9,7.5,3.1C7.4,3.5,6.4,5.4,3.3,4.6c0.1,0.5,0.3,1,0.5,1.4c0.4,1.1,1,2.2,1.6,3.2l0,0c0.7,1.1,1.4,2.2,2.2,3.2
		c0.7,0.8,1.5,1.6,2.3,2.4c0,0,0,0,0.1,0.1c0.6,0.5,1.2,1,1.9,1.5c1.8,1.3,3.9,2.3,6,2.9C18.2,19.3,18.6,19.4,19,19.4z M-19,19.4
		c3.2-2.3,6.9-7.3,7.3-12.5c0.4-4.3,1.1-6.2,1.6-7c-0.2,1.7-0.2,3.3,0,5c0.9-0.5,1.8-1.1,2.5-1.8c0.1,0.4,1.1,2.3,4.2,1.4
		c-0.1,0.5-0.3,1-0.5,1.4c-0.4,1.1-1,2.2-1.6,3.2l0,0c-0.7,1.1-1.4,2.2-2.2,3.2c-0.7,0.8-1.5,1.6-2.3,2.4c0,0,0,0-0.1,0.1
		c-0.6,0.5-1.2,1-1.9,1.5c-1.8,1.3-3.9,2.3-6,2.9C-18.2,19.3-18.6,19.4-19,19.4L-19,19.4z M1.9,4.1C1.4,4.6,0.7,4.8,0,4.8
		c-0.7,0-1.4-0.2-1.9-0.7C-2.4,6-3.2,7.9-4.2,9.6c0.8,1.5,1.4,3,2,4.6c0.9,2.8,1.7,6.2,2.2,8c0.5-1.8,1.3-5.4,2.2-8
		c0.4-1,1.6-3.8,2-4.6C3.2,7.9,2.4,6,1.9,4.1L1.9,4.1z M8.9,20.8c0.2,1.9,2.4,2,3.7,1.6c1.9-0.6,2.6-2.4,1-3.4
		c-0.7-0.5-1.5-0.9-2.3-1.4c-0.6-0.4-1.2-0.9-1.7-1.3l0,0C9.1,17.7,8.9,19.2,8.9,20.8L8.9,20.8z M-8.9,20.8c-0.2,1.9-2.4,2-3.7,1.6
		c-1.9-0.6-2.6-2.4-1-3.4c0.7-0.5,1.5-0.9,2.3-1.4c0.6-0.4,1.2-0.9,1.7-1.3l0,0C-9.1,17.7-8.9,19.2-8.9,20.8L-8.9,20.8z M1.5,21.7
		c-0.1,1.2,0.8,2.3,2.1,2.3c0.1,0,0.3,0,0.4,0c0.7-0.1,2.7-0.6,2.2-2.3c-0.2-0.7-0.5-1.3-0.9-1.9c-0.7-1-1.5-2-2.4-2.8l-0.3-0.3
		c-0.3,1.1-0.6,2.3-0.8,3.4C1.6,20.6,1.5,21.1,1.5,21.7L1.5,21.7z M-1.5,21.7c0.1,1.2-0.8,2.3-2.1,2.3c-0.1,0-0.3,0-0.4,0
		c-0.7-0.1-2.7-0.6-2.2-2.3c0.2-0.7,0.5-1.3,0.9-1.9c0.7-1,1.5-2,2.4-2.8l0.3-0.3c0.3,1.1,0.6,2.3,0.8,3.4
		C-1.6,20.6-1.5,21.1-1.5,21.7L-1.5,21.7z"/>
</symbol>
<use xlink:href="#Bank_x5F_Parsian_x5F_Color"  width="48" height="48" x="-24" y="-24" transform="matrix(10.6458 0 0 -10.6458 268.5 273.5)" style="overflow:visible;"/>
</svg>
