<?xml version="1.0" encoding="utf-8"?>
<!-- Generator: Adobe Illustrator 22.1.0, SVG Export Plug-In . SVG Version: 6.00 Build 0)  -->
<svg version="1.1" id="Capa_1" xmlns="http://www.w3.org/2000/svg" xmlns:xlink="http://www.w3.org/1999/xlink" x="0px" y="0px"
	 viewBox="0 0 537 547" style="enable-background:new 0 0 537 547;" xml:space="preserve">
<style type="text/css">
	.st0{fill:none;}
	.st1{fill-rule:evenodd;clip-rule:evenodd;fill:#FECC09;}
</style>
<symbol  id="Bank_x5F_Pasargad_x5F_Color" viewBox="-24 -24 48 48">
	<g id="Bank_x5F_Pasargad_x5F_Color_1_" transform="translate(0 198)">
		<rect id="Boundary_125_" x="-24" y="-222" class="st0" width="48" height="48"/>
		<path id="Shape_185_" class="st1" d="M-21-222h42v0.4h-42V-222z M-21-221.4h42v1.1h-42V-221.4z M4.1-185.6l-3-19
			c0,0-0.2-3.3,1.5-5.3c0.8-0.7,1.8-1.3,2.8-1.7c1-0.5,1.7-1.4,1.9-2.4c0.2-1.6-1.5-1.9-2.4-1.5c-0.9,0.4-1.8,0.5-2.7,0.5
			c-1.4,0.1-2.5-0.9-2.7-2.2c0.1-1.2,0.8-2.2,1.9-2.7c0,0-1.8,0-3.2,0c-8.3-0.1-11.2,5.6-12.3,12.2l-3.6,22.1H4.1z M18.4-219.9H3.8
			c0,0-3.1,0.1-3.1,2.3c0,1.8,2,2.4,4.3,1.6c1-0.2,1.9-0.3,2.9-0.4c1.3-0.2,2.8,0.1,4.7-0.8c0.3,0,0.6,0,0.9,0
			c0.4,0,0.8-0.1,0.9-0.1c0.5,0.2,0.8,0.5,1.4,0.5c0.2,0,0.4-0.2,0.5-0.3c0.1,0.1,0.3,0.2,0.4,0.2c0.5,0,0.6-0.7,0.9-1.1
			c0.7-0.3,1.3-0.9,1.5-1.6c0-0.1-0.2-0.2-0.3-0.2c-0.7,0.8-1.3,1.5-2.1,2.3c-0.1,0,0.2-0.5,0.2-0.7c-0.4,0.3-1.1,1.2-1.4,1
			c-0.4-0.4,0.9-1.2,0.4-1.4c-0.3-0.1-0.9,0.5-1.6,0.7c-0.6,0.2-1.8,0.1-2,0.2c-1.4,0.8-4.8,0.7-7.3,0.9c-0.4,0-0.9,0.3-1.6,0.3
			c-0.8,0.1-1.7-0.2-1.7-1.2c0.1-0.9,0.9-1.5,1.8-1.5c3.2-0.1,8.7,0,8.7,0l-0.7,0.5c0,0-6.3,0-7.7,0.1c-0.5,0-0.8,0.4-0.8,0.9
			c0,0,0,0,0,0.1c0.2,0.5,0.9,0.3,0.9,0.3s0.8-0.1,1.2-0.1c2.2-0.1,4.4-0.4,6.5-0.8c0.5-0.1,1.3-0.1,1.9-0.2
			c0.9-0.1,1.7-0.5,2.3-1.1h0.6c0,0.2-0.1,0.5,0,0.7c0.1,0.1,0.2,0.1,0.4,0c0.2-0.1,0.3-0.3,0.4-0.3c0.1,0,0.2,0.1,0.3,0.1
			c0.3-0.1,0.5-0.4,0.7-0.7C18.4-219.6,18.4-219.7,18.4-219.9z M-2.9-216.5c-0.2-0.5,0-1,0.5-1.2c0,0,0.1,0,0.1,0l-2.8-0.8
			c-0.4-0.1-0.8,0.1-0.9,0.5c0,0,0,0,0,0l0,0c-0.1,0.3,0.1,0.6,0.4,0.7c0,0,0,0,0,0L-2.9-216.5z M-0.5-215.8c-0.1-0.5-0.1-1-0.2-1.4
			l-1.1-0.3c-0.3,0.1-0.7,0.2-0.7,0.6c0,0.2,0.1,0.5,0.3,0.6L-0.5-215.8z M-2.9-214.9c-0.4-0.5-0.2-1,0.4-1.2l-2.8-0.8
			c-0.4-0.1-0.8,0.1-0.9,0.5c0,0,0,0,0,0l0,0c-0.1,0.3,0.1,0.6,0.4,0.7c0,0,0,0,0,0L-2.9-214.9z M7.7-196.9
			c-1.9-1.1-3.4-2.7-4.5-4.6c-0.1-0.1-0.2-0.4-0.3-0.6c-0.3-0.5-0.5-1.1-0.7-1.6c-0.2-0.5-0.3-1.1-0.4-1.6c-0.4-1.3-0.1-2.7,0.7-3.8
			c0.6-0.6,1-0.9,3-1.7c0.3-0.1,0.6-0.3,0.9-0.4c1.5-0.8,2.2-2.6,1.6-4.2c-0.1-0.3-0.2-0.3,1.2-0.4c1,0,2.1-0.2,3.1-0.5
			c-0.2,2.2-0.6,8.1-0.7,9.4c0,0.2-0.1,0.2-0.2,0.2c-0.4,0-0.9,0-1.3,0.2c0.1,0.2,0.3,0.3,0.5,0.5l-0.7,0c-1,0.1-1.2,0.5-0.3,1
			c0,0-1.2-0.1-1.2,0.9c0,0.2,0,0.3,0.2,0.2s0.6,0,0.6,0c0,0.1-0.2,0.2-0.4,0.2c-0.2,0.1-0.4,0.3-0.5,0.6c-0.1,0.2,0,0.3,0.4,0.5
			c0.5,0.2,0.5,0.4,0.1,0.4c-0.9,0-0.9,1.3,0,2c0.4,0.4,0.4,0.5,0.2,0.6c-0.6,0.3-0.9,0.8-1,1.5c0,0.9,2.2,1.4,2.5,0.6
			c0.1-0.2,0.5-0.3,0.5,0c0,0.1,0.3,0.4,0.6,0.5c0.1,0.1-0.2,0.3-0.5,0.4c-0.7,0.2-1.4,0.3-2.1,0.2C8.4-196.7,8-196.8,7.7-196.9
			L7.7-196.9z M-0.4-214.2c0-0.5,0-0.9-0.1-1.4l-1.5-0.4c-0.8,0.1-1,0.6-0.6,1.2L-0.4-214.2z M0.1-215.5c0.1,2.2-0.2,4.5-1,6.6
			c-1.4,2.9-4.5,6-6.3,8c-0.3,0.4-0.4,0.8-0.4,1.2c0.2,1.9,2.9,1.5,2.9,1.5c0-0.3,0.1-0.6,0.2-0.9c0.9-2.2,3.7-5,5-7.6
			c1.1-2.6,2-5.3,2.8-8C1.7-214.5,0.6-214.8,0.1-215.5z M-3.2-213.4c-0.2-0.4,0-1,0.4-1.2c0,0,0,0,0.1,0l-2.8-0.8
			c-0.4-0.1-0.8,0.1-0.9,0.5c0,0,0,0,0,0l0,0c-0.1,0.3,0.1,0.6,0.4,0.7c0,0,0,0,0,0L-3.2-213.4z M-0.5-212.6
			c0.1-0.4,0.1-0.9,0.1-1.3l-1.5-0.4c-0.3,0-0.6,0.1-0.7,0.3c-0.2,0.3-0.1,0.7,0.1,0.9L-0.5-212.6z M-3.5-211.9
			c-0.2-0.4-0.1-0.9,0.2-1.1c0.1-0.1,0.2-0.1,0.3-0.1l-2.9-0.8c-0.2-0.1-0.4,0-0.5,0.1c-0.2,0.1-0.3,0.2-0.3,0.4l0,0
			c-0.1,0.3,0.1,0.6,0.4,0.7c0,0,0,0,0,0L-3.5-211.9z M-0.8-211.1c0.1-0.4,0.2-0.9,0.3-1.3l-1.9-0.5c-0.7,0.1-0.9,0.5-0.7,1.2
			L-0.8-211.1z M-4-210.4c-0.2-0.8,0.2-1,0.6-1.2l-2.9-0.9c-0.4-0.1-0.8,0.1-0.9,0.5c0,0,0,0,0,0l0,0c-0.1,0.3,0.1,0.6,0.4,0.7
			c0,0,0,0,0,0L-4-210.4z M-1.2-209.6c0.1-0.4,0.3-0.8,0.4-1.2l-2.1-0.6c-0.3,0.1-0.5,0.3-0.6,0.6c-0.1,0.2,0,0.4,0.2,0.6
			L-1.2-209.6z M-4.6-209.1c-0.2-0.4-0.1-0.8,0.3-1c0.1-0.1,0.2-0.1,0.3-0.1L-7-211c-0.2-0.1-0.4,0-0.5,0.1
			c-0.2,0.1-0.3,0.2-0.3,0.4l0,0c0,0.1,0,0.3,0.1,0.4c0.1,0.1,0.2,0.2,0.4,0.3L-4.6-209.1z M-1.9-208.2c0.2-0.4,0.4-0.8,0.5-1.2
			l-2.2-0.7c-0.4,0-0.7,0.3-0.7,0.6c0,0.2,0,0.4,0.2,0.5L-1.9-208.2z M-5.4-207.7c-0.2-0.4,0-0.9,0.4-1c0.1,0,0.1,0,0.2-0.1
			l-2.9-0.9c-0.4-0.1-0.7,0.1-0.8,0.5l0,0c0,0.1,0,0.3,0,0.4c0.1,0.1,0.2,0.2,0.3,0.3L-5.4-207.7z M-2.7-206.9
			c0.3-0.4,0.5-0.7,0.7-1.1l-2.3-0.7c-0.4,0-0.8,0.4-0.8,0.8c0,0.1,0,0.2,0.1,0.3L-2.7-206.9z M-6.6-206.5c0.2-0.6,0.4-1,0.6-1.1
			l-2.7-0.8c-0.2,0-0.4,0-0.5,0.1c-0.2,0.1-0.3,0.2-0.3,0.4l0,0c0,0.1,0,0.3,0,0.4c0.1,0.1,0.2,0.2,0.3,0.3L-6.6-206.5z M-3.7-205.6
			c0.3-0.3,0.6-0.7,0.8-1l-2.5-0.7c-0.4,0.1-0.7,0.4-0.6,0.8c0,0.1,0,0.2,0.1,0.3L-3.7-205.6z M-7.7-205.2c0,0,0.1,0,0.1-0.1
			c0.3-0.2-0.1-0.6,0.7-0.9l-2.9-0.8c-0.4-0.1-0.7,0.1-0.8,0.5c0,0,0,0,0,0l0,0c0,0.1,0,0.3,0,0.4c0.1,0.1,0.2,0.2,0.3,0.3
			L-7.7-205.2z M9.3-202c0.2,0,0.2-0.2,0-0.7c-0.2-0.5-0.8-0.5-0.7-0.6c0.2-0.4,1-0.2,1.2-0.3c0.2,0-0.1-0.6-0.6-0.9
			c-0.4-0.2-0.2-0.4,0.2-0.4c0.2,0,0.5,0.2,0.8,0.2c0.1,0,0.1-0.6-0.2-0.8c-0.7-0.5-0.1-0.5,0.7-0.3c0.5,0.1,0.4,0,0.2-0.4
			c-0.1-0.2-0.3-0.3-0.3-0.4c0.5-0.2,1.1,0,1.4,0.5c0.1,0.1,0.1,0.3-0.1,0.5c-0.9,0.7-1.5,1.7-1.7,2.9c-0.1,0.8-0.1,1.7-0.1,2.6
			c0.1,0.2,0,0.2-0.6-0.1C8.2-200.9,7.9-202.3,9.3-202L9.3-202z M13.3-203c-2,0-2.6-1.4-1-2.3c0.2-0.1,0.2-0.2,0.2-0.4
			c0-0.3,0.3-0.5,0.5-0.5c0.5,0,0.8,0.1,0.9,0.8c0.1,0.4,0.2,0.7,0.5,0.9c0.2,0.2,0.2,0.3,0.2,0.4c-0.1,0-0.3,0-0.4-0.3
			c-0.4-0.6-1.3-0.8-1.9-0.4c-0.1,0.1-0.3,0.2-0.4,0.4c-0.2,0.5,0.2,1.1,1.6,1.1c1,0,1,0,1.1-0.4c0.1-0.3,0.2-0.2,0.6,0.4
			c0.6,0.9,0.5,1-0.1,0.7C14.5-202.9,13.9-203,13.3-203z M-4.8-204.4c0.3-0.3,0.6-0.7,0.9-1l-2.4-0.7c-0.2,0.1-0.5,0.2-0.6,0.4
			c-0.1,0.2-0.1,0.5,0.1,0.7L-4.8-204.4z M-8.5-203.9c-0.2-0.6,0-0.9,0.6-1l-2.9-0.8c-0.2,0-0.4,0-0.5,0.1c-0.2,0.1-0.3,0.2-0.3,0.4
			l0,0c0,0.1,0,0.3,0,0.4c0.1,0.1,0.2,0.2,0.3,0.3L-8.5-203.9z M-6-203.1c0.3-0.3,0.6-0.6,0.9-1l-2.3-0.7c-0.4,0-0.7,0.3-0.6,0.7
			c0,0.1,0.1,0.3,0.1,0.4L-6-203.1z M-9.7-202.7c0-0.7,0.4-0.9,0.8-1l-3-0.9c-0.4-0.1-0.8,0.1-0.9,0.5l0,0.1c0,0.1,0,0.2,0,0.3
			c0.1,0.1,0.2,0.2,0.3,0.2L-9.7-202.7z M12.8-203.9c0.4,0,0.8-0.1,1.1-0.4c0,0,0.1,0.1,0.1,0.1c0.1,0.1,0.2,0.3,0.1,0.3
			c-0.5,0.2-1,0.2-1.5,0.1C12.3-203.8,12.4-203.9,12.8-203.9L12.8-203.9z M-7.1-201.9c0.3-0.3,0.6-0.6,0.9-1l-2.1-0.6
			c-0.5,0-0.9,0.3-0.9,0.8c0,0.1,0,0.2,0,0.2l0.3,0.2L-7.1-201.9z M-10.5-201.3c0.1-0.4,0.4-0.7,0.7-0.9l-3.1-0.8
			c-0.2-0.1-0.5,0-0.6,0.3l-0.3,0.4c-0.1,0.1-0.1,0.3,0,0.4c0.1,0.1,0.2,0.2,0.4,0.3L-10.5-201.3z M12.8-202.1
			c-0.1-0.2-0.3-0.4-0.5-0.6c0.8-0.1,1.5,0,2.2,0.3c0.3,0.1,0.5,0.2,0.8,0.1c0.1,0,0.1,0.2,0,0.6c-0.3,0.8-0.7,1-1.4,0.8
			C13.5-201.1,13-201.6,12.8-202.1z M12.7-200.4c-0.2-0.2-0.4-0.4-0.6-0.6c-0.7-0.5-1.1-1-0.8-1.3c0.5-0.5,1.4,0.3,1.4,1.3
			c0,0.4,0.4,0.8,1.3,0.9c0.3,0,0.3,0.1,0,0.1c-0.2,0-0.4,0-0.6,0C13.2-200.1,12.9-200.2,12.7-200.4z M-8-200.7
			c0.2-0.3,0.4-0.7,0.6-1l-2-0.5c-0.4,0.2-1,0.9-0.5,1.3l0,0L-8-200.7z M13.8-200.5c0.3,0.1,0.6,0.1,0.9,0c0.5-0.2,0.9-0.6,1-1.2
			c0-0.2,0.1-0.3,0.2-0.1c0.1,0.3,0.2,0.6,0.2,1c0,0.1,0,0.2-0.1,0.2c-0.2,0-0.3,0-0.5,0c-0.2,0-0.4,0.1-0.6,0.2
			c-0.4,0.1-0.9,0.1-1.3,0C13.6-200.3,13.5-200.5,13.8-200.5L13.8-200.5z M-10.6-201.1l-3.1-0.1c-0.3,0-0.5,0.2-0.6,0.5l-0.1,0.3
			c0,0.3,0,0.5,0.2,0.7c0.2,0.2,0.4,0.3,0.7,0.3c1-0.1,1.7-0.2,2.2-0.2C-11.2-200.2-11-200.7-10.6-201.1L-10.6-201.1z M11-200.8
			c0.3-0.3,0.8-0.2,1.1,0.1c0.4,0.6,1.1,1,1.9,1c0.3,0,0.1,0.1-0.1,0.3c-0.2,0.2-0.6,0.4-0.9,0.3c-0.3,0-0.4,0-0.4,0.1
			c0,0.3-0.6,0.6-1,0.3C10.9-199.1,10.5-200.3,11-200.8z M13.5-199.5c0,0-0.6-0.2-0.9-0.4c-0.1-0.1-0.2-0.1-0.3-0.2
			c-0.2,0-0.4,0-0.6,0.2c-0.2,0.2-0.1,0.6,0.2,0.6c0.2,0,0.1-0.1,0-0.3c0-0.1,0-0.2,0-0.2c0.5-0.2,0.4,0.7,0.1,0.7
			c-0.2,0-0.7-0.1-0.7-0.5c0-0.2,0.1-0.4,0.2-0.5c0.2-0.1,0.4-0.1,0.6-0.1c-0.2-0.2-0.5-0.4-0.8-0.4c-0.4,0-0.4,0.7-0.2,1.2
			c0.1,0.3,0.5,0.6,0.8,0.6c0.4,0,0.3-0.3,0.5-0.4C12.6-199.4,13.4-199.2,13.5-199.5L13.5-199.5z M-8-200.4l-2.3-0.1
			c-0.6,0.7-0.7,1.7-0.3,2.5c0.7-0.7,1.6-1.1,2.6-1.2c0-0.2-0.1-0.3-0.1-0.5C-8.2-199.9-8.1-200.2-8-200.4L-8-200.4z M10.6-198.4
			c-0.2-0.2-0.3-0.2-0.5,0.2c-0.2,0.3-0.5,0.5-0.8,0.5c-0.5,0-0.9-0.3-1.2-0.7c0-0.1,0.1-0.1,0.1-0.2c0.1-0.6,0.6-1,1.2-1.1
			c0.5,0,1,0.2,1.2,0.7c0.2,0.4,0.6,0.8,1,1c0.5,0.1,1,0,1.4-0.5c0.1-0.1,0.2-0.1,0.3-0.1c0.2-0.1,0.4-0.2,0.6-0.4
			c0.3-0.4,0.5-0.4,0.4-0.1c-0.3,0.4-0.6,0.8-1.1,1c-0.3,0.1-0.7,0.7-1.2,0.8c-0.2,0.1-0.4-0.1-0.6-0.3
			C11.1-198,10.7-198.3,10.6-198.4L10.6-198.4z M-11.3-199.4c-0.5,0.1-1.8,0.3-2.8,0.5c-0.2,0-0.3,0.1-0.5,0.3
			c-0.1,0.1-0.2,0.3-0.1,0.5l0.1,0.5c0,0.2,0.2,0.4,0.3,0.5c0.2,0.1,0.4,0.1,0.6,0c0.9-0.4,1.9-0.9,2.4-1.1
			C-11.3-198.6-11.3-199-11.3-199.4z M-8-198.9c-0.9,0.1-1.7,0.5-2.4,1.1c-0.5,0.6,0.6,2.1,1.2,1.7c0.3-0.9,0.8-1.6,1.6-2.1
			C-7.8-198.4-7.9-198.7-8-198.9z M-7.4-198.1c-0.6,0.5-1,1.1-1.3,1.9c-0.1,0.2-0.1,0.3,0,0.5c0.4,0.7,1.5,0.6,1.9,0.5
			c0.1,0,0.1-0.1,0.1-0.1c-0.1-0.6,0-1.3,0.2-1.9c0,0,0.1-0.5,0-0.5C-6.8-197.8-7.2-197.9-7.4-198.1z M-11.2-197.9l-2.5,1.3
			c-0.2,0.1-0.3,0.3-0.4,0.5c-0.1,0.2,0,0.4,0.1,0.6l0,0.1c0.1,0.2,0.4,0.4,0.6,0.5c0.3,0.1,0.5,0,0.7-0.2l1.9-1.6
			C-11-197.2-11.1-197.5-11.2-197.9L-11.2-197.9z M-6-197.7c-0.3,0.7-0.4,1.5-0.4,2.3c0,0.1,0.1,0.2,0.1,0.2c0.6,0,1.3-0.3,1.7-0.7
			c0.1-0.1,0.1-0.2,0-0.2c-0.3-0.5-0.5-1-0.4-1.6C-5.3-197.7-5.6-197.7-6-197.7z M-10.6-196.6c-0.7,0.6-1.4,1.1-2,1.8
			c-0.2,0.7,0.3,1.5,1,1.6c0.2,0,0.4,0,0.6,0c0.2-0.3,0.9-1.8,1.2-2.4C-10.1-195.9-10.4-196.2-10.6-196.6L-10.6-196.6z M-4.9-195
			c0.4,0.5,1.3,1.5,1.7,1.9c0.3,0.3,0.8,0.4,1,0.2c0.3-0.2,0.5-0.5,0.6-0.8c0.1-0.4,0-0.7-0.3-0.9c-0.4-0.3-1.6-0.9-2.1-1.2
			C-4.2-195.5-4.5-195.2-4.9-195z M-9.5-195.4c-0.3,0.6-1.1,2.1-1.3,2.6c-0.1,0.2-0.1,0.3,0,0.5c0.5,0.5,1.2,0.8,1.9,0.8
			c0.2,0,0.3-0.1,0.3-0.3c0,0,0,0,0,0c0-0.6,0.1-2.3,0.1-2.9C-8.8-195-9.2-195.2-9.5-195.4L-9.5-195.4z M-6.5-194.6
			c0.2,0.6,0.8,2,0.9,2.5c0.1,0.1,0.1,0.5,0.3,0.6c0.3,0.1,0.7,0.1,1,0.1c0.3-0.1,0.6-0.3,0.8-0.6c0.1-0.2,0.1-0.5-0.1-0.7
			c-0.3-0.4-1.2-1.6-1.6-2.1C-5.5-194.7-6-194.6-6.5-194.6L-6.5-194.6z M-8.1-194.7c0,0.7,0,2.5,0,3.1c0,0.2,0.2,0.5,0.5,0.5
			c0.5,0.1,1,0.1,1.5,0c0.3-0.1,0.4-0.3,0.4-0.6c-0.3-1-0.6-1.9-1-2.9c-0.4,0-0.7,0-1.2-0.1C-8-194.7-8-194.7-8.1-194.7L-8.1-194.7z
			 M4.1-185.3h-21.8l0,0.3H4.2L4.1-185.3z M4.2-184.4h-22.1l-0.1,0.6c0.1,0,0.1,0,0.2,0.1c0.2,0.1,0.5,0.2,0.6,0.4
			c0.2,0.2,0.3,0.3,0.5,0.6c0.1,0.2,0.2,0.3,0.2,0.5c0,0,0,0.1,0,0.1v0.6c0,0,0,0-0.1,0c-0.1,0-0.2-0.1-0.2-0.2
			c0-0.1-0.1-0.1-0.1-0.2c0,0,0-0.1,0-0.1c0-0.1-0.1-0.1-0.1-0.2c-0.1-0.2-0.2-0.3-0.3-0.5c-0.2-0.2-0.5-0.4-0.8-0.5h0l-1.3,7.9H5.7
			l-1.3-7.9c-0.1,0-0.2,0-0.2,0c-0.3,0.1-0.6,0.3-0.8,0.5c-0.1,0.2-0.2,0.3-0.3,0.5c0,0.1-0.1,0.1-0.1,0.2c0,0,0,0.1,0,0.1
			c0,0.1,0,0.1-0.1,0.2c0,0.1-0.1,0.2-0.2,0.2c0,0,0,0-0.1,0v-0.6c0,0,0-0.1,0-0.1c0.1-0.2,0.2-0.3,0.2-0.5c0.1-0.2,0.3-0.4,0.5-0.6
			c0.2-0.2,0.4-0.3,0.6-0.4c0.1-0.1,0.3-0.1,0.5-0.1L4.2-184.4z M-9.2-183.4c0,0,0.2,0,0.2,0c0.1,0,0.3,0,0.4,0.1
			c0.3,0.1,0.6,0.3,0.8,0.5c0.1,0.2,0.2,0.3,0.3,0.5c0,0.1,0.1,0.1,0.1,0.2c0,0,0,0.1,0,0.1c0,0.1,0.1,0.1,0.1,0.2
			c0,0.1,0.1,0.2,0.2,0.2c0,0,0,0,0.1,0v-0.6c0,0,0-0.1,0-0.1c-0.1-0.2-0.2-0.3-0.2-0.5c-0.1-0.2-0.3-0.4-0.5-0.6
			c-0.2-0.2-0.4-0.3-0.6-0.4c-0.2-0.1-0.4-0.1-0.6-0.1c-0.1,0-0.3,0-0.3,0c-0.1,0-0.2,0-0.2,0c-0.2,0-0.4,0.1-0.6,0.1
			c-0.2,0.1-0.5,0.2-0.6,0.4c-0.2,0.2-0.3,0.3-0.5,0.6c-0.1,0.2-0.2,0.3-0.2,0.5c0,0,0,0.1,0,0.1v0.6c0,0,0,0,0.1,0
			c0.1,0,0.2-0.1,0.2-0.2c0-0.1,0.1-0.1,0.1-0.2c0,0,0-0.1,0-0.1c0-0.1,0.1-0.1,0.1-0.2c0.1-0.2,0.2-0.3,0.3-0.5
			c0.2-0.2,0.5-0.4,0.8-0.5c0.1,0,0.2-0.1,0.4-0.1C-9.4-183.4-9.3-183.4-9.2-183.4z M0.1-183.8c0,0-0.2,0-0.3,0
			c-0.2,0-0.4,0.1-0.6,0.1c-0.2,0.1-0.5,0.2-0.6,0.4c-0.2,0.2-0.3,0.3-0.5,0.6c-0.1,0.2-0.2,0.3-0.2,0.5c0,0,0,0.1,0,0.1v0.6
			c0,0,0,0,0.1,0c0.1,0,0.2-0.1,0.2-0.2c0-0.1,0.1-0.1,0.1-0.2c0,0,0-0.1,0-0.1c0-0.1,0.1-0.1,0.1-0.2c0.1-0.2,0.2-0.3,0.3-0.5
			c0.2-0.2,0.5-0.4,0.8-0.5c0.1,0,0.2-0.1,0.4-0.1c0.1,0,0.2,0,0.2,0c0,0,0.2,0,0.2,0c0.1,0,0.3,0,0.4,0.1c0.3,0.1,0.6,0.3,0.8,0.5
			c0.1,0.2,0.2,0.3,0.3,0.5c0,0.1,0.1,0.1,0.1,0.2c0,0,0,0.1,0,0.1c0,0.1,0,0.1,0.1,0.2c0,0.1,0.1,0.2,0.2,0.2c0,0,0,0,0.1,0v-0.6
			c0,0,0-0.1,0-0.1c-0.1-0.2-0.2-0.3-0.2-0.5c-0.1-0.2-0.3-0.4-0.5-0.6c-0.2-0.2-0.4-0.3-0.6-0.4c-0.2-0.1-0.4-0.1-0.6-0.1
			C0.3-183.8,0.2-183.8,0.1-183.8L0.1-183.8z M-4.6-183.4c0.1,0,0.2,0,0.2,0c0.1,0,0.3,0,0.4,0.1c0.3,0.1,0.6,0.3,0.8,0.5
			c0.1,0.2,0.2,0.3,0.3,0.5c0,0.1,0.1,0.1,0.1,0.2c0,0,0,0.1,0,0.1c0,0.1,0,0.1,0.1,0.2c0,0.1,0.1,0.2,0.2,0.2c0,0,0,0,0.1,0v-0.6
			c0,0,0-0.1,0-0.1c-0.1-0.2-0.2-0.3-0.2-0.5c-0.1-0.2-0.3-0.4-0.5-0.6c-0.2-0.2-0.4-0.3-0.6-0.4c-0.2-0.1-0.4-0.1-0.6-0.1
			c-0.1,0-0.2,0-0.3,0s-0.2,0-0.3,0c-0.2,0-0.4,0.1-0.6,0.1c-0.2,0.1-0.5,0.2-0.6,0.4c-0.2,0.2-0.3,0.3-0.5,0.6
			c-0.1,0.2-0.2,0.3-0.2,0.5c0,0,0,0.1,0,0.1v0.6c0,0,0,0,0.1,0c0.1,0,0.2-0.1,0.2-0.2c0-0.1,0.1-0.1,0.1-0.2c0,0,0-0.1,0-0.1
			c0-0.1,0.1-0.1,0.1-0.2c0.1-0.2,0.2-0.3,0.3-0.5c0.2-0.2,0.5-0.4,0.8-0.5c0.1,0,0.2-0.1,0.4-0.1C-4.7-183.4-4.6-183.4-4.6-183.4
			L-4.6-183.4z M-14.1-183.4c0.1,0,0.4,0,0.5,0c0.1,0,0.3,0,0.4,0.1c0.3,0.1,0.6,0.3,0.8,0.5c0.1,0.2,0.2,0.3,0.3,0.5
			c0,0.1,0.1,0.1,0.1,0.2c0,0,0,0.1,0,0.1c0,0.1,0.1,0.1,0.1,0.2c0,0.1,0.1,0.2,0.2,0.2c0,0,0,0,0.1,0v-0.6c0,0,0-0.1,0-0.1
			c-0.1-0.2-0.2-0.3-0.2-0.5c-0.1-0.2-0.3-0.4-0.5-0.6c-0.2-0.2-0.4-0.3-0.6-0.4c-0.2-0.1-0.4-0.1-0.6-0.1c-0.1,0-0.4,0-0.5,0
			c-0.2,0-0.4,0.1-0.6,0.1c-0.2,0.1-0.5,0.2-0.6,0.4c-0.2,0.2-0.3,0.3-0.5,0.6c-0.1,0.2-0.2,0.3-0.2,0.5c0,0,0,0.1,0,0.1v0.6
			c0,0,0,0,0.1,0c0.1,0,0.2-0.1,0.2-0.2c0-0.1,0.1-0.1,0.1-0.2c0,0,0-0.1,0-0.1c0-0.1,0.1-0.1,0.1-0.2c0.1-0.2,0.2-0.3,0.3-0.5
			c0.2-0.2,0.5-0.4,0.8-0.5C-14.4-183.4-14.3-183.4-14.1-183.4L-14.1-183.4z M-16.4-181.4l-0.2-0.1c0,0,0,0,0,0c0,0-0.1,0-0.1,0.1
			c0,0,0,0,0,0l0.4,0.3c0,0,0.1,0,0.1,0l0.4-0.3c0,0,0,0,0,0c0,0-0.1-0.1-0.1-0.1c0,0,0,0,0,0l-0.3,0.2c0,0,0,0,0,0L-16.4-181.4z
			 M-11.7-181.4l-0.2-0.1c0,0,0,0,0,0c0,0-0.1,0-0.1,0.1c0,0,0,0,0,0l0.4,0.3c0,0,0.1,0,0.1,0l0.4-0.3c0,0,0,0,0,0
			c0,0-0.1-0.1-0.1-0.1c0,0,0,0,0,0l-0.3,0.2c0,0,0,0,0,0L-11.7-181.4z M-7-181.4l-0.2-0.1c0,0,0,0,0,0c0,0-0.1,0-0.1,0.1
			c0,0,0,0,0,0l0.4,0.3c0,0,0.1,0,0.1,0l0.4-0.3c0,0,0,0,0,0c0,0-0.1-0.1-0.1-0.1c0,0,0,0,0,0l-0.3,0.2c0,0,0,0,0,0L-7-181.4z
			 M-2.4-181.4l-0.2-0.1c0,0,0,0,0,0c0,0-0.1,0-0.1,0.1c0,0,0,0,0,0l0.4,0.3c0,0,0.1,0,0.1,0l0.4-0.3c0,0,0,0,0,0
			c0,0-0.1-0.1-0.1-0.1c0,0,0,0,0,0l-0.3,0.2c0,0,0,0,0,0L-2.4-181.4z M2.3-181.4l-0.2-0.1c0,0,0,0,0,0c0,0-0.1,0-0.1,0.1
			c0,0,0,0,0,0l0.4,0.3c0,0,0.1,0,0.1,0l0.4-0.3c0,0,0,0,0,0c0,0-0.1-0.1-0.1-0.1c0,0,0,0,0,0l-0.3,0.2c0,0,0,0,0,0L2.3-181.4z
			 M2.4-179.2l0.7,0.6c0,0,0.8,0.8,1,1c0.1,0.1,0.2,0.1,0.2,0.1c-0.4-0.7-0.7-1.5-0.8-2.3c0-0.6-0.2-1.1-0.6-1.5l-0.5,0.4l-0.5-0.4
			c-0.4,0.4-0.6,0.9-0.6,1.5c-0.1,0.8-0.4,1.6-0.8,2.3c0.1,0,0.2,0,0.2-0.1c0.2-0.2,1-1,1-1L2.4-179.2z M-16.2-179.2l0.7,0.6
			c0,0,0.8,0.8,1,1c0.1,0.1,0.2,0.1,0.2,0.1c-0.4-0.7-0.7-1.5-0.8-2.3c0-0.6-0.2-1.1-0.6-1.5l-0.5,0.4l-0.5-0.4
			c-0.4,0.4-0.6,0.9-0.6,1.5c-0.1,0.8-0.4,1.6-0.8,2.3c0.1,0,0.2,0,0.2-0.1c0.2-0.2,1-1,1-1L-16.2-179.2z M-11.6-179.2l0.7,0.6
			c0,0,0.8,0.8,1,1c0.1,0.1,0.2,0.1,0.2,0.1c-0.4-0.7-0.7-1.5-0.8-2.3c0-0.6-0.2-1.1-0.6-1.5l-0.5,0.4l-0.5-0.4
			c-0.4,0.4-0.6,0.9-0.6,1.5c-0.1,0.8-0.4,1.6-0.8,2.3c0.1,0,0.2,0,0.2-0.1c0.2-0.2,1-1,1-1L-11.6-179.2z M-6.9-179.2l0.7,0.6
			c0,0,0.8,0.8,1,1c0.1,0.1,0.2,0.1,0.2,0.1c-0.4-0.7-0.7-1.5-0.8-2.3c0-0.6-0.2-1.1-0.6-1.5l-0.5,0.4l-0.5-0.4
			c-0.4,0.4-0.6,0.9-0.6,1.5c-0.1,0.8-0.4,1.6-0.8,2.3c0.1,0,0.2,0,0.2-0.1c0.2-0.2,1-1,1-1L-6.9-179.2z M-2.2-179.2l0.7,0.6
			c0,0,0.8,0.8,1,1c0.1,0.1,0.2,0.1,0.2,0.1c-0.4-0.7-0.7-1.5-0.8-2.3c0-0.6-0.2-1.1-0.6-1.5l-0.5,0.4l-0.5-0.4
			c-0.4,0.4-0.6,0.9-0.6,1.5c-0.1,0.8-0.4,1.6-0.8,2.3c0.1,0,0.2,0,0.2-0.1c0.2-0.2,1-1,1-1L-2.2-179.2z M-7.5-178.5l-1,0.9
			c-0.1,0.1-0.1,0.1-0.1,0.2c0,0.1,0,0.1,0.1,0.2l0,0c0.1,0,0.1,0.1,0.2,0.1c0.1,0,0.1-0.1,0.2-0.1l0.7-1
			C-7.4-178.3-7.4-178.4-7.5-178.5L-7.5-178.5z M1.9-178.5l-1,0.9c-0.1,0.1-0.1,0.1-0.1,0.2c0,0.1,0,0.1,0.1,0.2l0,0
			c0.1,0,0.1,0.1,0.2,0.1c0.1,0,0.1-0.1,0.2-0.1l0.7-1C1.9-178.3,1.9-178.4,1.9-178.5L1.9-178.5z M-12.1-178.5l-1,0.9
			c-0.1,0.1-0.1,0.1-0.1,0.2c0,0.1,0,0.1,0.1,0.2l0,0c0.1,0,0.1,0.1,0.2,0.1c0.1,0,0.1-0.1,0.2-0.1l0.7-1
			C-12.1-178.3-12.1-178.4-12.1-178.5L-12.1-178.5z M-2.8-178.5l-1,0.9c-0.1,0.1-0.1,0.1-0.1,0.2c0,0.1,0,0.1,0.1,0.2l0,0
			c0.1,0,0.1,0.1,0.2,0.1c0.1,0,0.1-0.1,0.2-0.1l0.7-1C-2.7-178.3-2.8-178.4-2.8-178.5L-2.8-178.5z M-16.8-178.5l-1,0.9
			c-0.1,0.1-0.1,0.1-0.1,0.2c0,0.1,0,0.1,0.1,0.2l0,0c0.1,0,0.1,0.1,0.2,0.1c0.1,0,0.1-0.1,0.2-0.1l0.7-1
			C-16.7-178.3-16.8-178.4-16.8-178.5L-16.8-178.5z M-15.8-178.3l0.7,1c0,0.1,0.1,0.1,0.2,0.1c0.1,0,0.1,0,0.2-0.1l0,0
			c0.1,0,0.1-0.1,0.1-0.2c0-0.1,0-0.1-0.1-0.2l-1-0.9C-15.7-178.4-15.7-178.3-15.8-178.3L-15.8-178.3z M2.9-178.3l0.7,1
			c0,0.1,0.1,0.1,0.2,0.1c0.1,0,0.1,0,0.2-0.1l0,0c0.1,0,0.1-0.1,0.1-0.2c0-0.1,0-0.1-0.1-0.2l-1-0.9C3-178.4,2.9-178.3,2.9-178.3
			L2.9-178.3z M-1.8-178.3l0.7,1c0,0.1,0.1,0.1,0.2,0.1c0.1,0,0.1,0,0.2-0.1l0,0c0.1,0,0.1-0.1,0.1-0.2c0-0.1,0-0.1-0.1-0.2l-1-0.9
			C-1.7-178.4-1.7-178.3-1.8-178.3L-1.8-178.3z M-6.4-178.3l0.7,1c0,0.1,0.1,0.1,0.2,0.1c0.1,0,0.1,0,0.2-0.1l0,0
			c0.1,0,0.1-0.1,0.1-0.2c0-0.1,0-0.1-0.1-0.2l-1-0.9C-6.4-178.4-6.4-178.3-6.4-178.3L-6.4-178.3z M-11.1-178.3l0.7,1
			c0,0.1,0.1,0.1,0.2,0.1c0.1,0,0.1,0,0.2-0.1l0,0c0.1,0,0.1-0.1,0.1-0.2c0-0.1,0-0.1-0.1-0.2l-1-0.9
			C-11-178.4-11.1-178.3-11.1-178.3L-11.1-178.3z M-2.6-178.2l-0.5,1.1c0,0.1,0,0.1,0,0.2c0,0.1,0.1,0.1,0.2,0.1l0,0
			c0.1,0,0.1,0,0.2,0c0.1,0,0.1-0.1,0.1-0.2l0.3-1.1C-2.5-178.1-2.6-178.2-2.6-178.2L-2.6-178.2z M-7.3-178.2l-0.5,1.1
			c0,0.1,0,0.1,0,0.2c0,0.1,0.1,0.1,0.2,0.1l0,0c0.1,0,0.1,0,0.2,0c0.1,0,0.1-0.1,0.1-0.2l0.3-1.1C-7.2-178.1-7.2-178.2-7.3-178.2
			L-7.3-178.2z M-12-178.2l-0.5,1.1c0,0.1,0,0.1,0,0.2c0,0.1,0.1,0.1,0.2,0.2l0,0c0.1,0,0.1,0,0.2,0c0.1,0,0.1-0.1,0.1-0.2l0.3-1.1
			C-11.9-178.1-11.9-178.2-12-178.2L-12-178.2z M2-178.2l-0.5,1.1c0,0.1,0,0.1,0,0.2c0,0.1,0.1,0.1,0.2,0.1l0,0c0.1,0,0.1,0,0.2,0
			c0.1,0,0.1-0.1,0.1-0.2l0.3-1.1C2.2-178.1,2.1-178.2,2-178.2L2-178.2z M-16.6-178.2l-0.6,1.1c0,0.1,0,0.1,0,0.2
			c0,0.1,0.1,0.1,0.2,0.2l0,0c0.1,0,0.1,0,0.2,0c0.1,0,0.1-0.1,0.1-0.2l0.3-1.1C-16.5-178.1-16.6-178.2-16.6-178.2L-16.6-178.2z
			 M-11.4-178.1c0.1,0.4,0.2,0.8,0.3,1.1c0,0.1,0.1,0.1,0.1,0.2c0.1,0,0.1,0,0.2,0l0,0c0.1,0,0.1-0.1,0.2-0.2c0-0.1,0-0.1,0-0.2
			l-0.5-1.1C-11.2-178.2-11.3-178.1-11.4-178.1L-11.4-178.1z M2.6-178.1l0.3,1.1c0,0.1,0.1,0.1,0.1,0.2c0.1,0,0.1,0,0.2,0l0,0
			c0.1,0,0.1-0.1,0.2-0.2c0-0.1,0-0.1,0-0.2l-0.5-1.1C2.8-178.2,2.7-178.1,2.6-178.1L2.6-178.1z M-16-178.1l0.3,1.1
			c0,0.1,0.1,0.1,0.1,0.2c0.1,0,0.1,0,0.2,0l0,0c0.1,0,0.1-0.1,0.2-0.2c0-0.1,0-0.1,0-0.2l-0.5-1.1C-15.9-178.2-16-178.1-16-178.1
			L-16-178.1z M-6.7-178.1c0.1,0.4,0.2,0.8,0.3,1.1c0,0.1,0.1,0.1,0.1,0.2c0.1,0,0.1,0,0.2,0l0,0c0.1,0,0.1-0.1,0.2-0.2
			c0-0.1,0-0.1,0-0.2l-0.5-1.1C-6.6-178.2-6.6-178.1-6.7-178.1L-6.7-178.1z M-2-178.1l0.3,1.1c0,0.1,0.1,0.1,0.1,0.2
			c0.1,0,0.1,0,0.2,0l0,0c0.1,0,0.1-0.1,0.2-0.2c0-0.1,0-0.1,0-0.2l-0.5-1.1C-1.9-178.2-2-178.1-2-178.1L-2-178.1z M2.3-178.1
			c-0.1,0.5-0.1,1.1-0.2,1.4c0,0.1,0,0.1,0.1,0.2c0.1,0.1,0.1,0.1,0.2,0.1l0,0c0.1,0,0.1,0,0.2-0.1c0.1-0.1,0.1-0.1,0.1-0.2
			l-0.2-1.4c0,0-0.1,0-0.1,0C2.4-178.1,2.4-178.1,2.3-178.1L2.3-178.1z M-2.3-178.1c-0.1,0.5-0.1,1.1-0.2,1.4c0,0.1,0,0.1,0.1,0.2
			c0.1,0.1,0.1,0.1,0.2,0.1l0,0c0.1,0,0.1,0,0.2-0.1c0.1-0.1,0.1-0.1,0.1-0.2l-0.2-1.4c0,0-0.1,0-0.1,0
			C-2.3-178.1-2.3-178.1-2.3-178.1L-2.3-178.1z M-11.7-178.1c-0.1,0.5-0.1,1.1-0.2,1.4c0,0.1,0,0.1,0.1,0.2c0.1,0.1,0.1,0.1,0.2,0.1
			l0,0c0.1,0,0.1,0,0.2-0.1c0.1-0.1,0.1-0.1,0.1-0.2l-0.2-1.4c0,0-0.1,0-0.1,0C-11.6-178.1-11.6-178.1-11.7-178.1L-11.7-178.1z
			 M-16.3-178.1c-0.1,0.5-0.1,1.1-0.2,1.4c0,0.1,0,0.1,0.1,0.2c0.1,0.1,0.1,0.1,0.2,0.1l0,0c0.1,0,0.1,0,0.2-0.1
			c0.1-0.1,0.1-0.1,0.1-0.2l-0.2-1.4c0,0-0.1,0-0.1,0C-16.3-178.1-16.3-178.1-16.3-178.1L-16.3-178.1z M-7-178.1
			c-0.1,0.5-0.1,1.1-0.2,1.4c0,0.1,0,0.1,0.1,0.2c0.1,0.1,0.1,0.1,0.2,0.1l0,0c0.1,0,0.1,0,0.2-0.1c0.1-0.1,0.1-0.1,0.1-0.2
			l-0.2-1.4c0,0-0.1,0-0.1,0C-6.9-178.1-7-178.1-7-178.1L-7-178.1z M5.8-174.9h-25.1l-0.2,0.9H5.9L5.8-174.9z"/>
	</g>
</symbol>
<use xlink:href="#Bank_x5F_Pasargad_x5F_Color"  width="48" height="48" x="-24" y="-24" transform="matrix(10.7708 0 0 -10.7708 278.5 275.5)" style="overflow:visible;"/>
</svg>
