<?xml version="1.0" encoding="utf-8"?>
<!-- Generator: Adobe Illustrator 22.1.0, SVG Export Plug-In . SVG Version: 6.00 Build 0)  -->
<svg version="1.1" id="Capa_1" xmlns="http://www.w3.org/2000/svg" xmlns:xlink="http://www.w3.org/1999/xlink" x="0px" y="0px"
	 viewBox="0 0 537 547" style="enable-background:new 0 0 537 547;" xml:space="preserve">
<style type="text/css">
	.st0{fill:none;}
	.st1{fill:#14763E;}
</style>
<symbol  id="Bank_x5F_Postbank_x5F_Color" viewBox="-24.1 -24 48.2 48">
	<g id="Bank_x5F_Postbank_x5F_Color_1_" transform="translate(198 198)">
		<rect id="Boundary_126_" x="-222.1" y="-222" class="st0" width="48" height="48"/>
		<path id="Shape_186_" class="st1" d="M-195.1-174c13.2-1.6,22.6-13.6,20.9-26.8s-13.6-22.6-26.8-20.9s-22.6,13.6-20.9,26.8
			c0.3,2.3,0.9,4.6,1.9,6.7l1.2-1.6l0.1-0.1c0.2-0.2,0.3-0.4,0.5-0.5c0.2-0.2,0.5-0.4,0.8-0.5c0.2-0.1,0.4-0.1,0.5-0.2
			c0.7-0.1,1.5-0.2,2.2-0.1c0.5,0,0.8,0,0.8,0c2,0.2,4-0.6,5.2-2.2c0.7-0.9,8.1-10.7,8.1-10.7l3.6,3.7c0,0-3.1,3.9-4.4,5.7
			c-1,1.4-2.1,2.7-3.3,3.9c-1.5,1.2-4.7,1.4-5.4,1.5c-1.6,0.2-3.1,0.9-4.4,2c-0.2,0.2-0.4,0.5-0.7,0.7l-2.3,2.9
			c0.6,0.8,1.2,1.6,1.9,2.3l2.5-3.3c0.4-0.5,0.8-1,1.3-1.5c0.8-0.8,1.9-1.3,3.1-1.4c3.7-0.7,5.8-0.9,7-2.2c1.4-1.7,1.7-2,2.9-3.6
			c0.4-0.6,3.9-5.1,3.9-5.1l3.5,3.5c0,0-2.3,2.9-3.6,4.7c-0.7,1-1.5,1.9-2.4,2.7c-1.5,1.1-2.9,0.9-4.3,1.1c-1.3,0-2.6,0.3-3.8,0.8
			c0,0-0.6,0.1-1.9,1.8c-1.3,1.7-1.7,2.1-1.7,2.1l-2.8,3.5c0.8,0.6,1.7,1.1,2.5,1.6l2.7-3.5l1.4-1.8c2-2.5,3.2-2.5,4.5-2.7
			c2.1-0.2,4-0.1,5.7-1.4c0.8-0.7,1.6-1.5,2.2-2.4c1.1-1.4,3.3-4.4,3.3-4.4l3.5,3.5c0,0-2,2.6-2.8,3.6c-0.4,0.5-0.9,0.9-1.4,1.2
			c-1.1,0.7-2.1,0.9-4.8,1.3c-2.7,0.4-3.6,0.9-4.8,2.3c-0.6,0.7-0.9,1.1-1.4,1.7l-3.5,4.5c1.1,0.3,2.2,0.5,3.4,0.7l2.4-3.3
			c0.9-1.4,2.1-2.5,3.6-3.2c2.5-1.1,4.3-0.8,6-1.3c0.3-0.1,0.7-0.2,1-0.3c0.5-0.2,0.9-0.6,1.2-1c0.6-0.6,1-1.2,1.2-1.4l2.1-2.6
			l3.5,3.5c0,0-0.8,1-1.4,1.8c-0.2,0.4-0.5,0.7-0.9,0.9c-0.3,0.2-0.7,0.3-1,0.4c-0.8,0.2-1.6,0.2-2.4,0.3c-3.1,0.1-4.3,0.4-6.3,2.8
			l-1.5,1.8L-195.1-174z"/>
	</g>
</symbol>
<use xlink:href="#Bank_x5F_Postbank_x5F_Color"  width="48.2" height="48" x="-24.1" y="-24" transform="matrix(10.2997 0 0 -10.2997 274.9996 273.5)" style="overflow:visible;"/>
</svg>
