<?xml version="1.0" encoding="utf-8"?>
<!-- Generator: Adobe Illustrator 22.1.0, SVG Export Plug-In . SVG Version: 6.00 Build 0)  -->
<svg version="1.1" id="Capa_1" xmlns="http://www.w3.org/2000/svg" xmlns:xlink="http://www.w3.org/1999/xlink" x="0px" y="0px"
	 viewBox="0 0 537 547" style="enable-background:new 0 0 537 547;" xml:space="preserve">
<style type="text/css">
	.st0{fill:none;}
	.st1{fill:#173576;}
</style>
<symbol  id="Bank_x5F_Refah_x5F_Color" viewBox="-24 -24 48 48">
	<g id="Bank_x5F_Refah_x5F_Color_1_" transform="translate(396 198)">
		<rect id="Boundary_127_" x="-420" y="-222" class="st0" width="48" height="48"/>
		<path id="Shape_187_" class="st1" d="M-402-213c0,3.3,2.7,6,6,6s6-2.7,6-6s-2.7-6-6-6S-402-216.3-402-213z M-415.4-205.5
			c-6,6.3-6.2,16.1-0.5,22.6h13.3c-4.8-2.1-8-6.3-8-11.2c0.1-4,2.2-7.7,5.6-9.9h17.9c3.4,2.1,5.5,5.8,5.6,9.9c0,4.9-3.3,9.1-8,11.2
			h13.3c5.7-6.5,5.5-16.3-0.5-22.6H-415.4z M-408-199.6c5.1,1.9,8.7,6.3,8.7,11.4c0,4.9-3.3,9.1-8,11.2h13.3
			c5.7-6.5,5.5-16.3-0.5-22.6H-408z"/>
	</g>
</symbol>
<use xlink:href="#Bank_x5F_Refah_x5F_Color"  width="48" height="48" x="-24" y="-24" transform="matrix(10.4375 0 0 -10.4375 274.5006 273.5)" style="overflow:visible;"/>
</svg>
