<?xml version="1.0" encoding="utf-8"?>
<!-- Generator: Adobe Illustrator 22.1.0, SVG Export Plug-In . SVG Version: 6.00 Build 0)  -->
<svg version="1.1" id="Capa_1" xmlns="http://www.w3.org/2000/svg" xmlns:xlink="http://www.w3.org/1999/xlink" x="0px" y="0px"
	 viewBox="0 0 537 547" style="enable-background:new 0 0 537 547;" xml:space="preserve">
<style type="text/css">
	.st0{fill:none;}
	.st1{fill:#00BBE6;}
</style>
<symbol  id="Bank_x5F_Resalat_x5F_Color" viewBox="-24 -24 48 48">
	<g id="Bank_x5F_Resalat_x5F_Color_1_" transform="translate(594 198)">
		<rect id="Boundary_128_" x="-618" y="-222" class="st0" width="48" height="48"/>
		<path id="Shape_188_" class="st1" d="M-603.4-221.8L-603.4-221.8c-3,0-5.7,1.6-7.2,4.1c-0.5,0.8-1,1.6-1.4,2.5
			c-2.1,0.6-3.9,2-4.9,3.9c-2.4,4.2,0,8.3,1.5,11c-2.5-5.1-1.7-7.7-1.1-8.7c0.7-1,1.8-1.6,3.1-1.5c1.3,0,4,0.5,7.6,3.7l12.4,12.4
			c1.2,1.2,2.7,1.9,4.4,1.9c0.2,0,0.4,0,0.6,0c1.7-0.3,3.3-0.9,4.7-1.8c0.3-0.2,0.7-0.4,1.1-0.6c0.1-0.1,0.3-0.1,0.5-0.1
			c0.3,0,0.5,0.1,0.6,0.3c0.1,0.2,0.1,0.4,0,0.6c-0.5,0.9-1.1,1.7-1.8,2.3c-3.1,3.1-6.8,6.7-6.9,6.7c-2.1,2-3.1,4-3,5.9
			c0.3,2.6,2.3,4.6,4.9,4.9c-1-1.2-1.1-2.4-0.4-3.4l10.8-10.8c1.2-1.5,1.7-3.5,1.3-5.4c-0.4-1.5-1.6-2.7-3.1-3
			c-0.3-0.1-0.6-0.1-0.8-0.1c-0.3,0-0.7,0.1-1,0.2c-0.9,0.3-1.9,0.4-2.8,0.5c-1.2,0.1-2.4-0.4-3.3-1.2c-1.8-1.8-5.9-5.9-9.2-9.2
			c-2.7-2.7-4.9-5-5.3-5.4c-0.8-0.7-1.7-1.4-2.6-1.9c-1.5-0.8-3.2-1.3-4.9-1.3c0.3-1.3,1.6-2.3,3-2.2c2.1,0,4.9,1.4,7.8,3.9l0.3,0.3
			l12.1,12.2c1.3,1.2,3.1,1.9,4.9,1.9h0.1c1.1,0,2.2-0.3,3.1-0.9c1.2-0.7,2.1-2,2.3-3.4c-0.6,0.4-1.3,0.6-2,0.7
			c-1.1-0.1-2.1-0.7-2.8-1.5c-2.4-2.4-8.6-8.6-12-12.1c0-0.3,0.1-0.5,0.3-0.7c0.5-0.3,1-0.5,1.6-0.4c0.7,0,1.4,0.2,1.9,0.7l9.5,9.5
			c1.2,1.3,2.9,2,4.7,2h0.1c1,0,1.9-0.3,2.6-0.9c1.2-0.9,2-2.3,2.1-3.7c-0.5,0.4-1,0.6-1.6,0.6c-0.9-0.1-1.7-0.6-2.2-1.3
			c-1.5-1.5-4.6-4.6-9.2-9.2c-1.3-1.2-3-1.8-4.7-1.8c-0.8,0-1.6,0.1-2.4,0.4c-1.7,0.6-2.9,2.3-3.6,3.5l-0.2,0.2
			C-594.1-218-598.6-221.8-603.4-221.8z M-610.1-202.6c-2.1,0-3.9,1.7-3.9,3.9s1.7,3.9,3.9,3.9c0.6,0,1.3-0.2,1.8-0.5
			c-1,1.9-0.3,4.2,1.5,5.2s4.2,0.3,5.2-1.5s0.3-4.2-1.5-5.2c-1.2-0.6-2.5-0.6-3.7,0c1-1.9,0.3-4.2-1.5-5.2
			C-608.8-202.4-609.4-202.6-610.1-202.6z"/>
	</g>
</symbol>
<use xlink:href="#Bank_x5F_Resalat_x5F_Color"  width="48" height="48" x="-24" y="-24" transform="matrix(10.7285 0 0 -10.7285 269.5 270.4901)" style="overflow:visible;"/>
</svg>
