<?xml version="1.0" encoding="utf-8"?>
<!-- Generator: Adobe Illustrator 22.1.0, SVG Export Plug-In . SVG Version: 6.00 Build 0)  -->
<svg version="1.1" id="Capa_1" xmlns="http://www.w3.org/2000/svg" xmlns:xlink="http://www.w3.org/1999/xlink" x="0px" y="0px"
	 viewBox="0 0 537 547" style="enable-background:new 0 0 537 547;" xml:space="preserve">
<style type="text/css">
	.st0{fill:none;}
	.st1{fill:#2D2A68;}
</style>
<symbol  id="Bank_x5F_Saderat_x5F_Color" viewBox="-24 -24 48 48">
	<g id="Bank_x5F_Saderat_x5F_Color_1_" transform="translate(792 198)">
		<rect id="Boundary_129_" x="-816" y="-222" class="st0" width="48" height="48"/>
		<path id="Shape_189_" class="st1" d="M-802-222c-5.4,0-10.9,2.1-13.5,8.1v39.9h15.7v-41.3c1.8-4.3,5.8-3.7,10.7-1
			C-789.9-219.2-795.8-222-802-222L-802-222z M-784.2-222v41.3c-1.8,4.3-5.8,3.7-10.7,1c1.4,5.3,20.9,10.5,26.4-2.5V-222H-784.2z
			 M-799.7-198c0,4.2,3.4,7.7,7.6,7.7s7.7-3.4,7.7-7.6c0-4.2-3.4-7.7-7.6-7.7c0,0,0,0,0,0C-796.2-205.6-799.7-202.2-799.7-198
			L-799.7-198z"/>
	</g>
</symbol>
<use xlink:href="#Bank_x5F_Saderat_x5F_Color"  width="48" height="48" x="-24" y="-24" transform="matrix(10.4583 0 0 -10.4583 268.5 273.5)" style="overflow:visible;"/>
</svg>
