<?xml version="1.0" encoding="utf-8"?>
<!-- Generator: Adobe Illustrator 22.1.0, SVG Export Plug-In . SVG Version: 6.00 Build 0)  -->
<svg version="1.1" id="Capa_1" xmlns="http://www.w3.org/2000/svg" xmlns:xlink="http://www.w3.org/1999/xlink" x="0px" y="0px"
	 viewBox="0 0 537 547" style="enable-background:new 0 0 537 547;" xml:space="preserve">
<style type="text/css">
	.st0{fill:none;}
	.st1{fill:#7DCDF1;}
	.st2{fill:#00AAE7;}
	.st3{fill:#006FBA;}
	.st4{fill:#FFFFFF;}
</style>
<symbol  id="Bank_x5F_Saman_x5F_Color" viewBox="-24 -24 48 48">
	<g id="Bank_x5F_Saman_x5F_Color_1_" transform="translate(990 198)">
		<rect id="Boundary_130_" x="-1014" y="-222" class="st0" width="48" height="48"/>
		<path id="Shape_193_" class="st1" d="M-997.6-182.3L-997.6-182.3c2.1,3,4.6,5.7,7.4,8.1c1.8-2.1,3.1-4.7,3.7-7.4
			c2.2,1.2,4.5,2.2,6.9,3c1.6,0.5,3.3,1,5,1.4c-0.1-3.9-1-7.7-2.5-11.3l0,0c3.9-0.2,7.7-1.1,11.2-2.7c-2.7-3.6-5.8-6.7-9.3-9.4l0,0
			c2.3-2,4.1-4.6,5.2-7.5c-3.5-1.6-7.2-2.7-11-3.3l0,0c0.3-2.4,0.1-4.9-0.7-7.2c-1.2,0.1-2.4,0.2-3.5,0.4c-1.7,0.2-3.3,0.7-4.8,1.2
			l0,0c-0.9-1.8-2.1-3.3-3.7-4.6c-1.8,1.1-3.5,2.4-5,4l0,0c-1.4-0.9-2.9-1.5-4.5-1.8c-1,1.5-1.7,3.1-2.2,4.8
			c-0.9-0.1-1.8-0.1-2.7,0.1c-0.5,0.1-1.1,0.2-1.6,0.4c-0.2,1.6-0.2,3.2,0,4.7l0,0c-1.3,0.6-2.5,1.4-3.6,2.4c0.4,1.5,1,2.9,1.8,4.2
			l0,0c-1,1.3-1.8,2.7-2.4,4.2c1,1.3,2.2,2.4,3.5,3.2l0,0c-0.4,2-0.6,4.1-0.5,6.1c0.6,0.3,1.2,0.5,1.8,0.8c1,0.4,2.1,0.6,3.2,0.6
			l0,0c0.6,2.7,1.5,5.4,2.7,7.9C-1001.2-180.3-999.2-181.1-997.6-182.3L-997.6-182.3z"/>
		<path id="Shape_192_" class="st2" d="M-994.3-188.4L-994.3-188.4c1.3,1.6,2.8,3,4.3,4.3c1.1,0.9,2.2,1.7,3.5,2.4
			c0.2-1.2,0.3-2.3,0.1-3.5c-0.2-1.9-0.6-3.8-1.2-5.7l0,0c2,0.8,4,1.5,6.1,1.9c1.4,0.3,2.8,0.4,4.3,0.4c-0.6-1.3-1.4-2.6-2.2-3.8
			c-1.3-1.8-2.8-3.4-4.4-4.9c1.9-0.3,3.7-0.8,5.5-1.5c1.1-0.5,2.2-1.1,3.1-1.9c-1.2-0.9-2.5-1.6-3.8-2.2c-1.9-0.9-3.8-1.6-5.8-2.1
			l0,0c1.1-1.1,2.1-2.4,2.9-3.8c0.5-0.8,0.8-1.8,1-2.7c-1.2-0.2-2.4-0.2-3.6-0.1c-1.7,0.1-3.4,0.4-5,0.8c0.2-1.3,0.3-2.7,0.1-4
			c-0.1-0.8-0.3-1.6-0.6-2.3c-0.9,0.3-1.7,0.7-2.5,1.2c-1.1,0.7-2.2,1.6-3.1,2.6l0,0l0,0c-0.4-1.1-1-2.1-1.7-3
			c-0.4-0.5-0.9-1-1.4-1.4c-0.5,0.6-0.9,1.2-1.3,1.8c-0.5,1-0.9,2.1-1.3,3.1l0,0c-0.8-0.6-1.6-1.2-2.5-1.6c-0.5-0.2-1.1-0.4-1.7-0.5
			c-0.2,0.6-0.3,1.3-0.3,1.9c0,1,0.1,2,0.3,3l0,0c-0.9-0.2-1.8-0.2-2.7-0.2c-0.5,0-1.1,0.2-1.6,0.4c0.1,0.6,0.3,1.2,0.5,1.7
			c0.4,0.9,0.9,1.7,1.5,2.5l0,0c-0.9,0.3-1.7,0.7-2.5,1.2c-0.5,0.3-0.9,0.7-1.3,1.2c0.3,0.5,0.7,0.9,1.2,1.3
			c0.7,0.6,1.5,1.2,2.4,1.6l0,0c-0.7,0.8-1.3,1.7-1.7,2.6c-0.3,0.6-0.6,1.3-0.7,2c0.5,0.3,1.1,0.5,1.7,0.7c1,0.2,2,0.3,3,0.2
			c-0.3,1.3-0.4,2.6-0.4,3.9c0,0.9,0.1,1.8,0.2,2.7c0.7,0,1.4-0.1,2-0.4c1.1-0.4,2.1-1,2.9-1.8l0,0c0.4,1.6,1,3.2,1.7,4.8
			c0.5,1.1,1.1,2.1,1.7,3.1c0.7-0.5,1.2-1.2,1.6-1.9C-995.2-185.6-994.6-187-994.3-188.4z"/>
		<path id="Shape_191_" class="st3" d="M-998-194.2C-998-194.3-998-194.3-998-194.2L-998-194.2c1,2.1,2.2,4,3.7,5.8
			c0.5-2,0.6-4.1,0.3-6.2c0,0,0-0.1,0-0.1l0,0.1c1.9,1.6,4.1,2.8,6.4,3.8c-0.8-2.3-1.9-4.5-3.3-6.5l0,0c0.4,0.1,0.8,0.1,1.2,0.2
			c1.9,0.2,3.9,0.2,5.8-0.1c-1.8-1.7-3.9-3.2-6.2-4.3c1.9-0.8,3.7-1.9,5.1-3.4c-1.8-0.5-3.7-0.7-5.6-0.8c-0.4,0-0.8,0-1.2,0l0,0
			c1-1.5,1.7-3.3,2-5.1c-1.9,0.5-3.6,1.3-5.2,2.3l0,0c0-1.6-0.3-3.3-0.9-4.8c-1.2,1.2-2.1,2.5-2.8,4l0,0c0,0,0,0.1,0,0l0,0
			c-0.7-1.3-1.7-2.5-2.8-3.4c-0.4,1.4-0.6,3-0.4,4.4l0,0c-1.1-0.8-2.4-1.3-3.7-1.5c0.3,1.4,0.8,2.7,1.5,4c0,0,0,0.1,0,0
			c-0.3,0-0.5,0-0.8,0c-1,0-2.1,0.2-3.1,0.5c0.8,1.1,1.9,2.1,3,2.8c-1.2,0.6-2.3,1.5-3.2,2.5c1,0.5,2.1,0.8,3.2,1
			c0.3,0,0.5,0.1,0.8,0.1c0,0,0.1,0,0,0c-0.8,1.4-1.4,2.8-1.7,4.4c1.5-0.1,2.9-0.6,4.1-1.3l0,0c0-0.1,0,0,0,0l0,0
			c-0.1,1.9,0.1,3.9,0.7,5.7C-999.7-191.3-998.7-192.6-998-194.2L-998-194.2L-998-194.2z"/>
		<path id="Shape_190_" class="st4" d="M-994-194.6L-994-194.6c-1.2-1-2.3-2.2-3.2-3.6c0,1.4-0.3,2.7-0.9,4c-0.6-1.3-1-2.8-1.1-4.2
			c-0.6,1-1.5,1.9-2.5,2.5c0-1.3,0.3-2.5,0.9-3.7c-1,0.5-2.1,0.7-3.3,0.6c0,0,0,0-0.1,0h0.1c0.6-1,1.4-1.8,2.4-2.4
			c-1.1-0.1-2.2-0.5-3.1-1.1c1-0.5,2-0.7,3.1-0.7c-0.9-0.7-1.7-1.6-2.3-2.5l0,0c1.1,0.1,2.2,0.4,3.1,1c-0.5-1.1-0.9-2.2-0.9-3.4
			c1,0.7,1.8,1.5,2.5,2.5c0-1.2,0.3-2.4,0.8-3.5c0.6,1.1,1,2.3,1.1,3.5c0.7-1.1,1.6-2,2.6-2.8l0,0c0,1.3-0.3,2.6-0.9,3.8
			c1.3-0.6,2.7-1,4.1-1c-0.7,1.1-1.7,2.1-2.9,2.8c1.6,0.2,3.1,0.6,4.5,1.3c-1.4,0.6-2.9,0.8-4.4,0.8c1.4,0.9,2.5,2.1,3.5,3.4l0,0
			c-1.6-0.3-3.1-0.9-4.5-1.7C-994.7-197.7-994.2-196.2-994-194.6C-994-194.6-994-194.6-994-194.6z"/>
	</g>
</symbol>
<use xlink:href="#Bank_x5F_Saman_x5F_Color"  width="48" height="48" x="-24" y="-24" transform="matrix(10.5833 0 0 -10.5833 273.0001 267.9999)" style="overflow:visible;"/>
</svg>
