<?xml version="1.0" encoding="utf-8"?>
<!-- Generator: Adobe Illustrator 22.1.0, SVG Export Plug-In . SVG Version: 6.00 Build 0)  -->
<svg version="1.1" id="Capa_1" xmlns="http://www.w3.org/2000/svg" xmlns:xlink="http://www.w3.org/1999/xlink" x="0px" y="0px"
	 viewBox="0 0 537 547" style="enable-background:new 0 0 537 547;" xml:space="preserve">
<style type="text/css">
	.st0{fill:none;}
	.st1{fill:#9B814C;}
</style>
<symbol  id="Bank_x5F_Sanat_x5F_Madan_x5F_Color" viewBox="-24 -24 48 48">
	<g id="Bank_x5F_Sanat_x5F_Madan_x5F_Color_1_" transform="translate(1188 198)">
		<rect id="Boundary_131_" x="-1212" y="-222" class="st0" width="48" height="48"/>
		<path id="Shape_194_" class="st1" d="M-1164-222h-48v48h13l11-11l11,11h13V-222z M-1206.5-203.5v-13h37v24v13h-5.2l-9.4-9.4
			l3.6-3.6h11l-5.5-5.5h-7.8l3.9-3.9l-9.1-9.1l-7.5,7.5H-1206.5z M-1206.5-179.5v-24l5.5,5.5h7.8l-3.9,3.9l5.2,5.2l-9.4,9.4H-1206.5
			z M-1188-192.8L-1188-192.8l-5.2-5.2l5.2-5.2l5.2,5.2L-1188-192.8z"/>
	</g>
</symbol>
<use xlink:href="#Bank_x5F_Sanat_x5F_Madan_x5F_Color"  width="48" height="48" x="-24" y="-24" transform="matrix(10.3542 0 0 -10.3542 269.5 273.5)" style="overflow:visible;"/>
</svg>
