<?xml version="1.0" encoding="utf-8"?>
<!-- Generator: Adobe Illustrator 22.1.0, SVG Export Plug-In . SVG Version: 6.00 Build 0)  -->
<svg version="1.1" id="Capa_1" xmlns="http://www.w3.org/2000/svg" xmlns:xlink="http://www.w3.org/1999/xlink" x="0px" y="0px"
	 viewBox="0 0 537 547" style="enable-background:new 0 0 537 547;" xml:space="preserve">
<style type="text/css">
	.st0{fill:none;}
	.st1{fill:#1F1F48;}
	.st2{fill:#AFB2AE;}
</style>
<symbol  id="Bank_x5F_Sarmayeh_x5F_Color" viewBox="-24 -24 48 48">
	<g id="Bank_x5F_Sarmayeh_x5F_Color_1_" transform="translate(1386 198)">
		<rect id="Boundary_132_" x="-1410" y="-222" class="st0" width="48" height="48"/>
		<path id="Shape_196_" class="st1" d="M-1388.4-216c0,3.3,2.7,6,6,6c3.3,0,6-2.7,6-6c0-3.3-2.7-6-6-6c0,0,0,0,0,0
			C-1385.7-222-1388.4-219.3-1388.4-216z M-1395.5-190.4c10,0.3,18.8,6.6,27,16.4l0-16.1c-9-10.7-18-14.2-27-14.3V-190.4z"/>
		<path id="Shape_195_" class="st2" d="M-1376.5-191.6v-14c-10-0.3-18.8-6.6-26.9-16.4l0,16.1
			C-1394.5-195.2-1385.5-191.8-1376.5-191.6z"/>
	</g>
</symbol>
<use xlink:href="#Bank_x5F_Sarmayeh_x5F_Color"  width="48" height="48" x="-24" y="-24" transform="matrix(10.8333 0 0 -10.8333 267 273)" style="overflow:visible;"/>
</svg>
