<?xml version="1.0" encoding="utf-8"?>
<!-- Generator: Adobe Illustrator 22.1.0, SVG Export Plug-In . SVG Version: 6.00 Build 0)  -->
<svg version="1.1" id="Capa_1" xmlns="http://www.w3.org/2000/svg" xmlns:xlink="http://www.w3.org/1999/xlink" x="0px" y="0px"
	 viewBox="0 0 537 547" style="enable-background:new 0 0 537 547;" xml:space="preserve">
<style type="text/css">
	.st0{fill:none;}
	.st1{fill-rule:evenodd;clip-rule:evenodd;fill:#1B5FC1;}
</style>
<symbol  id="Bank_x5F_Sepah_x5F_Color" viewBox="-24 -24 48 48">
	<g id="Bank_x5F_Sepah_x5F_Color_1_" transform="translate(1584 198)">
		<rect id="Boundary_133_" x="-1608" y="-222" class="st0" width="48" height="48"/>
		<path id="Shape_197_" class="st1" d="M-1584.1-218.5c-2.3,0-4.5-0.5-6.6-1.5c-0.1-1.1-0.9-1.8-2.5-2c-1.3,0-2.5,0.3-3.6,0.8
			c-0.8,0.2-1.4,1.5-2.2,3.1c-0.8,1.6-1.7,3.4-2.4,4.9c-0.2,0.3-0.2,0.7,0,1c0.3,0.9,1.3,1.3,2.1,1.1c0.2-0.1,0.4-0.2,0.5-0.4
			l0.3-0.6c1-0.3,2-0.6,3-0.7l0.1,0.1c0,0-0.1,0-0.1,0.1c-6,3.7-9.7,10.3-9.9,17.3c-0.1,11.7,9.2,21.2,20.9,21.4c0.1,0,0.3,0,0.4,0
			h0.1h0.3c11.7-0.2,21-9.7,20.9-21.4c-0.1-7.1-3.9-13.6-9.9-17.3c0,0-0.1,0-0.1-0.1l0.1-0.1c1,0.1,2,0.4,3,0.7l0.3,0.6
			c0.1,0.2,0.3,0.4,0.5,0.4c0.9,0.2,1.8-0.2,2.1-1.1c0.2-0.3,0.2-0.7,0-1c-0.8-1.4-1.7-3.3-2.4-4.9c-0.8-1.6-1.4-2.9-2.1-3.1
			c-1.1-0.5-2.4-0.8-3.6-0.8c-1.6,0.2-2.4,0.9-2.5,2C-1579.5-219.1-1581.7-218.5-1584.1-218.5L-1584.1-218.5z M-1598.1-213
			c0,0,0.6-1.6,0.9-2.3c0.4-1,1.5-3.6,1.5-3.6c0.3-0.6,0.8-1.1-0.6-1.8c0,0,0-0.1,0.1-0.2c0.7-0.3,1.5-0.5,2.3-0.5
			c0.1,0,0.2,0.1,0.3,0.1l-3.7,7.6C-1597.7-213-1597.8-212.9-1598.1-213z M-1569.9-213c0,0-0.6-1.6-0.9-2.3c-0.4-1-1.5-3.6-1.5-3.6
			c-0.3-0.6-0.8-1.1,0.6-1.8c0,0,0-0.1-0.1-0.2c-0.7-0.3-1.5-0.5-2.3-0.5c-0.1,0-0.2,0.1-0.3,0.1l3.7,7.6
			C-1570.3-213-1570.2-212.9-1569.9-213z M-1574.9-212.2c-2.8,1.4-6,2-9.1,1.9h-0.1c-4.7,0.1-9.3-1.1-12-4.2c0.8-2,1.7-3.9,2.9-5.7
			c0.1-0.2,0.3-0.3,0.5-0.3c2.5,1.9,5.6,2.8,8.7,2.6h0.1c3.1,0.2,6.2-0.8,8.6-2.6c0.2,0,0.4,0.1,0.5,0.3c1.1,1.8,2.1,3.7,2.9,5.7
			C-1572.7-213.6-1573.7-212.8-1574.9-212.2c0-0.1,0-0.1,0-0.2c-0.2-0.1-0.3-0.3-0.5-0.4c-0.2-0.1-0.4-0.2-0.5-0.3l-0.5-0.2
			l-0.5-0.1c-0.2,0-0.3-0.1-0.5-0.1l0,0c0,0,0,0,0,0c0,0-0.1-0.1-0.1-0.1s-0.1-0.1-0.1-0.1c-0.1-0.1-0.1-0.2-0.2-0.4l-0.1-0.2
			c-0.1-0.1-0.2-0.3-0.2-0.5c-0.1-0.2-0.1-0.3-0.2-0.5l0,0c-0.1-0.2-0.1-0.3-0.1-0.5c0-0.1,0.1-0.2,0.2-0.2c0,0,0.1,0,0.1,0
			c0,0,0.1,0,0.1,0.1c0,0,0.1,0.1,0.1,0.1c0,0,0,0.1,0.1,0.1c0,0,0.1,0.1,0.1,0.1s0,0,0-0.1c-0.1-0.1-0.1-0.2-0.2-0.3
			c-0.1-0.1-0.1-0.2-0.2-0.3c-0.1-0.1-0.2-0.2-0.3-0.2c-0.1-0.1-0.2-0.1-0.3,0c-0.1,0-0.2,0.1-0.2,0.2c0,0.1-0.1,0.2-0.1,0.3
			c0,0.1,0,0.2,0,0.3c0,0.1,0.1,0.2,0.1,0.2l0,0c0,0.1,0.1,0.2,0.1,0.3c0.1,0.1,0.1,0.2,0.2,0.3c0,0,0,0.1,0,0.1c0,0,0,0-0.1,0
			c-0.2-0.1-0.3-0.2-0.5-0.3c-0.2-0.1-0.4-0.2-0.5-0.2c-0.3-0.1-0.6-0.1-0.9-0.1c-0.3,0-0.6,0-0.9,0.1c-0.2,0.1-0.5,0.1-0.7,0.2
			c-0.3,0.1-0.5,0.2-0.7,0.3c-0.1,0-0.2,0.1-0.3,0.2c-0.1,0.1-0.1,0.1-0.2,0.2c-0.1,0.1-0.1,0.2-0.1,0.3c0,0.1,0,0.3,0,0.4
			c0,0.1,0.1,0.2,0.1,0.3c0,0.1,0.1,0.2,0.1,0.3c0,0.1,0.1,0.1,0.1,0.1s0-0.1,0-0.2c0-0.1,0-0.2,0-0.2c0-0.1,0-0.1,0.1-0.2
			c0.1-0.1,0.3-0.3,0.5-0.3c0.2-0.1,0.4-0.2,0.5-0.2c0.7-0.3,1.4-0.4,2.2-0.4c0.2,0,0.3,0,0.5,0c0.2,0,0.3,0.1,0.5,0.1
			c0.2,0.1,0.4,0.2,0.6,0.4c0.1,0.1,0.2,0.3,0.3,0.4c0,0,0.1,0.1,0.1,0.1l0.1,0.1l0.2,0.2c0.1,0.1,0.1,0.1,0.2,0.2c0,0,0,0,0.1,0.1
			c0.1,0.1,0.1,0.1,0.2,0.2c0.1,0.1,0.1,0.1,0.2,0.2c0.1,0,0.2,0.1,0.3,0.1c0.1,0,0.6,0.2,0.8,0.3c0.3,0.1,0.6,0.3,0.9,0.4
			L-1574.9-212.2L-1574.9-212.2z M-1596.5-220.4c0.2,0.1,0.4,0.3,0.4,0.5c-0.4,0.1-0.9,0.1-1.1-0.5
			C-1596.9-220.4-1596.7-220.5-1596.5-220.4z M-1571.5-220.4c-0.2,0.1-0.4,0.3-0.4,0.5c0.4,0.1,0.9,0.1,1.1-0.5
			C-1571.1-220.4-1571.3-220.5-1571.5-220.4L-1571.5-220.4z M-1599.4-211.7c-0.5,0.2-1.1,0-1.3-0.5c-0.1-0.2-0.1-0.4-0.1-0.6l3.4-7
			c0.2,0.3,0.6,0.5,1,0.5L-1599.4-211.7z M-1568.6-211.7c0.5,0.2,1.1,0,1.3-0.5c0.1-0.2,0.1-0.4,0.1-0.6l-3.4-7
			c-0.2,0.3-0.6,0.5-1,0.5L-1568.6-211.7z M-1578-218c0.1,0.1,0.2,0.2,0.3,0.3c0.1,0.1,0.2,0.2,0.3,0.2c0.1,0,0.2-0.1,0.2-0.2
			c0.1-0.1,0.1-0.2,0-0.3c-0.1-0.1-0.1-0.2-0.2-0.3c-0.1-0.1-0.2-0.1-0.3-0.1c-0.1,0.1-0.1,0.1-0.2,0.2L-1578-218
			C-1578-218.1-1578-218-1578-218z M-1591-218.1c0,0.1,0.1,0.2,0.1,0.3c0.1,0.2,0.1,0.3,0.1,0.3c0.1,0,0.2,0,0.2-0.1
			c0.1,0,0.1-0.1,0.2-0.2c0-0.1,0-0.2-0.1-0.3c-0.1-0.1-0.1-0.2-0.2-0.2c0,0-0.1,0-0.1,0l-0.1,0.1L-1591-218.1
			C-1591-218.1-1591-218.1-1591-218.1L-1591-218.1z M-1591.5-217.5c0,0.1,0.1,0.2,0.1,0.4c0.1,0.2,0.1,0.3,0.2,0.3
			c0.1,0,0.2,0,0.2-0.1c0.1,0,0.2-0.1,0.2-0.2c0,0.1,0.1,0.2,0.1,0.3c0.1,0.1,0.1,0.2,0.1,0.2c0.1,0,0.2,0,0.3-0.1
			c0.1,0,0.2-0.1,0.2-0.2c0-0.1,0-0.2-0.1-0.4c-0.1-0.1-0.1-0.2-0.2-0.2c-0.1,0-0.1,0-0.2,0.1c-0.1,0.1-0.2,0.1-0.3,0.1
			c-0.1-0.3-0.2-0.4-0.3-0.5c-0.1,0-0.2,0.1-0.2,0.1C-1591.4-217.5-1591.5-217.5-1591.5-217.5L-1591.5-217.5z M-1576.1-214
			L-1576.1-214C-1576-214-1576-214-1576.1-214C-1576-214-1576-214-1576.1-214C-1576-214-1576-214.1-1576.1-214
			c-0.1-0.4-0.3-0.7-0.5-1c-0.1-0.2-0.2-0.5-0.3-0.7l0,0c-0.1-0.2-0.1-0.3-0.1-0.5c0-0.1,0.1-0.2,0.2-0.2c0,0,0.1,0,0.1,0
			c0,0,0.1,0,0.1,0.1c0,0,0.1,0.1,0.1,0.1c0,0,0,0.1,0.1,0.1c0,0,0.1,0.1,0.1,0.1c0,0,0,0,0-0.1c-0.1-0.1-0.1-0.2-0.2-0.3
			c-0.1-0.1-0.1-0.2-0.2-0.3c-0.1-0.1-0.2-0.2-0.3-0.2c-0.1-0.1-0.2-0.1-0.3,0c-0.1,0-0.2,0.1-0.2,0.2c0,0.1-0.1,0.2-0.1,0.3
			c0,0.1,0,0.2,0,0.3c0,0.1,0.1,0.2,0.1,0.2l0,0c0.1,0.2,0.2,0.4,0.3,0.6c0.3,0.6-0.1-0.3,0.4,0.8c0.1,0.1,0.1,0.2,0.2,0.3
			c0,0,0.1,0.1,0.2,0.2C-1576.3-214.2-1576.2-214.1-1576.1-214L-1576.1-214L-1576.1-214z M-1588.4-214.5L-1588.4-214.5
			c0.3,0,0.6,0.1,0.9,0.2c0.3,0.1,0.6,0.2,0.9,0.3c0.3,0.1,0.5,0.2,0.7,0.4c0.2,0.1,0.5,0.3,0.7,0.5c0.3,0.2,0.6,0.5,0.9,0.7
			c0.3,0.3,0.5,0.5,0.8,0.8c0.1,0.1,0.2,0.2,0.3,0.2c0.1,0.1,0.2,0.1,0.3,0.2c0.1,0.1,0.2,0.1,0.2,0.1c0,0,0-0.1,0-0.2
			c0-0.1,0-0.1-0.1-0.2c0-0.1-0.1-0.1-0.1-0.2c0,0,0-0.1-0.1-0.1c0,0-0.1,0-0.1-0.1c-0.1,0-0.1-0.1-0.2-0.2
			c-0.1-0.1-0.2-0.2-0.3-0.3c-0.2-0.2-0.3-0.3-0.5-0.5c-0.2-0.2-0.3-0.3-0.5-0.5c-0.2-0.2-0.3-0.3-0.5-0.5c-0.2-0.1-0.4-0.3-0.5-0.4
			c-0.8-0.5-1.7-0.9-2.6-1.1l0,0c-0.2,0-0.5-0.1-0.6-0.1c-0.1,0-0.3,0-0.4,0c-0.1,0-0.3,0-0.4,0c-0.1,0-0.3,0.1-0.4,0.1l-0.1,0
			c0,0-0.1,0-0.1,0c0,0,0,0-0.1,0c0,0-0.1-0.1-0.1-0.1c0,0-0.1-0.1-0.1-0.1l-0.1-0.2c-0.1-0.1-0.2-0.2-0.3-0.3
			c-0.1-0.1-0.3-0.1-0.4-0.1c-0.1,0-0.2,0-0.2,0c-0.1,0-0.2,0-0.2,0c-0.1,0-0.2,0-0.2-0.1c-0.1,0-0.1-0.1-0.2-0.1
			c-0.1-0.1-0.2-0.1-0.2-0.1s0,0.1,0,0.2c0.1,0.1,0.2,0.3,0.3,0.4c0.1,0.1,0.2,0.3,0.3,0.4c0.1,0.1,0.1,0.1,0.2,0.2
			c0.1,0,0.2,0.1,0.2,0.1c0.1,0,0.1,0,0.2,0c0.1,0,0.1,0,0.2,0c0.1,0,0.1,0,0.2,0c0.1,0,0.1,0.1,0.2,0.1c0.1,0.1,0.1,0.1,0.1,0.2
			l0.1,0.2c0,0.1,0.1,0.1,0.2,0.2c0.1,0,0.2,0,0.3,0c0.2,0,0.5-0.1,0.7-0.1C-1588.9-214.6-1588.6-214.6-1588.4-214.5z M-1577.4-214
			c0.1,0.1,0.2,0.2,0.3,0.3c0.1,0.1,0.2,0.2,0.3,0.2c0.1,0,0.2-0.1,0.2-0.2c0.1-0.1,0.1-0.2,0-0.3c0-0.1-0.1-0.2-0.2-0.3
			c-0.1-0.1-0.2-0.1-0.3-0.1c-0.1,0.1-0.1,0.1-0.2,0.2C-1577.3-214.2-1577.3-214.1-1577.4-214C-1577.4-214.1-1577.4-214-1577.4-214z
			 M-1583.9-175.1h0.3c5.3-0.1,10.4-2.3,14.1-6.1c3.7-3.8,5.7-8.9,5.7-14.2c-0.1-3.4-1-6.8-2.8-9.7c-1.6-2.8-3.9-5.2-6.7-6.9
			c-0.1,0-0.1-0.1-0.2-0.1l0.2-0.2c0.1,0,0.1,0.1,0.2,0.1c5.9,3.6,9.5,10,9.6,16.8c0.1,11.3-8.9,20.5-20.2,20.7h-0.3h-0.1
			c-0.1,0-0.2,0-0.4,0c-11.3-0.2-20.3-9.4-20.2-20.7c0.1-6.9,3.8-13.2,9.6-16.8c0.1,0,0.1-0.1,0.2-0.1l0.2,0.2
			c-0.1,0-0.1,0.1-0.2,0.1c-2.8,1.7-5.1,4.1-6.7,6.9c-1.7,2.9-2.7,6.3-2.8,9.7c-0.1,5.3,1.9,10.4,5.7,14.2c3.7,3.8,8.8,6,14.1,6.1
			C-1584.3-175.2-1584.1-175.2-1583.9-175.1L-1583.9-175.1z M-1571.7-180.9C-1571.7-180.9-1571.7-180.9-1571.7-180.9l0.1,0.1
			l0.1,0.2l0.2-0.1c0.1-0.1,0.1-0.1,0.2-0.2s0.1-0.1,0.2-0.2c0.2-0.3,0.4-0.7,0.5-1.1l0,0l0,0l0.1,0.2l0.2-0.1
			c0.1-0.1,0.1-0.1,0.2-0.2c0.1-0.1,0.1-0.1,0.2-0.2c0.2-0.3,0.4-0.6,0.5-0.9l0,0l0.2-0.1c0.1-0.1,0.1-0.1,0.2-0.2
			c0.1-0.1,0.1-0.1,0.2-0.2c0.3-0.3,0.5-0.7,0.6-1.1c0,0,0,0,0,0l0,0.1l0.2-0.1c0.1-0.1,0.1-0.1,0.2-0.2c0.1-0.1,0.1-0.1,0.2-0.2
			c0.3-0.3,0.4-0.7,0.5-1.2c0-0.3,0-0.5,0-0.8l0,0c0.1,0.1,0.1,0.2,0.2,0.3l0,0l0.1,0.2l0.1-0.2c0-0.1,0.1-0.1,0.1-0.2
			c0.1-0.1,0.1-0.2,0.1-0.3c0.2-0.4,0.3-0.8,0.3-1.2c0-0.1,0-0.2,0-0.3l0.2,0.1l0.1-0.2c0-0.1,0.1-0.1,0.1-0.2
			c0-0.1,0.1-0.2,0.1-0.3c0.1-0.4,0.2-0.8,0.1-1.3c0-0.1-0.1-0.2-0.1-0.3l0.1,0.1l0,0l0.2,0.1l0.1-0.2c0-0.1,0.1-0.1,0.1-0.2
			c0-0.1,0.1-0.2,0.1-0.3c0.1-0.4,0.1-0.9,0-1.3c-0.1-0.2-0.1-0.4-0.2-0.5c0,0,0.1,0.1,0.1,0.1l0,0l0.2,0.1l0.1-0.2
			c0-0.1,0-0.2,0.1-0.2c0-0.1,0-0.2,0-0.3c0-0.4,0-0.9-0.2-1.3c-0.1-0.2-0.3-0.5-0.4-0.7h0c0.1,0.1,0.3,0.1,0.4,0.2l0,0l0.2,0.1
			l0-0.2c0-0.1,0-0.2,0-0.2c0-0.1,0-0.2,0-0.3c0-0.4-0.1-0.9-0.4-1.2c-0.1-0.2-0.3-0.4-0.5-0.6c0.1,0,0.2,0.1,0.4,0.1h0l0.2,0l0-0.2
			c0-0.1,0-0.2,0-0.2c0-0.1,0-0.2-0.1-0.3c-0.1-0.4-0.3-0.8-0.6-1.1c-0.3-0.3-0.6-0.5-1-0.7c-0.1,0-0.2-0.1-0.3-0.1c0,0,0-0.1,0-0.1
			c0.2,0.1,0.4,0.2,0.5,0.2c0.2,0,0.4,0.1,0.5,0.1h0l0.2,0l0-0.2c0-0.1,0-0.2-0.1-0.2c0-0.1-0.1-0.2-0.1-0.3
			c-0.1-0.4-0.4-0.8-0.7-1.1c-0.3-0.3-0.7-0.4-1-0.5c-0.1,0-0.2-0.1-0.4-0.1c0-0.1,0-0.1,0-0.2c0.2,0.1,0.4,0.1,0.6,0.1
			c0.1,0,0.1,0,0.2,0h0.1c0.1,0,0.2,0,0.3,0h0l0.2,0c0-0.1-0.1-0.1-0.1-0.2c-0.1-0.2-0.1-0.3-0.2-0.5c-0.2-0.3-0.5-0.6-0.8-0.9
			c-0.4-0.2-0.7-0.3-1.2-0.3c-0.1,0-0.1,0-0.2,0l0,0l0,0c0.1,0,0.2,0,0.3,0h0.1h0.1c0.1,0,0.2,0,0.3,0c0.1,0,0.2,0,0.3-0.1h0
			l0.2-0.1c0-0.1-0.1-0.1-0.1-0.2c-0.1-0.2-0.2-0.3-0.3-0.4c-0.3-0.3-0.6-0.6-1-0.7c-0.3-0.1-0.6-0.2-0.9-0.2c0.1,0,0.2,0,0.4-0.1
			c0.1,0,0.2-0.1,0.4-0.1h0l0.2-0.1c0-0.1-0.1-0.1-0.1-0.2c-0.1-0.2-0.2-0.3-0.3-0.4c-0.3-0.3-0.6-0.5-1-0.7
			c-0.2-0.1-0.3-0.1-0.5-0.1c0,0,0.2,0,0.2-0.1h0l0.2-0.1c0-0.1-0.1-0.1-0.1-0.2c-0.1-0.2-0.2-0.3-0.3-0.4c-0.3-0.3-0.6-0.5-1-0.7
			c-0.4-0.1-0.8-0.2-1.2-0.1c-0.1,0-0.2,0-0.3,0c0,0,0-0.1,0-0.1h0.1h0.1c0.2,0,0.4,0,0.6-0.1c0.1,0,0.2-0.1,0.4-0.1h0l0.2-0.1
			c0-0.1-0.1-0.1-0.1-0.2c-0.1-0.2-0.2-0.3-0.3-0.4c-0.3-0.3-0.6-0.5-1-0.7c-0.2-0.1-0.4-0.1-0.6-0.1c0.3-0.1,0.6-0.3,0.9-0.5
			c0.1,0.1,0.2,0.1,0.4,0.2c2.8,1.7,5.1,4,6.7,6.8c1.7,2.9,2.7,6.2,2.7,9.5c0.1,5.2-1.9,10.2-5.6,14c-3.7,3.8-8.7,5.9-13.9,6h-0.3
			h-0.1c-0.1,0-0.3,0-0.4,0c-5.2-0.1-10.2-2.2-13.9-6c-3.7-3.7-5.7-8.8-5.6-14c0.1-3.4,1-6.7,2.7-9.5c1.7-2.8,4-5.1,6.7-6.8
			c0.1-0.1,0.2-0.1,0.4-0.2c0.3,0.1,0.5,0.3,0.7,0.4c-0.2,0-0.3,0.1-0.5,0.1c-0.5,0.2-1,0.6-1.4,1c-0.1,0.1-0.2,0.2-0.3,0.3
			c-0.1,0.1-0.2,0.2-0.2,0.3l-0.1,0.1c-0.2,0.1-0.4,0.1-0.5,0.2c-0.5,0.3-0.9,0.6-1.2,1c-0.1,0.1-0.1,0.1-0.2,0.2
			c-0.1,0.1-0.2,0.2-0.2,0.4c-0.1,0.1-0.1,0.2-0.2,0.3l0,0l-0.1,0.2l0.1,0c-0.3,0.1-0.6,0.3-0.8,0.5c-0.4,0.4-0.7,0.8-0.9,1.3
			c0,0.1-0.1,0.2-0.1,0.2c-0.1,0.1-0.1,0.3-0.1,0.4c0,0.1-0.1,0.2-0.1,0.3v0l0,0.2l0.2,0h0c-0.4,0.2-0.7,0.6-1,0.9
			c-0.3,0.4-0.5,0.9-0.6,1.4c0,0.1,0,0.2,0,0.3c0,0.1,0,0.3,0,0.4c0,0.1,0,0.2,0,0.3v0l0,0.2l0.2-0.1c0.1,0,0.2-0.1,0.3-0.1
			c0.1,0,0.2-0.1,0.3-0.1l-0.1,0.1c-0.1,0-0.1,0.1-0.2,0.2c-0.4,0.3-0.8,0.7-1,1.2c-0.2,0.5-0.4,1-0.4,1.5c0,0.1,0,0.2,0,0.3
			c0,0.1,0,0.3,0,0.4c0,0.1,0,0.2,0,0.3v0l0,0.2l0.2-0.1c0.1,0,0.2-0.1,0.3-0.1c0.1-0.1,0.3-0.2,0.3-0.2c-0.1,0.1-0.1,0.1-0.2,0.2
			c-0.4,0.4-0.6,0.8-0.8,1.3c-0.2,0.5-0.2,1-0.2,1.6c0,0.1,0,0.2,0,0.3c0,0.1,0.1,0.3,0.1,0.4c0,0.1,0.1,0.2,0.1,0.3v0l0.1,0.2
			l0.2-0.1c0.1-0.1,0.2-0.1,0.3-0.2c0.1-0.1,0.2-0.2,0.3-0.3c0,0,0.1-0.1,0.1-0.1l0,0c-0.1,0.1-0.2,0.2-0.2,0.3
			c0,0.1-0.1,0.1-0.1,0.2c-0.3,0.5-0.4,1-0.5,1.5c0,0.5,0,1.1,0.2,1.6c0,0.1,0.1,0.2,0.1,0.2c0.1,0.1,0.1,0.3,0.2,0.4
			c0.1,0.1,0.1,0.2,0.2,0.3l0,0l0.1,0.2l0.1-0.1c0.1-0.1,0.1-0.2,0.2-0.2l0,0c-0.1,0.4-0.2,0.8-0.2,1.3c0,0.5,0.2,1,0.5,1.5
			c0,0.1,0.1,0.2,0.1,0.2c0.1,0.1,0.2,0.2,0.2,0.4c0.1,0.1,0.1,0.2,0.2,0.3l0,0l0.1,0.1l0.1-0.2c0.1-0.1,0.1-0.2,0.2-0.3l0,0
			c0,0.4,0,0.8,0.1,1.2c0.2,0.5,0.4,1,0.8,1.4c0.1,0.1,0.1,0.1,0.2,0.2c0.1,0.1,0.2,0.2,0.3,0.3c0.1,0.1,0.2,0.1,0.3,0.2l0,0
			l0.2,0.1l0.1-0.2l0-0.1c0.1,0.3,0.1,0.6,0.3,0.9c0.2,0.5,0.6,0.9,1,1.2c0.1,0.1,0.1,0.1,0.2,0.2c0.1,0.1,0.2,0.2,0.4,0.2
			c0.1,0.1,0.2,0.1,0.3,0.2l0,0l0.2,0.1l0-0.2c0-0.1,0-0.2,0.1-0.3c0-0.1,0-0.3,0-0.4c0-0.1,0-0.1,0-0.2l0,0h0
			c0.1,0.2,0.2,0.4,0.3,0.6c0,0.1,0.1,0.1,0.1,0.1c0.3,0.3,0.6,0.5,0.9,0.6c0.2,0.1,0.3,0.1,0.5,0.2h0l0.2,0c0-0.1,0-0.1,0-0.2
			c0-0.1,0-0.2,0-0.2c0-0.1,0-0.2-0.1-0.3c-0.1-0.4-0.3-0.8-0.5-1.1c-0.2-0.2-0.4-0.4-0.6-0.5v0c0.1,0,0.1,0,0.2,0
			c0.1,0,0.2,0,0.3,0h0.1c0.1,0,0.3,0,0.4,0h0l0.2,0c0-0.1,0-0.1-0.1-0.2c0-0.1-0.1-0.2-0.1-0.3c-0.1-0.1-0.1-0.2-0.2-0.4
			c0-0.1-0.1-0.1-0.1-0.2c-0.3-0.4-0.7-0.8-1.1-1.1c-0.2-0.1-0.3-0.2-0.5-0.3c0-0.1,0-0.1-0.1-0.2c0-0.1-0.1-0.3-0.1-0.4
			c0-0.1-0.1-0.2-0.1-0.2c-0.2-0.5-0.6-1-1-1.3c-0.2-0.1-0.3-0.2-0.5-0.3c0,0,0,0,0-0.1c0-0.1,0-0.3,0-0.4c0-0.1,0-0.2,0-0.3
			c-0.1-0.5-0.3-1.1-0.7-1.5c-0.1-0.2-0.3-0.3-0.5-0.5c0-0.1,0-0.1,0-0.2c0-0.1,0-0.3,0-0.4c0-0.1,0-0.2,0-0.3
			c0-0.6-0.2-1.1-0.4-1.6c-0.1-0.2-0.2-0.4-0.4-0.6l0.1-0.1c0-0.1,0.1-0.2,0.1-0.3c0-0.1,0.1-0.3,0.1-0.4c0-0.1,0-0.2,0.1-0.3
			c0.1-0.5,0.1-1.1,0-1.7c-0.1-0.2-0.2-0.5-0.3-0.7l0.1-0.1c0.1-0.1,0.1-0.2,0.2-0.3c0.1-0.1,0.1-0.3,0.2-0.4c0-0.1,0.1-0.2,0.1-0.2
			c0.2-0.5,0.3-1.1,0.2-1.6c-0.1-0.5-0.2-1-0.5-1.4c0-0.1-0.1-0.2-0.1-0.2l0,0l0.1-0.1l0,0.1c0.1,0.1,0.1,0.3,0.2,0.4
			c0.1,0.1,0.1,0.2,0.2,0.3l0,0l0.1,0.2l0.1-0.1c0.1-0.1,0.1-0.2,0.2-0.3c0.1-0.1,0.2-0.2,0.2-0.4c0-0.1,0.1-0.1,0.1-0.2
			c0.3-0.5,0.4-1,0.4-1.6c0-0.1,0-0.3,0-0.4l0,0l0.2-0.1c0.1-0.1,0.2-0.1,0.3-0.2c0.1-0.1,0.2-0.2,0.3-0.3c0.1-0.1,0.1-0.1,0.2-0.2
			c0.4-0.4,0.7-0.9,0.8-1.5c0-0.1,0-0.2,0.1-0.3c0.1,0,0.2-0.1,0.3-0.1c0.1-0.1,0.3-0.1,0.4-0.2c0.1,0,0.1-0.1,0.2-0.1
			c0.4-0.3,0.8-0.7,1.1-1.2c0.1-0.1,0.1-0.2,0.2-0.3c0.1,0,0.1,0,0.2-0.1c0.1,0,0.3-0.1,0.4-0.2c0.1,0,0.2-0.1,0.2-0.1
			c0.5-0.3,0.9-0.6,1.3-1.1c0.3-0.4,0.5-0.9,0.6-1.4c0-0.1,0-0.2,0.1-0.3c0,0,0-0.1,0-0.1h0c2.1,0.7,4.3,1.1,6.6,1
			c0.1,0,0.3,0,0.4,0h0.1l0.3,0c2.5,0.1,4.9-0.3,7.2-1.2c0,0.1,0,0.2-0.1,0.3c-0.1,0.4-0.1,0.8,0,1.2c0.1,0.4,0.3,0.7,0.6,1
			c0.1,0.1,0.3,0.3,0.4,0.4l0,0l0.2,0.1l0.1-0.2c0-0.1,0.1-0.1,0.1-0.2c0-0.1,0.1-0.2,0.1-0.3c0-0.2,0.1-0.3,0.1-0.5
			c0.1,0,0.1,0.1,0.2,0.1c-0.1,0.4-0.1,0.8,0,1.2c0.1,0.4,0.3,0.7,0.6,1c0.1,0.1,0.3,0.3,0.4,0.4l0,0l0.2,0.1l0.1-0.2
			c0-0.1,0.1-0.1,0.1-0.2c0-0.1,0.1-0.2,0.1-0.3c0-0.2,0.1-0.3,0.1-0.5l0,0c-0.1,0.4-0.1,0.8,0,1.1c0.1,0.4,0.3,0.7,0.6,1
			c0.1,0.1,0.3,0.3,0.4,0.4l0,0l0.2,0.1l0.1-0.2c0,0,0,0,0-0.1c0,0.1,0,0.1,0,0.2c0.1,0.4,0.3,0.8,0.5,1.1c0.1,0.1,0.2,0.3,0.4,0.4
			l0,0l0.1,0.1l0.1-0.2l0-0.1c0,0.1,0,0.1,0,0.2c0,0.4,0.2,0.8,0.4,1.2c0.1,0.2,0.2,0.3,0.3,0.4l0,0l0.1,0.2l0.1-0.2
			c0-0.1,0.1-0.1,0.1-0.2c0-0.1,0.1-0.2,0.1-0.3c0.1-0.1,0.1-0.3,0.2-0.5c0,0,0.1,0.1,0.1,0.1c-0.2,0.3-0.3,0.7-0.4,1
			c-0.1,0.4,0,0.8,0.1,1.2c0.1,0.2,0.1,0.3,0.2,0.5l0,0l0.1,0.2l0.2-0.1c0.1-0.1,0.1-0.1,0.2-0.2c0.1-0.1,0.1-0.2,0.2-0.2
			c0.1-0.1,0.2-0.3,0.2-0.4l0,0l0,0l0,0c-0.2,0.3-0.4,0.6-0.5,1c-0.1,0.4-0.1,0.8,0,1.2c0,0.2,0.1,0.4,0.2,0.5l0,0l0.1,0.2l0.2-0.1
			c0.1,0,0.1-0.1,0.2-0.1s0.1-0.1,0.2-0.2l0.1-0.1c-0.1,0.1-0.2,0.3-0.3,0.5c-0.2,0.4-0.2,0.8-0.2,1.2c0,0.2,0,0.4,0.1,0.5v0
			l0.1,0.2l0.2-0.1c0.1,0,0.1-0.1,0.2-0.1c0,0-0.1,0.1-0.1,0.1c-0.2,0.3-0.4,0.7-0.4,1.1c0,0.2,0,0.4,0,0.5v0l0,0.2l0.2-0.1
			c0.1,0,0.1-0.1,0.2-0.1c0.1,0,0.2-0.1,0.3-0.1c0.1-0.1,0.3-0.2,0.4-0.3c0,0,0,0,0,0.1c-0.3,0.1-0.5,0.3-0.7,0.6
			c-0.3,0.3-0.4,0.7-0.5,1.1c0,0.2-0.1,0.4-0.1,0.5v0v0.2l0.2,0c0.1,0,0.1,0,0.2,0l0,0c-0.3,0.3-0.5,0.6-0.6,1
			c-0.1,0.2-0.1,0.3-0.1,0.5v0l0,0.2l0.2,0c0.1,0,0.2,0,0.2,0l0,0l-0.1,0.1c-0.3,0.2-0.6,0.6-0.8,0.9c-0.1,0.2-0.1,0.3-0.2,0.5
			l-0.1,0.2l0.2,0h0.1h0.1l-0.1,0c-0.4,0.2-0.7,0.4-0.9,0.8c-0.1,0.1-0.2,0.3-0.3,0.5l0,0l-0.1,0.2l0.2,0.1l0.2,0
			c-0.1,0-0.1,0-0.2,0.1c-0.3,0.2-0.6,0.4-0.9,0.7c-0.1,0.1-0.2,0.3-0.3,0.4l0,0l-0.1,0.2l0.2,0.1l0.1,0c-0.4,0.2-0.7,0.4-0.9,0.7
			c-0.1,0.1-0.2,0.3-0.3,0.4l0,0l-0.1,0.2l0.1,0l0,0c-0.4,0.2-0.7,0.4-0.9,0.7c-0.1,0.1-0.2,0.3-0.3,0.5l0,0l-0.1,0.2l0,0
			c-0.3,0.1-0.5,0.3-0.7,0.6c-0.1,0.1-0.2,0.3-0.3,0.4l0,0l-0.1,0.2l0.2,0.1c0.1,0,0.2,0.1,0.3,0.1c0.2,0,0.3,0.1,0.5,0.1h0.1
			c-0.1,0.1-0.1,0.3-0.2,0.4c-0.1,0.2-0.1,0.4-0.1,0.5v0l0,0.2l0.2,0c0.1,0,0.2,0,0.2,0c0.1,0,0.2-0.1,0.3-0.1
			c0.2-0.1,0.4-0.1,0.5-0.2c0,0.2,0,0.4,0.1,0.6c0,0.2,0.1,0.4,0.2,0.5l0.1,0.2l0.2-0.1c0.1,0,0.1-0.1,0.2-0.2s0.1-0.1,0.2-0.2
			C-1572.1-180.1-1571.8-180.5-1571.7-180.9C-1571.7-180.9-1571.7-180.9-1571.7-180.9L-1571.7-180.9z M-1592.6-211.2
			c-0.4,0.1-0.7,0.3-1.1,0.5c-0.4,0.3-0.7,0.6-0.9,1c-0.3,0-0.5-0.1-0.8-0.1h0c0.1-0.2,0.3-0.3,0.4-0.5c0.1-0.1,0.1-0.1,0.2-0.2
			c0.3-0.3,0.8-0.6,1.2-0.7c0.2-0.1,0.5-0.1,0.8-0.1L-1592.6-211.2z M-1575.6-211.2c0.1,0,0.1,0,0.2,0c0.4-0.1,0.7,0,1.1,0.1
			c0.3,0.1,0.5,0.3,0.8,0.5c0,0,0.1,0.1,0.1,0.1c0,0.1,0.1,0.1,0.1,0.2l0,0c-0.1,0-0.1,0-0.2,0c-0.2,0-0.3,0-0.5,0h0
			c-0.1,0-0.2,0-0.3,0c-0.1-0.1-0.1-0.2-0.2-0.2C-1574.8-210.8-1575.1-211-1575.6-211.2C-1575.5-211.1-1575.6-211.2-1575.6-211.2z
			 M-1591.5-210.8c-0.1,0.3-0.3,0.5-0.5,0.8c-0.2,0.2-0.4,0.5-0.6,0.6c-0.3,0.2-0.6,0.4-0.9,0.5c-0.2,0.1-0.3,0.1-0.5,0.1
			c-0.2,0-0.5,0.1-0.7,0.1h0v0c0.1-0.2,0.2-0.4,0.3-0.6c0.1-0.2,0.2-0.3,0.3-0.4c0.2-0.3,0.4-0.5,0.7-0.7c0.3-0.2,0.5-0.3,0.8-0.4
			c0.2-0.1,0.3-0.1,0.5-0.1l0,0l0.2,0.1c-0.2,0.1-0.4,0.3-0.6,0.4c-0.2,0.2-0.4,0.3-0.6,0.5s-0.4,0.4-0.6,0.5l0,0
			c0.3-0.1,0.5-0.2,0.7-0.4c0.2-0.1,0.5-0.3,0.7-0.4s0.5-0.3,0.7-0.5L-1591.5-210.8L-1591.5-210.8L-1591.5-210.8z M-1575.6-210.8
			L-1575.6-210.8c0.4,0.1,0.7,0.4,0.9,0.6c0.2,0.2,0.3,0.5,0.4,0.8c0,0.1,0,0.1,0.1,0.2c0,0.1,0,0.1,0,0.2l0,0l0,0
			c-0.1,0-0.1,0-0.2-0.1c-0.1,0-0.1,0-0.2-0.1c-0.3-0.1-0.6-0.3-0.8-0.5c-0.2-0.2-0.4-0.5-0.5-0.8l0,0c0.1,0.1,0.2,0.2,0.3,0.3
			c0.1,0.1,0.3,0.3,0.4,0.4c0.1,0.1,0.3,0.2,0.4,0.3l0,0c-0.1-0.2-0.2-0.3-0.3-0.5c-0.1-0.2-0.2-0.3-0.3-0.4
			C-1575.4-210.6-1575.5-210.7-1575.6-210.8L-1575.6-210.8z M-1575.2-209.2c0,0.2,0,0.3,0,0.5c0,0.1,0,0.1,0,0.2
			c0,0.1,0,0.1-0.1,0.2l0,0l0,0c-0.1,0-0.1-0.1-0.2-0.1s-0.1-0.1-0.1-0.1c-0.2-0.2-0.4-0.5-0.5-0.8c-0.1-0.3-0.1-0.6,0-0.9
			c0-0.1,0-0.2,0-0.2v0c0.1,0.4,0.3,0.8,0.6,1.1C-1575.5-209.4-1575.4-209.3-1575.2-209.2L-1575.2-209.2z M-1591.3-210.4
			c0,0.2-0.1,0.4-0.2,0.6c-0.1,0.3-0.2,0.5-0.4,0.8c-0.2,0.3-0.5,0.5-0.8,0.7c-0.2,0.1-0.3,0.2-0.5,0.3c-0.2,0.1-0.4,0.2-0.6,0.3h0
			v0c0-0.2,0-0.4,0.1-0.7c0,0,0-0.1,0-0.1c0.4-0.1,0.8-0.3,1.1-0.5c0.1-0.1,0.2-0.1,0.2-0.2c0.2-0.2,0.4-0.4,0.6-0.6
			C-1591.6-209.9-1591.4-210.2-1591.3-210.4L-1591.3-210.4z M-1573.9-209.5c0.1,0,0.1,0,0.2,0c0.4-0.1,0.7,0,1.1,0.1
			c0.3,0.1,0.5,0.3,0.8,0.5c0,0,0.1,0.1,0.1,0.1c0,0,0.1,0.1,0.1,0.2l0,0c-0.1,0-0.1,0-0.2,0c-0.1,0-0.3,0-0.4,0h0
			c-0.1,0-0.2,0-0.3,0c-0.1-0.1-0.1-0.2-0.2-0.2C-1573.1-209.1-1573.5-209.4-1573.9-209.5L-1573.9-209.5z M-1595.4-209.5
			c0.1,0,0.3,0.1,0.3,0.1c-0.4,0.2-0.7,0.4-1.1,0.7c-0.3,0.3-0.6,0.7-0.8,1.1c-0.1,0-0.1,0-0.2,0h-0.1c-0.2,0-0.3,0-0.5,0h0h0l0-0.1
			c0.2-0.3,0.4-0.7,0.7-0.9c0.2-0.2,0.5-0.4,0.7-0.6C-1595.9-209.4-1595.7-209.5-1595.4-209.5L-1595.4-209.5z M-1594.3-208.4
			c-0.2,0.3-0.4,0.7-0.7,0.9c-0.2,0.2-0.5,0.4-0.8,0.5c-0.3,0.2-0.7,0.3-1.1,0.3h0h0v0c0-0.2,0.1-0.4,0.2-0.6
			c0.1-0.2,0.1-0.3,0.2-0.5c0.2-0.3,0.4-0.6,0.6-0.8c0.2-0.2,0.5-0.4,0.8-0.6c0.1,0,0.2-0.1,0.2-0.1c0,0.1-0.1,0.2-0.1,0.3
			c0,0.1-0.1,0.3-0.1,0.3c-0.2,0.2-0.3,0.3-0.5,0.5c-0.2,0.2-0.4,0.4-0.5,0.6l0,0c0.2-0.1,0.5-0.3,0.7-0.5c0.2-0.1,0.3-0.2,0.5-0.4
			h0.1h0.1C-1594.6-208.4-1594.4-208.4-1594.3-208.4z M-1573.9-209.2c0.3,0.1,0.6,0.3,0.9,0.6c0.2,0.2,0.3,0.5,0.4,0.8
			c0,0.1,0,0.1,0.1,0.2c0,0.1,0,0.1,0,0.2l0,0l0,0c-0.1,0-0.1,0-0.2-0.1c-0.1,0-0.1,0-0.2-0.1c-0.3-0.1-0.6-0.3-0.8-0.5
			c-0.2-0.2-0.3-0.4-0.4-0.6l0.2,0l0,0c0.1,0.1,0.3,0.3,0.4,0.4c0.1,0.1,0.3,0.2,0.4,0.3l0,0c-0.1-0.2-0.2-0.3-0.3-0.5
			c-0.1-0.2-0.2-0.3-0.3-0.4C-1573.7-208.9-1573.8-209-1573.9-209.2C-1573.8-209.2-1573.9-209.2-1573.9-209.2z M-1574.4-208.8
			c0.1,0.3,0.3,0.6,0.5,0.9c0.1,0.1,0.2,0.2,0.3,0.3c0,0.2,0,0.3,0,0.5c0,0.1,0,0.1,0,0.2c0,0.1,0,0.1-0.1,0.2l0,0l0,0
			c-0.1,0-0.1-0.1-0.2-0.1c-0.1,0-0.1-0.1-0.1-0.1c-0.2-0.2-0.4-0.5-0.5-0.8C-1574.5-208.2-1574.5-208.5-1574.4-208.8L-1574.4-208.8
			L-1574.4-208.8L-1574.4-208.8z M-1594.1-207.5c0,0.1-0.1,0.2-0.1,0.3c-0.2,0.3-0.4,0.5-0.6,0.8c-0.3,0.3-0.6,0.5-1,0.6h0v0
			c0-0.2,0-0.5,0-0.7c0,0,0,0,0-0.1c0.4-0.2,0.8-0.4,1.2-0.8c0.2-0.3,0.5-0.5,0.6-0.8v0c0,0.1,0,0.2,0,0.3
			C-1594.1-207.8-1594.1-207.5-1594.1-207.5z M-1572.3-208c0.1,0,0.1,0,0.2,0c0.4-0.1,0.7,0,1.1,0.1c0.3,0.1,0.5,0.3,0.8,0.5
			c0,0,0.1,0.1,0.1,0.1c0,0.1,0.1,0.1,0.1,0.2l0,0c-0.1,0-0.1,0-0.2,0c-0.1,0-0.3,0-0.4,0h0c-0.1,0-0.2,0-0.3,0
			c-0.1-0.1-0.1-0.2-0.2-0.2C-1571.6-207.6-1571.9-207.8-1572.3-208L-1572.3-208L-1572.3-208z M-1572.2-207c0.1,0.1,0.2,0.2,0.3,0.3
			c0.1,0.1,0.3,0.2,0.4,0.3l0,0c-0.1-0.2-0.2-0.3-0.3-0.5c-0.1-0.2-0.2-0.3-0.3-0.4l-0.1-0.1c0-0.1,0-0.1,0-0.2
			c0.3,0.1,0.5,0.3,0.7,0.6c0.2,0.2,0.3,0.5,0.4,0.8c0,0.1,0,0.1,0.1,0.2c0,0.1,0,0.1,0,0.2l0,0l0,0c-0.1,0-0.1,0-0.2-0.1
			s-0.1,0-0.2-0.1c-0.3-0.1-0.6-0.3-0.8-0.5c-0.1-0.2-0.2-0.3-0.3-0.5h0C-1572.4-207.1-1572.2-207-1572.2-207L-1572.2-207z
			 M-1597.3-207.3c-0.5,0.3-0.8,0.7-1.1,1.1c-0.2,0.4-0.4,0.8-0.5,1.3c-0.2,0.1-0.5,0.1-0.8,0.2h0h0v0c0.1-0.2,0.1-0.4,0.2-0.6
			c0.1-0.2,0.2-0.3,0.2-0.5c0.2-0.3,0.4-0.5,0.6-0.8c0.3-0.2,0.5-0.4,0.8-0.5C-1597.7-207.2-1597.4-207.3-1597.3-207.3
			L-1597.3-207.3z M-1572.8-207.2c0.1,0.3,0.3,0.6,0.5,0.8c0.1,0.1,0.2,0.2,0.3,0.3c0,0.2,0,0.3,0,0.5c0,0.1,0,0.1,0,0.2
			c0,0.1,0,0.1-0.1,0.2l0,0l0,0c-0.1,0-0.1-0.1-0.2-0.1s-0.1-0.1-0.1-0.1c-0.2-0.2-0.4-0.5-0.5-0.8c-0.1-0.3-0.1-0.6,0-0.9h0
			L-1572.8-207.2L-1572.8-207.2z M-1596.6-206.3c0,0.1,0,0.1,0,0.2c-0.1,0.3-0.2,0.6-0.4,0.8c-0.2,0.3-0.4,0.6-0.7,0.8
			c-0.1,0.1-0.3,0.2-0.5,0.3c-0.2,0.1-0.4,0.2-0.6,0.3h0v0c0-0.2,0-0.4,0-0.7c0-0.2,0.1-0.3,0.1-0.5c0.1-0.3,0.2-0.7,0.4-0.9
			c0.2-0.3,0.4-0.5,0.7-0.7c0.1-0.1,0.4-0.3,0.4-0.3c0,0.1-0.1,0.2-0.1,0.3c0,0.1,0,0.1,0,0.1l-0.1,0.2c-0.1,0.2-0.3,0.5-0.4,0.7
			c-0.1,0.2-0.3,0.5-0.4,0.7l0,0c0.2-0.2,0.4-0.4,0.5-0.6s0.3-0.4,0.5-0.6l-0.2,0l0.2,0c0.1,0,0.2,0,0.3,0
			C-1596.7-206.3-1596.6-206.3-1596.6-206.3L-1596.6-206.3z M-1570.8-206.4L-1570.8-206.4L-1570.8-206.4L-1570.8-206.4
			c0.4-0.1,0.7-0.1,1.1,0.1c0.3,0.1,0.5,0.3,0.7,0.5c0,0,0.1,0.1,0.1,0.1c0,0.1,0.1,0.1,0.1,0.2l0,0c-0.1,0-0.3,0-0.4,0h-0.1
			c-0.2,0-0.3,0-0.5-0.1c-0.1-0.1-0.1-0.2-0.2-0.3C-1570.1-206-1570.4-206.2-1570.8-206.4L-1570.8-206.4z M-1596.2-205.8
			c0,0.2,0,0.3-0.1,0.5c-0.1,0.3-0.3,0.7-0.5,1c-0.1,0.1-0.2,0.3-0.3,0.4c-0.2,0.2-0.3,0.3-0.5,0.5l0,0v0c-0.1-0.2-0.1-0.4-0.2-0.7
			c0,0,0-0.1,0-0.1c0.4-0.3,0.7-0.6,1-1c0.2-0.4,0.4-0.8,0.5-1.3l0.1,0c0,0,0,0.1,0,0.1c0,0.1,0,0.3,0,0.4
			C-1596.2-205.9-1596.2-205.8-1596.2-205.8z M-1570.6-205.7c0-0.1,0-0.2,0-0.2v0c0.2,0.1,0.4,0.3,0.6,0.5c0.2,0.2,0.3,0.5,0.4,0.8
			c0,0.1,0,0.1,0,0.2c0,0.1,0,0.1,0,0.2l0,0l0,0c-0.1,0-0.1-0.1-0.2-0.1c-0.1,0-0.1-0.1-0.2-0.1c-0.3-0.1-0.5-0.3-0.7-0.6
			c-0.1-0.2-0.3-0.4-0.3-0.6c0.1,0,0.1,0,0.2,0l0,0c0.1,0.1,0.2,0.3,0.4,0.4c0.1,0.1,0.3,0.3,0.4,0.4l0,0c-0.1-0.2-0.1-0.3-0.2-0.5
			C-1570.5-205.4-1570.6-205.5-1570.6-205.7L-1570.6-205.7z M-1571.5-205.7c0.1,0.3,0.2,0.7,0.4,1c0.1,0.1,0.2,0.2,0.3,0.3h0
			c0,0.2,0,0.3-0.1,0.5c0,0.1,0,0.1-0.1,0.2c0,0.1,0,0.1-0.1,0.2l0,0c0-0.1-0.1-0.1-0.1-0.2c0-0.1-0.1-0.1-0.1-0.2
			c-0.2-0.3-0.3-0.5-0.4-0.9C-1571.7-205.1-1571.6-205.4-1571.5-205.7L-1571.5-205.7L-1571.5-205.7z M-1582.3-202.3
			c1.4-0.5,2.9-0.7,4.3-0.7c-1.7-0.6-3.5-0.6-5.2-0.3l0-0.3l-0.9-1.2l-0.9,1.2l0,0.3c-1.7-0.4-3.5-0.3-5.2,0.3
			c1.5-0.1,3,0.2,4.4,0.7c-2.3,1.2-4.1,3.3-4.9,5.8c-1.3,3.9-0.1,8.2,3,10.8c-3.4-5-2.2-11.7,2.7-15.2l-0.3,8.3v6.5
			c0.5,0.3,1,0.6,1.3,1.1c0.3-0.5,0.8-0.8,1.3-1.1v-6.5l-0.3-8.3c4.8,3.5,6,10.3,2.7,15.2c3.1-2.7,4.3-6.9,3-10.8
			C-1578.1-199-1579.9-201.1-1582.3-202.3z M-1569.4-204.7c0,0,0.1,0,0.1,0c0.4,0,0.7,0.1,1,0.3c0.2,0.2,0.5,0.4,0.6,0.6
			c0,0.1,0.1,0.1,0.1,0.2c0,0.1,0.1,0.1,0.1,0.2h-0.1c-0.1,0-0.1,0-0.2,0c-0.3,0-0.5-0.1-0.7-0.2v0c0-0.1-0.1-0.2-0.1-0.3
			C-1568.8-204.2-1569.1-204.5-1569.4-204.7L-1569.4-204.7L-1569.4-204.7z M-1600.6-201.6L-1600.6-201.6c-0.3,0.2-0.5,0.3-0.7,0.3h0
			c0,0,0,0,0,0c0-0.2,0-0.4,0.1-0.7c0-0.2,0.1-0.3,0.1-0.5c0.1-0.3,0.2-0.6,0.4-0.9c0.2-0.3,0.4-0.5,0.7-0.7
			c0.2-0.1,0.3-0.2,0.5-0.3l-0.1,0.1c-0.4,0.4-0.7,0.8-0.8,1.3C-1600.5-202.5-1600.6-202.1-1600.6-201.6z M-1598.6-203.6
			c0,0.4,0,0.9-0.2,1.3c-0.1,0.3-0.3,0.6-0.5,0.9c-0.2,0.3-0.5,0.6-0.8,0.8l0,0v0c-0.1-0.2-0.1-0.4-0.1-0.7c0-0.2,0-0.4,0-0.5
			c0-0.3,0.1-0.7,0.2-1c0.1-0.3,0.3-0.6,0.5-0.9c0.1-0.1,0.2-0.3,0.3-0.4c0.1-0.1,0.1-0.1,0.2-0.2v0c0,0,0,0.1,0,0.1
			c-0.1,0.2-0.2,0.5-0.3,0.7c-0.1,0.3-0.2,0.5-0.2,0.8c-0.1,0.3-0.1,0.5-0.2,0.8l0,0c0.1-0.2,0.3-0.5,0.4-0.7s0.2-0.5,0.3-0.7
			l0.1-0.2l0.1,0C-1598.7-203.6-1598.7-203.6-1598.6-203.6z M-1569.4-204c0-0.1,0-0.2,0-0.2v0c0.2,0.2,0.4,0.4,0.5,0.6
			c0.1,0.3,0.2,0.6,0.2,0.9c0,0.1,0,0.1,0,0.2c0,0.1,0,0.1,0,0.2l0,0l0,0c-0.1,0-0.1-0.1-0.2-0.1c-0.1,0-0.1-0.1-0.2-0.1
			c-0.3-0.2-0.5-0.4-0.6-0.7c-0.1-0.2-0.2-0.4-0.2-0.7l0,0c0,0,0.1,0,0.1,0l0,0c0.1,0.2,0.2,0.3,0.3,0.5c0.1,0.1,0.2,0.3,0.3,0.4
			l0,0c0-0.2-0.1-0.4-0.2-0.5C-1569.2-203.6-1569.3-203.8-1569.4-204L-1569.4-204z M-1570.2-204.1c0,0.3,0.1,0.7,0.3,1
			c0.1,0.1,0.1,0.2,0.2,0.3c0,0.2-0.1,0.3-0.1,0.5c0,0.1-0.1,0.1-0.1,0.2c0,0.1-0.1,0.1-0.1,0.2l0,0c0-0.1-0.1-0.1-0.1-0.2
			s-0.1-0.1-0.1-0.2c-0.2-0.3-0.2-0.6-0.3-0.9C-1570.4-203.5-1570.4-203.8-1570.2-204.1L-1570.2-204.1L-1570.2-204.1z
			 M-1598.2-203.8c0.1,0.1,0.1,0.3,0.1,0.4c0.1,0.3,0.1,0.6,0.1,0.9c0,0.3-0.1,0.7-0.2,1c-0.1,0.4-0.3,0.7-0.6,1l0,0l0,0v0
			c-0.1-0.2-0.2-0.4-0.3-0.6l0-0.1c0.3-0.4,0.6-0.8,0.7-1.2C-1598.3-202.8-1598.2-203.3-1598.2-203.8L-1598.2-203.8z M-1568.2-202.7
			c0.1,0,0.1,0,0.2,0.1c0.3,0.1,0.7,0.3,0.9,0.5c0.2,0.2,0.4,0.5,0.5,0.7c0,0.1,0,0.1,0.1,0.2c0,0.1,0,0.1,0.1,0.2l0,0
			c-0.1,0-0.1,0-0.2,0s-0.1,0-0.2-0.1c-0.2-0.1-0.4-0.1-0.6-0.3c0-0.1,0-0.2-0.1-0.3C-1567.6-202-1567.8-202.3-1568.2-202.7
			C-1568.2-202.6-1568.2-202.7-1568.2-202.7z M-1568.5-202l0,0.1c0.1,0.2,0.1,0.3,0.2,0.5c0.1,0.2,0.2,0.3,0.3,0.5l0,0
			c0-0.2,0-0.4-0.1-0.5c0-0.2-0.1-0.4-0.1-0.5c0-0.1-0.1-0.2-0.1-0.3c0,0,0,0,0-0.1v0c0.2,0.2,0.4,0.6,0.5,0.9
			c0.1,0.3,0.1,0.6,0.1,0.9c0,0.1,0,0.1,0,0.2c0,0.1,0,0.1,0,0.2l0,0l0,0c-0.1,0-0.1-0.1-0.2-0.1c-0.1,0-0.1-0.1-0.1-0.1
			c-0.2-0.2-0.4-0.5-0.5-0.8c-0.1-0.2-0.1-0.5-0.1-0.8L-1568.5-202L-1568.5-202L-1568.5-202z M-1568.9-202.2c0,0.3,0,0.7,0.1,1
			c0,0.1,0.1,0.3,0.2,0.4c-0.1,0.1-0.1,0.3-0.2,0.4c0,0.1-0.1,0.1-0.1,0.2c0,0.1-0.1,0.1-0.1,0.2l0,0c0-0.1-0.1-0.1-0.1-0.2
			c0-0.1,0-0.1-0.1-0.2c-0.1-0.3-0.1-0.6-0.1-0.9C-1569.3-201.7-1569.2-202-1568.9-202.2L-1568.9-202.2L-1568.9-202.2z M-1594-189.5
			c-2.3-4.1-1-9.3,3.1-11.6l0,0c-3.7,4.9-2.7,11.9,2.2,15.6c0,0,0,0,0,0C-1590.9-186-1592.8-187.5-1594-189.5z M-1577.1-201
			L-1577.1-201c4,2.3,5.4,7.5,3.1,11.6c-1.2,2-3.1,3.4-5.3,4C-1574.4-189.2-1573.4-196.1-1577.1-201
			C-1577.1-201-1577.1-201-1577.1-201z M-1600.1-200.3c0.1,0,0.2-0.1,0.2-0.1c0.1,0.5,0.2,1.1,0.1,1.6c-0.1,0.3-0.2,0.6-0.3,0.9
			c-0.2,0.3-0.4,0.7-0.7,0.9l0,0l0,0v0c-0.1-0.2-0.2-0.4-0.2-0.6c0-0.2-0.1-0.3-0.1-0.5c0-0.3,0-0.7,0-1c0.1-0.3,0.2-0.6,0.4-0.9
			c0.1-0.2,0.2-0.3,0.3-0.4c0.1-0.1,0.1-0.1,0.2-0.2v0l0,0.1v0c-0.1,0.3-0.1,0.5-0.2,0.8c-0.1,0.3-0.1,0.5-0.1,0.8
			c0,0.3-0.1,0.5-0.1,0.8l0,0c0.1-0.3,0.2-0.5,0.3-0.8c0.1-0.3,0.2-0.5,0.2-0.8C-1600.2-199.9-1600.2-200.1-1600.1-200.3
			L-1600.1-200.3z M-1601.5-197.8c-0.2,0.2-0.4,0.3-0.7,0.4l0,0h0v0c0-0.2,0-0.5,0-0.7c0-0.2,0-0.3,0.1-0.5c0.1-0.3,0.2-0.7,0.3-1
			c0.2-0.3,0.3-0.5,0.6-0.8c0.1-0.1,0.3-0.3,0.4-0.4l0,0.1c-0.3,0.4-0.5,0.9-0.6,1.4C-1601.6-198.7-1601.6-198.3-1601.5-197.8
			L-1601.5-197.8z M-1567.3-200.5c0.1,0,0.1,0,0.2,0.1c0.3,0.1,0.6,0.3,0.9,0.6c0.2,0.2,0.3,0.5,0.4,0.8c0,0.1,0,0.1,0,0.2
			c0,0.1,0,0.1,0,0.2l0,0l0,0c-0.1,0-0.1,0-0.2-0.1c-0.1,0-0.1,0-0.2-0.1c-0.2-0.1-0.4-0.2-0.5-0.3c0-0.1,0-0.2,0-0.3
			C-1566.9-199.8-1567-200.1-1567.3-200.5C-1567.3-200.5-1567.3-200.5-1567.3-200.5z M-1599.6-200.5c0.1,0.2,0.2,0.4,0.3,0.6
			c0.1,0.3,0.2,0.6,0.2,0.9c0,0.3,0,0.7-0.1,1c-0.1,0.4-0.2,0.8-0.4,1.1l0,0v0l0,0c-0.1-0.2-0.3-0.4-0.4-0.6l0-0.1
			c0.3-0.4,0.4-0.8,0.5-1.3c0.1-0.5,0.1-1-0.1-1.5C-1599.6-200.4-1599.6-200.5-1599.6-200.5L-1599.6-200.5z M-1568.2-200.1
			c-0.1,0.3-0.1,0.7,0,1c0,0.1,0.1,0.3,0.1,0.4c-0.1,0.1-0.2,0.3-0.3,0.4c0,0.1-0.1,0.1-0.1,0.1c0,0-0.1,0.1-0.1,0.1l0,0l0,0
			c0-0.1,0-0.1-0.1-0.2s0-0.1,0-0.2c-0.1-0.3,0-0.6,0-0.9C-1568.6-199.6-1568.4-199.9-1568.2-200.1L-1568.2-200.1L-1568.2-200.1z
			 M-1567.4-200.1c0.2,0.3,0.3,0.6,0.4,0.9c0,0.3,0,0.6,0,0.9c0,0.1,0,0.1-0.1,0.2c0,0.1,0,0.1-0.1,0.2l0,0c0-0.1-0.1-0.1-0.1-0.2
			s-0.1-0.1-0.1-0.2c-0.2-0.3-0.3-0.5-0.4-0.9c0-0.2,0-0.5,0-0.7c0,0,0.1,0.1,0.1,0.1l0,0l0,0.1c0,0.2,0.1,0.3,0.1,0.5
			c0.1,0.2,0.1,0.3,0.2,0.5l0,0c0-0.2,0-0.4,0-0.5c0-0.2,0-0.4,0-0.5c0-0.1,0-0.1,0-0.2C-1567.5-200-1567.5-200.1-1567.4-200.1
			L-1567.4-200.1z M-1566.6-198.4c0.1,0,0.1,0.1,0.2,0.1c0.3,0.2,0.6,0.4,0.7,0.8c0.1,0.3,0.2,0.6,0.3,0.9c0,0.1,0,0.1,0,0.2
			c0,0.1,0,0.1,0,0.2l0,0l0,0c-0.1,0-0.1-0.1-0.2-0.1c-0.1,0-0.1-0.1-0.2-0.1c-0.2-0.1-0.3-0.2-0.5-0.4c0-0.1,0-0.2,0-0.3
			C-1566.3-197.6-1566.4-198-1566.6-198.4L-1566.6-198.4z M-1568.1-198.1c0.1-0.1,0.1-0.1,0.2-0.2l0,0
			C-1567.9-198.3-1568-198.2-1568.1-198.1L-1568.1-198.1z M-1567.2-197.5c0,0.1,0,0.2,0,0.4c0,0.2,0.1,0.4,0.1,0.5l0,0
			c0-0.2,0.1-0.4,0.1-0.5c0-0.2,0-0.4,0-0.5c0-0.1,0-0.3,0-0.4l0,0l0,0c0.2,0.3,0.3,0.7,0.3,1c0,0.3-0.1,0.6-0.2,0.9
			c0,0.1-0.1,0.1-0.1,0.2c0,0.1-0.1,0.1-0.1,0.2l0,0l0,0c0-0.1-0.1-0.1-0.1-0.2s-0.1-0.1-0.1-0.2c-0.1-0.3-0.2-0.6-0.2-0.9
			c0-0.2,0-0.4,0.1-0.5L-1567.2-197.5z M-1567.6-197.9c-0.1,0.3-0.1,0.5-0.1,0.8c0,0.1,0,0.3,0.1,0.4c-0.1,0.1-0.2,0.2-0.3,0.3
			c-0.1,0-0.1,0.1-0.2,0.1c-0.1,0-0.1,0.1-0.2,0.1l0,0l0,0c0-0.1,0-0.1,0-0.2c0-0.1,0-0.1,0-0.2c0-0.3,0.1-0.6,0.2-0.9
			c0.1-0.2,0.3-0.4,0.4-0.6l0,0L-1567.6-197.9C-1567.6-198-1567.6-197.9-1567.6-197.9L-1567.6-197.9z M-1600.3-197.1
			c0,0.1,0.1,0.1,0.1,0.2c0.3,0.4,0.5,0.8,0.6,1.3c0.1,0.3,0.1,0.6,0.1,0.9c0,0.4-0.1,0.8-0.2,1.1l0,0v0l0,0
			c-0.2-0.1-0.3-0.3-0.5-0.5l-0.1-0.1c0.2-0.4,0.3-0.9,0.3-1.4c0-0.5-0.1-1-0.3-1.5C-1600.3-197-1600.3-197-1600.3-197.1z
			 M-1601.8-194.1c-0.2,0.2-0.4,0.4-0.6,0.5l0,0l0,0v0c-0.1-0.2-0.1-0.4-0.1-0.7c0-0.2,0-0.4,0-0.5c0-0.3,0.1-0.7,0.2-1
			c0.1-0.3,0.3-0.6,0.5-0.9c0.1-0.1,0.2-0.3,0.3-0.4l0,0l0,0.1c-0.2,0.5-0.4,1-0.4,1.5C-1602-195-1601.9-194.5-1601.8-194.1
			L-1601.8-194.1z M-1600.6-196.9c0.1,0.2,0.2,0.4,0.2,0.6c0.1,0.3,0.1,0.6,0.1,0.9c0,0.3-0.1,0.7-0.2,1c-0.1,0.2-0.1,0.3-0.2,0.5
			c-0.1,0.2-0.2,0.4-0.4,0.6l0,0v0c-0.1-0.2-0.2-0.4-0.3-0.6c-0.1-0.2-0.1-0.3-0.2-0.5c-0.1-0.3-0.1-0.7-0.1-1c0-0.3,0.1-0.6,0.2-1
			c0.1-0.2,0.1-0.3,0.2-0.5v0c0,0.1,0.1,0.1,0.1,0.2l0,0l0,0.1c0,0.1,0,0.2,0,0.4c0,0.3,0,0.5,0,0.8c0,0.3,0,0.5,0.1,0.8l0,0
			c0.1-0.3,0.1-0.5,0.2-0.8s0.1-0.5,0.1-0.8c0-0.2,0-0.3,0-0.5C-1600.7-196.7-1600.7-196.8-1600.6-196.9L-1600.6-196.9z
			 M-1566.3-196.2c0.1,0,0.1,0.1,0.2,0.1c0.3,0.2,0.5,0.5,0.6,0.9c0.1,0.3,0.1,0.6,0.1,0.9c0,0.1,0,0.1,0,0.2c0,0.1,0,0.1,0,0.2l0,0
			l0,0c-0.1,0-0.1-0.1-0.2-0.1c-0.1,0-0.1-0.1-0.1-0.1c-0.2-0.1-0.3-0.3-0.4-0.5c0-0.1,0-0.2,0.1-0.3c0-0.4,0-0.8-0.2-1.2
			C-1566.3-196.2-1566.3-196.2-1566.3-196.2z M-1567.3-195.9c-0.1,0.3-0.2,0.5-0.3,0.8c0,0.1,0,0.3,0,0.4c-0.1,0.1-0.2,0.2-0.4,0.3
			c-0.1,0-0.1,0.1-0.2,0.1c-0.1,0-0.1,0.1-0.2,0.1l0,0l0,0c0-0.1,0-0.1,0-0.2c0-0.1,0-0.1,0-0.2c0-0.3,0.2-0.6,0.3-0.9
			c0.2-0.2,0.3-0.4,0.6-0.6C-1567.4-196-1567.4-196-1567.3-195.9L-1567.3-195.9z M-1566.7-195.7c0-0.1,0.1-0.1,0.1-0.2
			c0.1,0.3,0.1,0.6,0.1,1c-0.1,0.3-0.2,0.6-0.3,0.8c0,0.1-0.1,0.1-0.1,0.2s-0.1,0.1-0.1,0.2l0,0l0,0c0-0.1-0.1-0.1-0.1-0.2
			c0-0.1,0-0.1-0.1-0.2c-0.1-0.3-0.1-0.6-0.1-0.9c0-0.2,0.1-0.4,0.2-0.5l0.1,0.2c0,0.1,0,0.3,0,0.4c0,0.2,0,0.4,0,0.5l0,0
			c0.1-0.2,0.1-0.3,0.2-0.5c0.1-0.2,0.1-0.3,0.1-0.5C-1566.7-195.6-1566.7-195.6-1566.7-195.7L-1566.7-195.7z M-1566.3-194
			c0.1,0,0.1,0.1,0.1,0.2c0.2,0.3,0.4,0.6,0.5,0.9c0.1,0.3,0.1,0.6,0,0.9c0,0.1,0,0.1,0,0.2c0,0.1,0,0.1-0.1,0.2l0,0l0,0
			c-0.1,0-0.1-0.1-0.2-0.1s-0.1-0.1-0.1-0.1c-0.1-0.2-0.2-0.3-0.3-0.5c0-0.1,0.1-0.2,0.1-0.3C-1566.2-193.1-1566.2-193.5-1566.3-194
			C-1566.3-194-1566.3-194-1566.3-194L-1566.3-194z M-1567.4-193.8c-0.1,0.2-0.2,0.5-0.3,0.7c0,0.1,0,0.3-0.1,0.4v0
			c-0.1,0.1-0.3,0.2-0.4,0.2c-0.1,0-0.1,0.1-0.2,0.1c-0.1,0-0.1,0-0.2,0.1l0,0l0,0c0-0.1,0-0.1,0-0.2c0-0.1,0-0.1,0-0.2
			c0.1-0.3,0.2-0.6,0.4-0.8c0.2-0.2,0.4-0.3,0.6-0.5l0,0C-1567.4-193.9-1567.4-193.8-1567.4-193.8L-1567.4-193.8z M-1567.3-191.6
			c0-0.1,0-0.1-0.1-0.2c0-0.1,0-0.1,0-0.2c-0.1-0.3-0.1-0.6,0-0.9c0-0.2,0.1-0.3,0.2-0.4l0.1,0.2l0,0c0,0.1,0,0.2-0.1,0.4
			c0,0.2,0,0.4,0,0.5l0,0c0.1-0.2,0.2-0.3,0.2-0.5c0.1-0.2,0.1-0.3,0.2-0.5c0-0.1,0.1-0.3,0.1-0.5l0,0c0.1,0.3,0.1,0.7,0,1.1
			c-0.1,0.3-0.2,0.6-0.4,0.8c0,0.1-0.1,0.1-0.1,0.2C-1567.2-191.7-1567.2-191.7-1567.3-191.6L-1567.3-191.6L-1567.3-191.6z
			 M-1599.1-190.2c0,0-0.3-0.2-0.4-0.3c-0.1,0-0.1-0.1-0.2-0.1c0.1-0.5,0.1-0.9,0-1.4c-0.1-0.5-0.3-1-0.6-1.4c0,0-0.1-0.1-0.1-0.1
			c0.1,0,0.1,0.1,0.2,0.1c0.4,0.3,0.7,0.7,0.9,1.1c0.1,0.3,0.2,0.6,0.3,0.9C-1599.1-190.9-1599.1-190.6-1599.1-190.2z
			 M-1600.7-193.3L-1600.7-193.3c0.3,0.4,0.6,0.9,0.7,1.5c0.1,0.3,0.1,0.6,0,1c-0.1,0.4-0.2,0.8-0.3,1.1l0,0v0l0,0
			c-0.2-0.2-0.3-0.3-0.4-0.5c-0.1-0.1-0.2-0.3-0.3-0.4c-0.2-0.3-0.3-0.6-0.4-0.9c-0.1-0.3-0.1-0.7,0-1c0-0.2,0.1-0.3,0.1-0.5
			c0,0,0-0.1,0-0.1c0,0.1,0.1,0.1,0.1,0.2l0,0c0,0.2,0.1,0.3,0.1,0.5c0.1,0.3,0.1,0.5,0.2,0.8c0.1,0.3,0.1,0.5,0.2,0.8l0,0
			c0-0.3,0-0.5,0-0.8c0-0.3-0.1-0.5-0.1-0.8c0-0.2-0.1-0.4-0.1-0.6C-1600.8-193.1-1600.8-193.2-1600.7-193.3L-1600.7-193.3z
			 M-1601.7-193.1C-1601.7-193.1-1601.7-193.1-1601.7-193.1c-0.2,0.6-0.2,1.2-0.1,1.7c0.1,0.4,0.3,0.8,0.5,1.2
			c-0.1,0.2-0.3,0.5-0.5,0.7l0,0v0c-0.1-0.2-0.2-0.4-0.3-0.6c-0.1-0.2-0.1-0.3-0.2-0.5c-0.1-0.3-0.1-0.7-0.1-1c0-0.3,0.1-0.7,0.3-1
			C-1601.8-192.8-1601.8-193-1601.7-193.1L-1601.7-193.1L-1601.7-193.1z M-1567.7-191.8c-0.2,0.2-0.3,0.4-0.4,0.6
			c0,0.1-0.1,0.3-0.1,0.4v0c-0.1,0.1-0.3,0.1-0.4,0.2c-0.1,0-0.1,0-0.2,0.1s-0.1,0-0.2,0l0,0l0,0c0-0.1,0-0.1,0.1-0.2
			c0-0.1,0-0.1,0.1-0.2c0.1-0.3,0.3-0.6,0.5-0.8c0.2-0.2,0.4-0.3,0.6-0.4C-1567.7-192-1567.7-191.9-1567.7-191.8L-1567.7-191.8z
			 M-1566.6-192c0,0.1,0.1,0.1,0.1,0.2c0.2,0.3,0.4,0.6,0.4,1c0,0.3,0,0.6-0.1,0.9c0,0.1,0,0.1-0.1,0.2c0,0.1,0,0.1-0.1,0.2l0,0l0,0
			c0-0.1-0.1-0.1-0.1-0.2c0-0.1-0.1-0.1-0.1-0.2c-0.1-0.2-0.2-0.4-0.3-0.5c0-0.1,0.1-0.2,0.1-0.3c0.1-0.4,0.2-0.8,0.1-1.2
			C-1566.6-191.9-1566.6-192-1566.6-192L-1566.6-192z M-1566.8-191.6c0,0.3,0,0.6-0.1,0.9c-0.1,0.3-0.3,0.5-0.5,0.7
			c0,0-0.1,0.1-0.1,0.1c-0.1,0-0.1,0.1-0.2,0.1l0,0l0,0c0-0.1,0-0.1,0-0.2s0-0.1,0-0.2c0-0.3,0-0.6,0.1-0.9c0-0.1,0.1-0.3,0.2-0.4
			l0,0c0,0,0,0.1,0.1,0.1l0,0l0.1,0.2l0-0.1c0,0.1,0,0.1-0.1,0.2c0,0.2-0.1,0.4-0.1,0.5l0,0c0.1-0.1,0.2-0.3,0.3-0.5
			c0.1-0.2,0.2-0.3,0.2-0.5l0-0.1C-1567-191.5-1566.9-191.6-1566.8-191.6L-1566.8-191.6z M-1568.1-189.9c-0.2,0.2-0.3,0.3-0.4,0.5
			c-0.1,0.1-0.1,0.2-0.2,0.4v0c-0.1,0.1-0.3,0.1-0.5,0.1c-0.1,0-0.1,0-0.2,0c-0.1,0-0.1,0-0.2,0l0,0l0,0c0-0.1,0.1-0.1,0.1-0.2
			c0-0.1,0.1-0.1,0.1-0.2c0.2-0.3,0.4-0.5,0.6-0.7c0.2-0.1,0.4-0.2,0.6-0.3l0,0C-1568.2-190.1-1568.2-190-1568.1-189.9
			C-1568.1-190-1568.1-189.9-1568.1-189.9z M-1599-189.7c0.2,0.1,0.3,0.3,0.5,0.5c0.2,0.3,0.4,0.6,0.5,0.9c0.1,0.4,0.2,0.8,0.2,1.2
			v0h0c-0.2-0.1-0.4-0.2-0.6-0.3l-0.1,0c0-0.5-0.1-1-0.2-1.4c-0.2-0.4-0.4-0.8-0.8-1.2l0,0c0.1,0,0.1,0.1,0.2,0.1
			C-1599.3-189.9-1599-189.7-1599-189.7z M-1567-190c0,0.1,0.1,0.1,0.1,0.2c0.2,0.3,0.3,0.7,0.3,1c0,0.3-0.1,0.6-0.2,0.9
			c0,0.1-0.1,0.1-0.1,0.2c0,0.1-0.1,0.1-0.1,0.2l0,0c0-0.1-0.1-0.1-0.1-0.2c0-0.1-0.1-0.1-0.1-0.2c-0.1-0.2-0.2-0.4-0.2-0.6
			c0.1-0.1,0.1-0.2,0.2-0.3c0.2-0.4,0.3-0.7,0.2-1.1C-1567-189.9-1567-189.9-1567-190z M-1599.9-189.9c0.1,0.1,0.2,0.2,0.3,0.4
			c0.2,0.2,0.3,0.5,0.5,0.8c0.1,0.3,0.2,0.6,0.2,1c0,0.4,0,0.8-0.1,1.2l0,0v0l0,0c-0.2-0.1-0.4-0.3-0.5-0.4
			c-0.1-0.1-0.2-0.3-0.4-0.4c-0.2-0.3-0.4-0.6-0.5-0.9c-0.1-0.3-0.2-0.6-0.2-1c0-0.1,0-0.2,0-0.3c0.1,0.1,0.1,0.1,0.2,0.2l0.2,0.1
			l0,0l0,0c0.1,0.3,0.2,0.5,0.3,0.7c0.1,0.2,0.2,0.5,0.4,0.7l0,0c0-0.3-0.1-0.5-0.2-0.8c-0.1-0.3-0.1-0.5-0.2-0.8
			c0-0.1-0.1-0.2-0.1-0.3l0,0C-1600-189.7-1599.9-189.8-1599.9-189.9z M-1567.3-189.8c0,0.3-0.1,0.7-0.3,1c-0.2,0.3-0.4,0.5-0.6,0.7
			c-0.1,0-0.1,0.1-0.2,0.1c-0.1,0-0.1,0.1-0.2,0.1l0,0l0,0c0-0.1,0-0.1,0-0.2c0-0.1,0-0.1,0-0.2c0-0.3,0.1-0.6,0.2-0.9
			c0.1-0.1,0.1-0.2,0.2-0.3l0.1,0.3l0,0c0,0,0,0.1-0.1,0.1c-0.1,0.2-0.1,0.3-0.2,0.5l0,0c0.1-0.1,0.2-0.3,0.4-0.4
			c0.1-0.1,0.2-0.3,0.3-0.4c0-0.1,0.1-0.1,0.1-0.2L-1567.3-189.8C-1567.3-189.7-1567.3-189.7-1567.3-189.8z M-1600-186.9
			c-0.1,0.2-0.2,0.5-0.3,0.7l0,0v0l0,0c-0.1-0.2-0.3-0.4-0.4-0.6c-0.1-0.1-0.2-0.3-0.2-0.5c-0.1-0.3-0.2-0.6-0.2-1
			c0-0.3,0-0.7,0.1-1c0-0.2,0.1-0.3,0.2-0.5l0,0c0,0,0,0.1,0,0.1c0,0.5,0,1.1,0.2,1.6C-1600.5-187.6-1600.3-187.3-1600-186.9
			L-1600-186.9z M-1568.8-188.1c-0.2,0.1-0.4,0.3-0.6,0.5c-0.1,0.1-0.2,0.2-0.2,0.3c0,0-0.1,0-0.2,0c-0.1,0-0.2,0-0.2,0h-0.1
			c-0.1,0-0.1,0-0.2,0s-0.1,0-0.2,0l0,0c0.1-0.1,0.1-0.2,0.2-0.3c0.2-0.3,0.5-0.5,0.8-0.6c0.2-0.1,0.4-0.1,0.7-0.2
			C-1568.8-188.3-1568.8-188.2-1568.8-188.1L-1568.8-188.1z M-1568.3-185.7c0,0-0.1-0.7-0.1-0.8c0.1-0.1,0.1-0.1,0.2-0.2
			c0.2-0.3,0.4-0.7,0.5-1.1c0,0,0-0.1,0-0.1c0,0.1,0,0.1,0.1,0.2c0.1,0.3,0.1,0.7,0.1,1.1c-0.1,0.3-0.2,0.6-0.4,0.8
			c0,0.1-0.1,0.1-0.1,0.2c0,0.1-0.1,0.1-0.1,0.2l0,0l0,0C-1568.2-185.6-1568.3-185.6-1568.3-185.7L-1568.3-185.7z M-1568.1-187.8
			c-0.1,0.3-0.2,0.6-0.4,0.9c-0.2,0.2-0.4,0.4-0.7,0.5c-0.1,0-0.1,0.1-0.2,0.1c-0.1,0-0.1,0.1-0.2,0.1l0,0l0,0c0-0.1,0-0.1,0-0.2
			c0-0.1,0-0.1,0-0.2c0.1-0.3,0.2-0.6,0.4-0.9c0.1-0.1,0.2-0.3,0.4-0.4l0,0.2c-0.1,0.1-0.1,0.2-0.2,0.3c-0.1,0.2-0.2,0.3-0.3,0.5
			l0,0c0.2-0.1,0.3-0.2,0.4-0.3c0.1-0.1,0.3-0.2,0.4-0.4c0.1-0.1,0.1-0.1,0.2-0.2C-1568.2-187.7-1568.1-187.7-1568.1-187.8
			L-1568.1-187.8z M-1598.7-186.5c0-0.1,0.1-0.4,0.1-0.4c0.4,0.3,0.7,0.6,1,1c0.2,0.3,0.3,0.6,0.4,0.9c0.1,0.4,0.1,0.8,0.1,1.2v0h0
			c-0.2-0.1-0.4-0.2-0.6-0.3c-0.2-0.1-0.3-0.2-0.4-0.3c-0.3-0.2-0.5-0.5-0.7-0.7c-0.2-0.3-0.3-0.6-0.4-0.9c0-0.1,0-0.1,0-0.2l0,0
			c0.1,0.1,0.1,0.1,0.2,0.2l0.2,0.1l0-0.1c0.1,0.2,0.3,0.4,0.4,0.6c0.2,0.2,0.3,0.4,0.5,0.6l0,0c-0.1-0.3-0.2-0.5-0.3-0.7
			c-0.1-0.2-0.2-0.5-0.4-0.7L-1598.7-186.5L-1598.7-186.5z M-1597.6-186.8L-1597.6-186.8c0.1,0,0.3,0.1,0.4,0.2
			c0.2,0.2,0.5,0.5,0.6,0.8c0.2,0.3,0.3,0.7,0.4,1.1v0h0c-0.2,0-0.5-0.1-0.7-0.1l-0.1,0c-0.1-0.5-0.3-0.9-0.5-1.3
			c-0.2-0.3-0.4-0.5-0.7-0.7c0.1,0,0.2,0.1,0.3,0.1L-1597.6-186.8z M-1569.9-186.5c-0.2,0.1-0.4,0.3-0.5,0.4
			c-0.1,0.1-0.2,0.2-0.2,0.3c-0.1,0-0.2,0-0.3,0h-0.1c-0.2,0-0.4,0-0.5-0.1l0,0c0.1-0.1,0.1-0.2,0.2-0.3c0.2-0.3,0.5-0.5,0.9-0.6
			c0.2-0.1,0.4-0.1,0.6-0.1l0,0C-1569.8-186.7-1569.9-186.5-1569.9-186.5L-1569.9-186.5z M-1598.1-184c0,0,0,0.1,0,0.1
			c0,0.2-0.1,0.4-0.2,0.7v0l0,0c-0.3-0.2-0.6-0.5-0.8-0.9c-0.2-0.3-0.4-0.6-0.5-0.9c-0.1-0.3-0.1-0.7-0.1-1c0-0.2,0-0.4,0-0.5v0l0,0
			c0,0,0,0.1,0,0.1c0.1,0.5,0.3,1,0.5,1.5C-1598.9-184.6-1598.5-184.3-1598.1-184z M-1568.6-185.8c0,0.3,0,0.5,0,0.8
			c-0.1,0.3-0.2,0.6-0.4,0.8c0,0.1-0.1,0.1-0.1,0.2c0,0.1-0.1,0.1-0.1,0.2l0,0l0,0c0-0.1,0-0.1-0.1-0.2c0-0.1,0-0.1,0-0.2
			c0-0.2-0.1-0.4-0.1-0.6l0,0c0.1-0.1,0.1-0.1,0.2-0.2c0.2-0.3,0.4-0.7,0.5-1c0,0,0-0.1,0-0.1l0,0c0,0,0,0,0,0
			C-1568.7-186.1-1568.7-185.9-1568.6-185.8L-1568.6-185.8z M-1570.7-184.6c0-0.1,0-0.1,0-0.2c0-0.1,0-0.1,0.1-0.2
			c0.1-0.3,0.2-0.6,0.5-0.8c0.1-0.1,0.1-0.1,0.2-0.2l0,0c0,0,0,0.3,0,0.3l0.1,0l-0.1,0.1c-0.1,0.1-0.2,0.3-0.3,0.5l0,0
			c0.2-0.1,0.3-0.2,0.4-0.3c0.1-0.1,0.3-0.2,0.4-0.4l0,0l0.1-0.1l0.1-0.1c-0.1,0.3-0.2,0.5-0.5,0.8c-0.2,0.2-0.5,0.4-0.7,0.5
			c-0.1,0-0.1,0.1-0.2,0.1C-1570.6-184.7-1570.7-184.6-1570.7-184.6L-1570.7-184.6L-1570.7-184.6z M-1572.1-184.3
			c-0.1,0-0.1,0-0.2,0c-0.1,0-0.2,0-0.3,0l0,0c0.1-0.1,0.1-0.2,0.2-0.3c0.2-0.3,0.5-0.5,0.9-0.6c0.2-0.1,0.4-0.1,0.7-0.1
			c0,0.1-0.1,0.2-0.1,0.2v0c-0.2,0.1-0.4,0.3-0.5,0.5c-0.1,0.1-0.2,0.2-0.2,0.3v0C-1571.8-184.3-1572-184.3-1572.1-184.3
			L-1572.1-184.3z M-1581.8-184.8c-0.7-0.5-1.7-0.3-2.2,0.4c0,0,0,0,0,0c-0.5-0.7-1.5-0.9-2.2-0.4c0,0,0,0,0,0
			c-0.6,0.4-0.8,1.2-0.6,1.9c0.2-0.8,0.9-1.4,1.8-1.2c0,0,0,0,0,0c0.4,0.1,0.8,0.3,1,0.7c0.2-0.4,0.6-0.6,1-0.7
			c0.8-0.2,1.6,0.4,1.8,1.2c0,0,0,0,0,0C-1580.9-183.6-1581.2-184.4-1581.8-184.8L-1581.8-184.8z M-1569.7-183.9c0,0.1,0,0.2,0,0.2
			c-0.1,0.3-0.2,0.6-0.4,0.8c0,0.1-0.1,0.1-0.1,0.2c0,0.1-0.1,0.1-0.1,0.2l0,0l0,0c0-0.1,0-0.1-0.1-0.2c0-0.1,0-0.1-0.1-0.2
			c0-0.2-0.1-0.4-0.1-0.6c0.1-0.1,0.1-0.1,0.2-0.2c0.2-0.3,0.4-0.6,0.5-0.9l0,0c0,0.2,0,0.4,0.1,0.6
			C-1569.7-184-1569.7-183.9-1569.7-183.9L-1569.7-183.9z M-1571.7-183.2c0-0.1,0-0.1,0-0.2s0-0.1,0-0.2c0.1-0.3,0.2-0.6,0.4-0.8
			c0.1-0.1,0.1-0.1,0.2-0.2c0,0.1,0,0.1,0,0.2l0,0.2h0c-0.1,0.1-0.2,0.3-0.3,0.4l0,0c0.2-0.1,0.3-0.2,0.4-0.3
			c0.1-0.1,0.1-0.1,0.2-0.2l0,0c0.1,0,0.2-0.1,0.3-0.1l0.1,0c-0.1,0.2-0.2,0.4-0.4,0.6c-0.2,0.2-0.5,0.4-0.7,0.5
			c-0.1,0-0.1,0.1-0.2,0.1C-1571.6-183.2-1571.7-183.2-1571.7-183.2L-1571.7-183.2L-1571.7-183.2z M-1596-184.4L-1596-184.4
			c0.2,0.1,0.3,0.1,0.5,0.2c0.3,0.2,0.6,0.4,0.8,0.7c0.1,0.1,0.2,0.3,0.3,0.4c0.1,0.2,0.2,0.4,0.3,0.6v0c-0.1,0-0.1,0-0.2,0h-0.1
			c-0.1,0-0.2,0-0.2,0c-0.1,0-0.2,0-0.3,0c-0.2-0.4-0.4-0.9-0.7-1.2c-0.3-0.3-0.7-0.6-1.1-0.8h0c0.1,0,0.2,0,0.3,0.1
			C-1596.2-184.4-1596.1-184.4-1596-184.4L-1596-184.4z M-1596.8-184.2c0.1,0.1,0.2,0.1,0.3,0.2c0.3,0.2,0.5,0.3,0.7,0.6
			c0.2,0.3,0.4,0.5,0.6,0.9c0.1,0.2,0.1,0.3,0.2,0.5c0.1,0.2,0.1,0.4,0.1,0.7v0h0c-0.2-0.1-0.4-0.1-0.6-0.2
			c-0.2-0.1-0.3-0.1-0.5-0.2c-0.3-0.2-0.6-0.4-0.8-0.6c-0.2-0.2-0.4-0.5-0.5-0.8c0-0.1-0.1-0.2-0.1-0.3l0.1,0c0.1,0,0.2,0.1,0.3,0.1
			h0l0.1,0c0.2,0.2,0.4,0.4,0.5,0.6c0.2,0.2,0.4,0.4,0.6,0.5l0,0c-0.1-0.2-0.3-0.5-0.4-0.7c-0.2-0.2-0.3-0.4-0.5-0.7l-0.1-0.1
			c0-0.1,0-0.1,0-0.2C-1596.8-184-1596.8-184.1-1596.8-184.2z M-1571.9-183.9c-0.3,0.2-0.5,0.4-0.7,0.6c-0.1,0.1-0.2,0.2-0.2,0.3
			c-0.1,0-0.1,0-0.2,0c-0.1,0-0.2,0-0.2,0h-0.1c-0.1,0-0.1,0-0.2,0c-0.1,0-0.2,0-0.2,0l0,0c0.1-0.1,0.1-0.2,0.2-0.3
			c0.2-0.3,0.5-0.5,0.8-0.6c0.2-0.1,0.4-0.1,0.6-0.1h0c0.1,0,0.1,0,0.2,0C-1571.9-183.9-1571.9-183.9-1571.9-183.9L-1571.9-183.9z
			 M-1595.9-181.5c0,0.3,0,0.5,0,0.8v0v0h0c-0.2-0.1-0.4-0.2-0.6-0.4c-0.1-0.1-0.3-0.2-0.4-0.4c-0.2-0.2-0.4-0.5-0.6-0.8
			c-0.1-0.3-0.2-0.6-0.3-0.9c0-0.2,0-0.4,0-0.6l0,0l0,0.1c0.2,0.5,0.4,1,0.8,1.4C-1596.7-181.9-1596.3-181.7-1595.9-181.5z
			 M-1571.5-183c-0.1,0.2-0.2,0.3-0.3,0.5c-0.2,0.2-0.4,0.4-0.7,0.5c-0.1,0-0.1,0.1-0.2,0.1c-0.1,0-0.1,0.1-0.2,0.1l0,0l0,0
			c0-0.1,0-0.1,0-0.2c0-0.1,0-0.1,0-0.2c0.1-0.3,0.2-0.6,0.4-0.9c0.1-0.1,0.2-0.3,0.4-0.4c0,0.1,0,0.2,0,0.3l0,0
			c0,0.1-0.1,0.1-0.1,0.2c-0.1,0.2-0.2,0.3-0.3,0.5l0,0c0.2-0.1,0.3-0.2,0.4-0.3l0.1-0.1l0.1,0c0.1,0,0.2,0,0.2-0.1
			C-1571.6-182.9-1571.6-182.9-1571.5-183z M-1570.9-183.2c0.1,0.3,0.1,0.6,0,1c-0.1,0.3-0.2,0.6-0.4,0.8c0,0.1-0.1,0.1-0.1,0.2
			c0,0.1-0.1,0.1-0.1,0.2l0,0c0-0.1-0.1-0.1-0.1-0.2c0-0.1,0-0.1-0.1-0.2c-0.1-0.2-0.1-0.4-0.1-0.6c0,0,0.1-0.1,0.2-0.2
			c0.2-0.2,0.3-0.5,0.4-0.8C-1571-183.2-1571-183.2-1570.9-183.2L-1570.9-183.2z M-1573.1-182.4c-0.3,0.1-0.5,0.3-0.7,0.5
			c-0.1,0.1-0.2,0.2-0.3,0.3v0l0,0c-0.1,0-0.1,0-0.2,0h0c-0.2,0-0.4,0-0.6-0.1l0,0c0.1-0.1,0.1-0.2,0.2-0.3c0.2-0.3,0.5-0.5,0.9-0.6
			c0.1,0,0.1,0,0.2,0c0.1,0,0.2,0,0.2,0h0.1c0.1,0,0.2,0,0.3,0C-1573-182.5-1573-182.5-1573.1-182.4L-1573.1-182.4z M-1572.7-181.6
			c-0.1,0.2-0.2,0.3-0.3,0.4c-0.2,0.2-0.5,0.4-0.8,0.5c-0.1,0-0.1,0-0.2,0.1c-0.1,0-0.1,0-0.2,0.1l0,0l0,0c0-0.1,0-0.1,0-0.2
			s0-0.1,0.1-0.2c0.1-0.3,0.3-0.6,0.5-0.8c0.1-0.1,0.2-0.2,0.4-0.3v0c0,0.1,0,0.2,0,0.3v0c0,0.1-0.1,0.1-0.1,0.2
			c-0.1,0.1-0.2,0.3-0.3,0.4l0,0c0.2-0.1,0.3-0.2,0.5-0.3l0,0l0.2,0c0.1,0,0.2,0,0.2-0.1C-1572.7-181.5-1572.7-181.5-1572.7-181.6
			L-1572.7-181.6z M-1572-181.9c0.1,0.3,0.1,0.7,0,1c-0.1,0.3-0.2,0.6-0.4,0.8c0,0.1-0.1,0.1-0.1,0.1c0,0.1-0.1,0.1-0.1,0.1l0,0l0,0
			c0-0.1,0-0.1-0.1-0.2c0-0.1,0-0.1,0-0.2c0-0.2-0.1-0.4,0-0.6c0.1-0.1,0.2-0.1,0.2-0.2c0.2-0.2,0.4-0.5,0.5-0.8
			C-1572.2-181.8-1572.1-181.8-1572-181.9L-1572-181.9z M-1594.6-181.2c0-0.1,0-0.2,0-0.3c0,0,0-0.1,0-0.1c0.1,0.1,0.2,0.2,0.3,0.3
			c0.2,0.2,0.3,0.5,0.4,0.8c0,0.1,0,0.1,0,0.2c0,0.1,0,0.1,0,0.2l0,0l0,0c-0.1,0-0.1,0-0.2-0.1s-0.1-0.1-0.2-0.1
			c-0.3-0.1-0.6-0.3-0.8-0.6c-0.1-0.1-0.1-0.2-0.2-0.3h0c0.1,0,0.3,0.1,0.4,0.1l0.1,0c0.1,0.1,0.3,0.2,0.4,0.3l0,0
			C-1594.4-180.9-1594.5-181-1594.6-181.2L-1594.6-181.2z"/>
	</g>
</symbol>
<use xlink:href="#Bank_x5F_Sepah_x5F_Color"  width="48" height="48" x="-24" y="-24" transform="matrix(10.5648 0 0 -10.5648 268.4451 271.4341)" style="overflow:visible;"/>
</svg>
