<?xml version="1.0" encoding="utf-8"?>
<!-- Generator: Adobe Illustrator 22.1.0, SVG Export Plug-In . SVG Version: 6.00 Build 0)  -->
<svg version="1.1" id="Capa_1" xmlns="http://www.w3.org/2000/svg" xmlns:xlink="http://www.w3.org/1999/xlink" x="0px" y="0px"
	 viewBox="0 0 537 547" style="enable-background:new 0 0 537 547;" xml:space="preserve">
<style type="text/css">
	.st0{fill:none;}
	.st1{fill:#D8262C;}
</style>
<symbol  id="Bank_x5F_Shahr_x5F_Color" viewBox="-24 -24 48 48">
	<g id="Bank_x5F_Shahr_x5F_Color_1_" transform="translate(1782 198)">
		<rect id="Boundary_134_" x="-1806" y="-222" class="st0" width="48" height="48"/>
		<path id="Shape_198_" class="st1" d="M-1799.9-222L-1799.9-222l-0.1,7.8c2,0.2,4,0.4,6,0.8c4,0.6,7.8,1.8,11.5,3.6
			c0.1,0,6.3,3.2,6.3,5.4c0.1,0.5-0.2,1-0.7,1.2c-1.4,0.6-2.9,0.8-4.5,0.8c-0.3,0-0.5,0-0.6,0l-0.1-7.1c-0.4,0-0.7,0-1.1,0
			c-2.6-0.1-5.2,0.5-7.5,1.6c-2.2,1.1-3.8,3.2-4.1,5.7c-0.4,2.8,0.4,5.6,2.3,7.7c1.8,2.1,4.1,3.8,6.6,5.1c6.6,3.5,13.8,5.8,21.2,6.6
			l0.6,0.1l0.1-7.8c-2-0.2-4-0.4-6-0.8c-4-0.6-7.8-1.8-11.5-3.6c-0.1,0-6.3-3.2-6.3-5.4c-0.1-0.5,0.2-1,0.7-1.2
			c1.4-0.6,2.9-0.8,4.5-0.8c0.3,0,0.5,0,0.6,0l0.1,7.1c0.4,0,0.7,0,1.1,0c2.6,0.1,5.2-0.5,7.5-1.6c2.2-1.1,3.8-3.2,4.1-5.6
			c0.4-2.8-0.4-5.6-2.3-7.7c-1.8-2.1-4.1-3.8-6.6-5.1c-6.6-3.5-13.8-5.8-21.2-6.6L-1799.9-222z M-1791.4-190.5c-2.5,0-4.5,2-4.5,4.4
			c0,2.5,2,4.5,4.4,4.5c2.5,0,4.5-2,4.5-4.4c0,0,0,0,0,0C-1787-188.5-1788.9-190.5-1791.4-190.5L-1791.4-190.5z M-1782-185.9
			c-2.5,0-4.5,2-4.5,4.4s2,4.5,4.4,4.5c2.5,0,4.5-2,4.5-4.4c0,0,0,0,0,0C-1777.5-183.9-1779.5-185.9-1782-185.9L-1782-185.9z
			 M-1771.7-183c-2.5,0-4.5,2-4.5,4.4s2,4.5,4.4,4.5c2.5,0,4.5-2,4.5-4.4c0,0,0,0,0,0C-1767.2-180.9-1769.2-182.9-1771.7-183z"/>
	</g>
</symbol>
<use xlink:href="#Bank_x5F_Shahr_x5F_Color"  width="48" height="48" x="-24" y="-24" transform="matrix(10.5 0 0 -10.5 271 271.0033)" style="overflow:visible;"/>
</svg>
