<?xml version="1.0" encoding="utf-8"?>
<!-- Generator: Adobe Illustrator 22.1.0, SVG Export Plug-In . SVG Version: 6.00 Build 0)  -->
<svg version="1.1" id="Capa_1" xmlns="http://www.w3.org/2000/svg" xmlns:xlink="http://www.w3.org/1999/xlink" x="0px" y="0px"
	 viewBox="0 0 537 547" style="enable-background:new 0 0 537 547;" xml:space="preserve">
<style type="text/css">
	.st0{fill:none;}
	.st1{fill:#CCCCCC;}
	.st2{fill-rule:evenodd;clip-rule:evenodd;fill:#50B4D0;}
</style>
<symbol  id="Bank_x5F_Tosee_x5F_Taavon_x5F_Color" viewBox="-24 -24 48 48">
	<g id="Bank_x5F_Tosee_x5F_Taavon_x5F_Color_1_" transform="translate(792 396)">
		<rect id="Boundary_140_" x="-816" y="-420" class="st0" width="48" height="48"/>
		<path id="Shape_208_" class="st1" d="M-784.7-397c0,4-3.2,7.3-7.3,7.3c-4,0-7.3-3.2-7.3-7.2c0,0,0,0,0,0c0-4,3.2-7.3,7.3-7.3
			c4-0.1,7.3,3.1,7.3,7.1C-784.7-397.1-784.7-397.1-784.7-397z"/>
		<path id="Shape_207_" class="st2" d="M-794-406.3c-1.5,0.3-3,1-4.2,2c-0.5,0.4-1.3,0.4-1.8-0.1l-7.3-6.7c-0.3-0.3-0.4-0.7-0.2-1.1
			l2.7-5c0.9-1.7,2.8-2.6,4.7-2.2l5.6,1c0.4,0.1,0.7,0.4,0.8,0.9l0.7,9.8C-792.8-407.1-793.3-406.5-794-406.3z M-784-404.3
			c-0.5,0.4-1.3,0.5-1.8,0c-1.2-1-2.6-1.7-4.1-2.1c-0.7-0.1-1.2-0.8-1.1-1.5l0.8-9.8c0.1-0.4,0.4-0.7,0.8-0.8l5.6-1
			c1.9-0.3,3.8,0.6,4.6,2.3l2.6,5c0.2,0.4,0.1,0.8-0.2,1.2L-784-404.3z M-800.5-401.2c-0.7,1.3-1,2.8-1.1,4.2v0.2
			c0,0.7-0.5,1.3-1.2,1.4l-9.7,1.5c-0.4,0-0.8-0.2-1-0.6l-2.3-5.2c-0.8-1.8-0.3-3.8,1.2-5.1l4.2-3.7c0.3-0.3,0.8-0.3,1.2-0.1
			l8.1,5.5C-800.4-402.6-800.2-401.9-800.5-401.2z M-768.4-399.5l-2.3,5.2c-0.1,0.4-0.5,0.6-1,0.6l-9.7-1.6
			c-0.7-0.1-1.2-0.7-1.2-1.4v-0.3c0-1.5-0.3-2.9-1-4.2c-0.3-0.6-0.1-1.3,0.5-1.7l8.1-5.5c0.4-0.2,0.8-0.2,1.2,0.1l4.2,3.8
			C-768-403.4-767.6-401.3-768.4-399.5z M-811.8-391.2l9.4-2.7c0.7-0.2,1.3,0.1,1.7,0.7c0.6,1.4,1.6,2.7,2.9,3.7
			c0.5,0.4,0.6,1.2,0.3,1.8l-4.9,8.5c-0.2,0.3-0.7,0.5-1.1,0.4l-5.5-1.6c-1.8-0.6-3.1-2.2-3.1-4.1l-0.2-5.7
			C-812.4-390.6-812.1-391-811.8-391.2z M-786.2-389.4c1.3-0.9,2.2-2.2,2.9-3.6c0.3-0.6,1-0.9,1.7-0.8l9.3,2.8
			c0.4,0.1,0.7,0.5,0.7,1l-0.2,5.7c-0.1,1.9-1.4,3.5-3.2,4l-5.5,1.5c-0.4,0.1-0.8,0-1.1-0.4l-4.9-8.5
			C-786.9-388.3-786.7-389-786.2-389.4L-786.2-389.4z M-795.9-386.9c0.2-0.6,0.9-1,1.6-0.8c0.8,0.2,1.5,0.2,2.3,0.3
			c0.8,0,1.6-0.1,2.3-0.3c0.7-0.2,1.4,0.2,1.6,0.9l3.6,9.1c0.1,0.4,0,0.8-0.4,1.1l-4.6,3.4c-1.5,1.2-3.7,1.2-5.2,0l-4.6-3.3
			c-0.4-0.2-0.5-0.7-0.4-1.1L-795.9-386.9z"/>
	</g>
</symbol>
<use xlink:href="#Bank_x5F_Tosee_x5F_Taavon_x5F_Color"  width="48" height="48" x="-24" y="-24" transform="matrix(10.8955 0 0 -10.8955 266.4993 269.4928)" style="overflow:visible;"/>
</svg>
