<?xml version="1.0" encoding="utf-8"?>
<!-- Generator: Adobe Illustrator 22.1.0, SVG Export Plug-In . SVG Version: 6.00 Build 0)  -->
<svg version="1.1" id="Capa_1" xmlns="http://www.w3.org/2000/svg" xmlns:xlink="http://www.w3.org/1999/xlink" x="0px" y="0px"
	 viewBox="0 0 537 547" style="enable-background:new 0 0 537 547;" xml:space="preserve">
<style type="text/css">
	.st0{fill:none;}
	.st1{fill-rule:evenodd;clip-rule:evenodd;fill:#2E4A98;}
</style>
<symbol  id="Bank_x5F_Tejarat_x5F_Color" viewBox="-24 -24 48 48">
	<g id="Bank_x5F_Tejarat_x5F_Color_1_" transform="translate(198 396)">
		<rect id="Boundary_137_" x="-222" y="-420" class="st0" width="48" height="48"/>
		<path id="Shape_204_" class="st1" d="M-180.3-420h-34.5v5.4l0.7,0.8c-1.8,1.6-3.4,3.5-4.6,5.6l8.9-5.1h1l-10.8,6.7
			c-0.3,0.7-0.7,1.4-0.9,2.2l12.8-8.9h0.7l-14,10.5c-0.3,0.9-0.5,1.8-0.6,2.7l15.6-13.2h0.7l-16.6,15.3c-0.1,0.6-0.1,1.3-0.1,1.9
			c0,0.1,0,0.3,0,0.4l17.4-17.7h0.5l-17.8,19.5c0.1,0.9,0.2,1.8,0.4,2.6l18-22.2h0.4l-18,24.1c0.2,0.8,0.5,1.5,0.8,2.2l17.7-26.3
			h0.4l-17.2,28.2c0.4,0.8,0.8,1.5,1.3,2.2l16.4-30.4h0.4l-4.2,8.7l-0.1,0.1c-0.2,0.1-0.4,0.3-0.6,0.4c-0.2,0.2-0.3,0.4-0.4,0.6
			c-0.1,0.3-0.3,0.5-0.4,0.8c0,0.1-0.1,0.2-0.1,0.2c0,0-0.1,0.1-0.1,0.1c-0.1,0-0.1,0.1-0.2,0.1c-0.1,0-0.1,0.1-0.1,0.2
			c0,0.1-0.1,0.1-0.1,0.2l0,0c0,0-0.1,0.1-0.1,0.1c0,0,0,0.1,0,0.1c0,0,0,0.1,0,0.1c0,0,0,0,0,0c0,0,0,0.1,0,0.1c0,0.1,0,0.1,0,0.2
			c0,0.1,0,0.1,0.1,0.2c0.1,0.1,0.2,0.3,0.4,0.3l-2.6,5.3l-0.1,0c-0.3,0.1-0.5,0.2-0.7,0.4c0,0.1-0.1,0.1-0.1,0.2
			c0,0.1-0.1,0.2-0.1,0.2c0,0.1,0,0.2,0,0.3c0,0.1,0,0.2,0,0.3c0,0,0,0,0,0c0,0,0,0-0.1,0.1c-0.1,0.1-0.2,0.2-0.3,0.3
			c-0.1,0.1-0.1,0.2-0.2,0.2c-0.1,0.1-0.1,0.3-0.1,0.5c0,0.1,0,0.1,0,0.2c0,0.1,0.1,0.2,0.1,0.3l-5.4,11.3c0.5,0.6,1,1.2,1.6,1.8
			l1.6-3.7c0,0.1,0,0.2,0,0.3c0.1,0.4,0.3,0.7,0.7,0.8c0.1,0.1,0.3,0.1,0.4,0c0.1,0,0.2-0.1,0.3-0.1c0.1,0,0.2-0.1,0.2-0.1l-1.6,4.3
			c0.6,0.5,1.2,0.9,1.8,1.4l2.1-6.7c0.1,0.1,0.1,0.1,0.2,0.2c0.2,0.2,0.5,0.4,0.7,0.7c0.2,0.2,0.3,0.3,0.5,0.4l-1.8,6.5
			c0.7,0.4,1.5,0.8,2.2,1.1l2.1-9.7l0,0c0.1,0.1,0.1,0.1,0.2,0.2c0,0.1,0.1,0.1,0.1,0.2c0,0.1,0.1,0.3,0.1,0.5c0,0.2,0,0.4,0,0.5
			c0,0.2,0,0.3,0.1,0.5c0.1,0.2,0.3,0.4,0.6,0.4c0,0,0.1,0,0.1,0c0.1,0,0.1,0,0.2,0h0l-1.4,8.1c0.7,0.2,1.4,0.4,2.1,0.6l1-8.7l0.4,0
			c0.3,0,0.5,0,0.8,0c0.2,0,0.4,0,0.6,0l0.1,0l-0.7,9c0.8,0.1,1.5,0.2,2.3,0.2l0.3-11.3c0,0,0,0,0.1-0.1c0-0.1,0.1-0.1,0.1-0.2
			c0.1-0.2,0.1-0.4,0.1-0.6c0-0.1,0-0.2,0-0.3c0-0.1,0-0.3,0-0.4c0-0.1,0-0.2,0-0.3c0-0.2,0-0.4,0.1-0.7c0-0.1,0-0.1,0-0.2h0
			c0,0,0.1,0,0.1,0.1c0.2,0.1,0.3,0.2,0.5,0.4c0.1,0.1,0.3,0.2,0.4,0.4c0.1,0.1,0.1,0.1,0.1,0.1c0.1,0.1,0.2,0.1,0.2,0.2l0.1,3.9
			l0.2,8.9c0.8,0,1.5-0.1,2.3-0.2l-0.9-12.2c0.4,0,0.7,0.1,1.1,0c0.2,0,0.4,0,0.6-0.1l1.4,11.8c0.7-0.2,1.4-0.4,2.1-0.6l-2-12.2
			c0.2,0,0.3,0,0.5,0c0.1,0,0.2,0,0.4,0c0.2,0,0.4,0,0.6,0c0.1,0,0.1,0,0.2,0l2.5,11.4c0.8-0.3,1.5-0.7,2.2-1.1l-3-11.3l0.1,0
			c0.1-0.1,0.2-0.1,0.3-0.2c0.3-0.2,0.6-0.5,0.8-0.8c0,0,0-0.1,0-0.1l3.6,11.3c0.6-0.4,1.2-0.9,1.8-1.4l-5.7-15.4
			c0.1-0.1,0.1-0.2,0.1-0.3c0-0.1,0-0.1,0-0.2c0-0.1,0-0.1,0-0.2c0-0.1,0-0.1,0-0.3c0-0.7,0-1.4,0.1-2.2l7.2,16.9
			c0.5-0.6,1.1-1.2,1.6-1.8l-7.5-15.6c0.2-0.1,0.4-0.2,0.6-0.4c0.1-0.1,0.1-0.2,0.1-0.2c0-0.1,0-0.2,0-0.3c0-0.1,0-0.1,0-0.2
			l8.1,14.9c0.5-0.7,0.9-1.4,1.3-2.2l-9.9-16.3c0.1-0.1,0.1-0.1,0.2-0.2c0.2-0.1,0.4-0.2,0.5-0.3l0,0l10,14.9
			c0.3-0.7,0.5-1.5,0.8-2.2l-10.1-13.5c0-0.1,0-0.1,0-0.2c0-0.2,0.1-0.5,0.1-0.7c0.1,0,0.2-0.1,0.2-0.1h0l10.2,12.5
			c0.2-0.9,0.3-1.7,0.4-2.6l-12.3-13.5c0,0,0-0.1,0-0.1c0-0.1,0-0.2,0-0.4h0l0.2,0c0.1,0,0.1,0,0.2,0h0l11.9,12.1v-0.1
			c0-0.1,0-0.2,0-0.3c0-0.6,0-1.3-0.1-1.9l-11.1-10.2c0,0,0-0.1,0-0.1c0-0.1,0-0.3,0-0.3c0-0.2,0-0.3,0-0.5c0-0.1,0-0.1,0-0.2
			c0,0,0,0,0,0l10.9,9.2l0-0.2c-0.2-0.8-0.3-1.7-0.6-2.5l-14-10.5h0.7l12.8,8.9l-0.1-0.1c-0.3-0.7-0.6-1.4-0.9-2l-10.8-6.7h1
			l8.9,5.1l0-0.1c-1.1-1.9-2.5-3.6-4-5.1l1.1-1.3L-180.3-420z M-214.2-419.4h33.3v4.2h-33.3V-419.4z M-191-418.1
			c0-0.2-0.1-0.4-0.2-0.5c-0.1-0.2-0.2-0.3-0.3-0.5c-0.1,0-0.2,0-0.3,0.1c-0.1,0-0.2,0.1-0.3,0.2c0.2,0.1,0.4,0.2,0.5,0.3
			c0.1,0.1,0.3,0.2,0.3,0.4c-0.1,0.1-0.2,0.3-0.3,0.4l0.2,0.4c0.1-0.1,0.2-0.2,0.2-0.3C-191.1-417.8-191-417.9-191-418.1z
			 M-181.4-418.7l-0.3-0.2l-0.3,0.3l0.3,0.2L-181.4-418.7z M-188.8-418.6l-0.3-0.2l-0.3,0.3l0.3,0.2L-188.8-418.6z M-209.6-416.1
			h0.3v-1.5c0-0.2,0-0.3,0-0.5c0-0.1-0.1-0.2-0.2-0.3c-0.1-0.1-0.2-0.1-0.4-0.1c-0.2,0-0.3,0.1-0.4,0.2c-0.1,0.2-0.2,0.4-0.1,0.6
			l0.3,0c0-0.1,0-0.2,0-0.3c0-0.1,0.1-0.1,0.2-0.1c0.1,0,0.1,0,0.2,0.1c0,0.1,0.1,0.3,0,0.4V-416.1z M-207.3-418.5h-0.4l-0.2,0.5
			h-0.7l-0.1-0.5h-0.4l0.7,2.4h0.4L-207.3-418.5z M-210.5-416.5h-0.9v-0.5h0.9v-0.4h-0.9v-0.6h1v-0.4h-1.3v2.4h1.3V-416.5z
			 M-206.7-418.5h-0.4v2.4h0.7c0.1,0,0.3,0,0.4-0.1c0.1-0.1,0.2-0.1,0.2-0.2c0.1-0.1,0.1-0.2,0.1-0.4c0-0.2,0-0.3-0.1-0.4
			c-0.1-0.1-0.2-0.2-0.3-0.2c0.1-0.1,0.1-0.1,0.2-0.2c0.1-0.1,0.1-0.3,0.2-0.4l0.2-0.5h-0.4l-0.3,0.5c-0.1,0.1-0.1,0.2-0.2,0.3
			c0,0-0.1,0.1-0.1,0.1c-0.1,0-0.1,0-0.2,0h-0.1L-206.7-418.5z M-203.8-418.5h-0.4l-0.2,0.5h-0.7l-0.1-0.5h-0.4l0.7,2.4h0.4
			L-203.8-418.5z M-202.5-416.5h-0.5v-2h-0.4v2h-0.5v0.4h1.4V-416.5z M-201-418.5h-0.6v2.4h0.7c0.1,0,0.2,0,0.3,0
			c0.1,0,0.1-0.1,0.2-0.1c0.1-0.1,0.1-0.1,0.1-0.2c0-0.1,0.1-0.2,0.1-0.3c0-0.1,0-0.2-0.1-0.3c0-0.1-0.1-0.2-0.2-0.2
			c0.1,0,0.2-0.1,0.2-0.2c0.1-0.1,0.1-0.2,0.1-0.4c0-0.1,0-0.2-0.1-0.3c0-0.1-0.1-0.2-0.2-0.2c-0.1-0.1-0.1-0.1-0.2-0.1
			C-200.6-418.5-200.8-418.5-201-418.5z M-198.3-418.5h-0.4l-0.2,0.5h-0.7l-0.1-0.5h-0.4l0.7,2.4h0.4L-198.3-418.5z M-197.8-418.5
			h-0.3v2.4h0.3l0.7-1.6v1.6h0.3v-2.4h-0.4l-0.7,1.5V-418.5z M-196-418.5h-0.4v2.4h0.4v-1.1l0.7,1.1h0.5l-0.7-0.9l0.7-1.4h-0.5
			l-0.5,1.1l-0.3-0.4V-418.5z M-212-416.5h-0.5v-2h-0.4v2h-0.5v0.4h1.4V-416.5z M-183.7-418.1h-0.1c-0.1,0-0.2,0-0.3,0.1
			c-0.1,0.1-0.2,0.2-0.2,0.3c-0.1,0.1-0.1,0.2-0.2,0.2c0,0,0-0.1,0-0.1c0-0.1,0-0.1,0-0.2c-0.1-0.1-0.3-0.2-0.5-0.3
			c-0.2,0-0.4-0.1-0.6,0c-0.2,0-0.4,0-0.6,0.1c-0.2,0.1-0.3,0.2-0.2,0.4c0,0.2,0.1,0.4,0.2,0.6c0,0,0.1,0,0.1-0.1
			c-0.1-0.1-0.1-0.2-0.1-0.3c0-0.1,0.1-0.2,0.2-0.3c0.2,0,0.4,0,0.5,0c0.2,0,0.4,0,0.6,0c0.1,0,0.2,0,0.3,0.1
			c-0.2,0.2-0.4,0.4-0.7,0.5c0,0.2,0,0.4,0.1,0.5c0.4,0.2,0.9,0.4,1.3,0.5l-0.2-0.4c-0.2-0.1-0.4-0.1-0.6-0.2
			c-0.1-0.1-0.3-0.1-0.4-0.2c0.2-0.1,0.4-0.2,0.6-0.3c0.1-0.1,0.2-0.2,0.3-0.3c0.1-0.1,0.2-0.2,0.2-0.2c0.1-0.1,0.2-0.1,0.3-0.1h0.2
			c0.2,0,0.3,0,0.3,0.1c0,0.1-0.1,0.2-0.2,0.3l0.2,0.3c0.1-0.1,0.2-0.3,0.2-0.5c0-0.2-0.1-0.3-0.2-0.5
			C-183.3-418.1-183.5-418.2-183.7-418.1z M-182.1-418.1L-182.1-418.1c-0.3,0-0.4,0.1-0.5,0.3c-0.1,0.3-0.1,0.5-0.1,0.8
			c0,0.2,0,0.3,0,0.4c0,0.1,0,0.3-0.1,0.4l0.3,0.3c0.1-0.1,0.1-0.2,0.1-0.4c0-0.1,0-0.2,0-0.4v-0.5c0-0.1,0-0.2,0-0.3
			c0-0.1,0.1-0.2,0.2-0.2h0.1c0.2,0,0.4,0,0.4,0.1c0,0.1-0.1,0.2-0.2,0.3l0.2,0.3c0.1-0.1,0.2-0.3,0.2-0.5c0-0.2-0.1-0.3-0.2-0.5
			C-181.7-418.1-181.9-418.2-182.1-418.1L-182.1-418.1z M-192.2-417.4c0-0.1,0-0.2-0.1-0.3c0-0.1-0.1-0.2-0.2-0.2
			c-0.1-0.1-0.3-0.1-0.4-0.1c-0.3-0.1-0.5-0.1-0.8-0.1c-0.3,0-0.5,0-0.7,0.2c-0.1,0.1-0.1,0.2-0.1,0.4c0,0.2,0.1,0.4,0.2,0.6h0
			c0,0,0.1,0,0.1-0.1c-0.1-0.1-0.1-0.2-0.1-0.4c0-0.2,0.3-0.4,0.8-0.4c0.4,0,0.7,0,1.1,0.2c0,0.1-0.1,0.2-0.2,0.3l0.2,0.3
			c0.1-0.1,0.1-0.2,0.1-0.3C-192.3-417.2-192.2-417.3-192.2-417.4z M-190-418.1h-0.2c-0.2,0-0.3,0.1-0.4,0.3
			c-0.1,0.3-0.1,0.5-0.1,0.8c0,0.2,0,0.3,0,0.4c0,0.1,0,0.3-0.1,0.4l0.3,0.3c0.1-0.1,0.1-0.2,0.1-0.4c0-0.1,0-0.2,0-0.4v-0.5
			c0-0.1,0-0.2,0-0.3c0-0.1,0.1-0.2,0.2-0.2h0.3c0.1,0,0.3,0,0.4,0.1c0.1,0.1,0.3,0.1,0.4,0.2c-0.2,0.1-0.5,0.2-0.7,0.2
			c0,0-0.1,0-0.1,0c0-0.1-0.1-0.1-0.1-0.2c0,0,0,0,0,0c0,0-0.1,0-0.1,0c0,0.1,0.1,0.3,0.2,0.4c0.1,0.1,0.1,0.2,0.2,0.2
			c0.2,0,0.3-0.1,0.4-0.2c0.2-0.1,0.4-0.1,0.6-0.2c0.2,0,0.4,0,0.6,0.1l-0.2-0.4c-0.1,0-0.3,0-0.3-0.1c0.1-0.1,0.2-0.2,0.4-0.2h0.3
			c0.2,0,0.4,0,0.4,0.1c0,0.1-0.1,0.2-0.2,0.3l0.2,0.3c0.1-0.1,0.2-0.3,0.2-0.5c0-0.2-0.1-0.3-0.2-0.5c-0.1-0.2-0.3-0.2-0.5-0.2
			h-0.1c-0.2,0-0.3,0.1-0.4,0.2c-0.1,0.1-0.2,0.3-0.2,0.4c-0.3-0.2-0.5-0.4-0.6-0.4C-189.5-418.1-189.7-418.1-190-418.1z
			 M-201-417.4h-0.3v-0.6h0.3c0.1,0,0.2,0,0.2,0c0.1,0,0.1,0,0.1,0.1c0,0.1,0.1,0.1,0,0.2c0,0.1,0,0.1,0,0.2c0,0-0.1,0.1-0.1,0.1
			C-200.8-417.4-200.9-417.4-201-417.4z M-198.9-417.5l-0.2,0.9l-0.2-0.9H-198.9z M-207.9-417.5l-0.2,0.9l-0.2-0.9H-207.9z
			 M-204.4-417.5l-0.2,0.9l-0.2-0.9H-204.4z M-206.5-416.5h-0.3v-0.6h0.3c0.1,0,0.2,0,0.3,0c0,0,0.1,0.1,0.1,0.1c0,0.1,0,0.1,0,0.2
			c0,0.1,0,0.1,0,0.2c0,0-0.1,0.1-0.1,0.1C-206.3-416.5-206.4-416.5-206.5-416.5z M-201-416.5h-0.2v-0.5h0.2c0.1,0,0.2,0,0.3,0
			c0.1,0,0.1,0,0.1,0.1c0,0.1,0.1,0.1,0.1,0.2c0,0.1,0,0.1,0,0.2c0,0-0.1,0.1-0.1,0.1C-200.8-416.5-200.9-416.5-201-416.5z
			 M-193.4-416.7l-0.2-0.2l-0.2,0.2l0.2,0.2L-193.4-416.7z M-192.8-416.7l-0.2-0.2l-0.2,0.2l0.2,0.2L-192.8-416.7z M-183-416.5
			l-0.3-0.2l-0.3,0.3l0.3,0.2L-183-416.5z M-187.1-416.5l-0.2-0.2l-0.2,0.2l-0.2-0.2l-0.2,0.2l0.2,0.2l0.2-0.2l0.2,0.2L-187.1-416.5
			z M-200.5-413.3l-1.3,3.4h0l-0.1,0c0,0-0.1,0-0.1,0.1c-0.1,0.1-0.1,0.2-0.1,0.3c0,0,0,0.1,0.1,0.1l0,0l-0.4,1.1c0,0-0.1,0-0.1-0.1
			c-0.1,0-0.1,0-0.2-0.1c0,0-0.1,0-0.1,0c-0.1,0-0.1,0-0.2,0l2.1-4.9L-200.5-413.3z M-200.1-413.3h0.3l-0.9,3.3c-0.2,0-0.3,0-0.5,0
			L-200.1-413.3z M-199.4-413.3h0.3l-0.5,3.3h-0.1h-0.3L-199.4-413.3z M-198.8-413.3h0.3l-0.2,3.3h-0.1h-0.4L-198.8-413.3z
			 M-197.8-413.3l0.1,3.3c-0.1-0.1-0.3-0.1-0.4,0c0,0-0.1,0-0.1,0h0l0.1-3.3L-197.8-413.3z M-197.2-413.3l0.5,4.5c0,0,0,0,0-0.1
			c0-0.1,0-0.1-0.1-0.1c-0.1-0.2-0.2-0.3-0.4-0.4l-0.1-0.1l-0.3-3.9L-197.2-413.3z M-196.6-413.3l1.2,5.7c0-0.1-0.1-0.1-0.1-0.2
			c0-0.1,0-0.1-0.1-0.1c-0.1-0.2-0.3-0.4-0.5-0.5l0,0l-0.8-4.8L-196.6-413.3z M-196.2-413.3h0.3l1.4,4.4c0,0,0,0-0.1,0.1
			c0,0-0.1,0.1-0.1,0.1c0,0.1,0,0.2,0,0.4c0,0,0,0.1,0,0.1c0,0.1,0,0.1,0,0.2c0,0.1,0,0.3,0.1,0.4c0,0.2,0,0.3,0,0.5
			c0,0,0,0.1,0,0.1L-196.2-413.3z M-195.5-413.3h0.4l1.6,3.8c0,0-0.1,0-0.1,0c-0.1,0-0.2,0.1-0.2,0.3c0,0.1,0,0.1,0,0.2v0l-0.1,0
			L-195.5-413.3z M-194.7-413.3h0.4l1.9,3.5c-0.1,0-0.3,0-0.4,0c-0.1,0-0.1,0-0.2,0L-194.7-413.3z M-193.5-413.3l2.4,3.6
			c-0.2,0-0.4,0-0.6,0l-2.2-3.5H-193.5z M-192.5-413.3l2.9,3.6h0c-0.2,0-0.5,0-0.7,0l-2.7-3.6H-192.5z M-191.4-413.3l3.7,3.7l-0.4,0
			l-0.4,0l-3.4-3.7L-191.4-413.3z M-190-413.3l4.7,3.9c-0.1,0-0.2-0.1-0.2-0.1h-0.1c0,0-0.1,0-0.1,0c-0.1,0-0.1,0-0.1,0
			s-0.1,0-0.2,0c-0.1,0-0.2,0-0.3,0l-0.2,0l-4.2-3.8H-190z M-202.3-407.6L-202.3-407.6c0,0,0.1,0,0.1,0l0,0l0,0l0,0l0,0l0,0h0h0h0h0
			h0h0l0,0l0,0l0,0l0,0l0,0l0,0l0,0l0,0c0.1,0,0.2-0.1,0.2-0.1c0.1-0.1,0.3-0.2,0.4-0.3c0.2-0.3,0.3-0.6,0.2-1
			c0-0.1-0.1-0.2-0.1-0.3l0,0c0.1,0,0.3,0,0.4,0h0l0.1,0h0l0.1,0h0h0.1h0h0.1h0.1h0.4h0.5h0.5h0.1h0.1h0.3c0,0,0.1,0,0.1,0h0
			c0,0,0,0.1,0,0.1c0,0.1,0.1,0.1,0.1,0.2c0.1,0,0.1,0.1,0.2,0.1l0.1,0.1l0.1,0l0.1,0c0,0,0.1,0.1,0.1,0.1l0,0l0,0l0,0l0,0l0,0l0,0
			l0,0l0,0l0,0l0,0c0,0,0,0.1,0.1,0.1c0,0.1,0,0.1,0.1,0.2c0,0.1,0,0,0,0.1c0,0.1,0.1,0.1,0.1,0.2c0.1,0.1,0.2,0.2,0.3,0.2h0h0
			c0.1,0,0.2,0,0.3,0c0,0,0,0,0,0l0,0l0,0l0,0l0,0l0,0l0,0l0,0v0l0,0l0,0l0,0l0,0l0,0l0,0l0,0.1c0.1,0.1,0.1,0.3,0.2,0.5
			c0,0.1,0.1,0.2,0.1,0.2c0.1,0.1,0.1,0.2,0.2,0.3c0,0.1,0.1,0.1,0.1,0.2c0,0.1,0.1,0.1,0.1,0.2c0,0,0.1,0.1,0.1,0.1l0,0l0,0l0,0
			l0,0l0,0l0,0l0,0c0.2,0.1,0.4,0.2,0.6,0.1c0,0,0.1,0,0.1-0.1l0,0c0,0,0.1-0.1,0.1-0.1c0-0.1,0.1-0.1,0.1-0.2c0-0.1,0-0.3,0.1-0.4
			c0-0.1,0-0.3,0-0.4c0-0.1,0-0.2,0-0.4v0c0,0,0-0.1,0-0.1c0,0,0-0.1,0-0.1v0v0l0,0v0v0v0v0l0,0v0v0v0l0-0.1c0-0.1,0-0.2-0.1-0.3
			c0,0,0-0.1,0-0.1v0c0.1,0,0.1,0,0.2,0h0h0h0h0h0h0l0,0c0,0,0.1,0,0.1,0c0.1,0,0.2-0.1,0.3-0.3c0-0.1,0-0.1,0-0.2h0.1
			c0.1,0,0.2,0,0.3-0.1c0,0,0,0,0.1-0.1c0,0,0,0,0.1-0.1h0h0l0,0l0.1,0c0.2,0,0.4,0,0.5,0h0h0.1l0.3,0h0.1h0.1l0,0
			c0.2,0,0.4,0,0.6,0l0.4,0l0.1,0h0l0.2,0h0l0.2,0h0l0.2,0h0l0.7,0l0.5,0l0.5,0l0.1,0l0,0l0.5,0c0.1,0,0.3,0,0.4,0l0.4,0h0l0.1,0h0
			l0.1,0l0.1,0c0.1,0,0.2,0,0.3,0h0.1h0l0,0c0.1,0,0.2,0,0.3,0l0,0c0,0.2,0,0.4,0,0.6l0,0.2l-0.1,0h0h-0.2h-0.1h0h0l-0.1,0h0h0h-0.1
			h-0.1c-0.2,0-0.3,0-0.5,0l-0.2,0c-0.1,0-0.2,0-0.3,0h0h0c-0.1,0-0.2,0-0.3,0.1c-0.1,0-0.2,0.1-0.3,0.1c0,0-0.1,0-0.1,0h0h0h0h0h0
			h0h0h0h0h0h0c-0.1,0-0.1,0-0.2,0c-0.1,0-0.1,0-0.1,0c-0.1,0-0.1,0-0.2,0.1c-0.1,0-0.1,0.1-0.2,0.1l0,0l0,0l0,0l0,0l0,0l0,0l0,0h0
			l0,0l0,0l0,0l0,0l0,0l0,0l0,0l-0.1,0l0,0l0,0l0,0l0,0c0,0-0.1,0.1-0.1,0.1l0,0h0h0l0,0h0c-0.1,0-0.1,0-0.2,0c-0.1,0-0.2,0-0.2,0
			c-0.1,0-0.2,0-0.3,0h0h-0.1h-0.3h0h0h0h0h-0.1l-0.1,0h0l0,0h0l-0.1,0l-0.1,0c-0.1,0-0.2,0-0.3,0l-0.2,0c-0.2,0-0.3,0-0.5,0
			c-0.1,0-0.2,0-0.3,0.1l0,0l0,0l0,0l0,0h0l0,0l0,0l0,0l0,0l0,0l-0.1,0l0,0l0,0l0,0l0,0l0,0l0,0l0,0l0,0l0,0l0,0h0h0l0,0l0,0l0,0
			l0,0c0,0-0.1,0.1-0.1,0.1c-0.1,0.1-0.3,0.2-0.4,0.3l0,0l0,0l0,0l0,0l0,0l0,0l0,0l0,0l0,0l0,0l0,0l0,0l0,0l0,0l0,0l0,0l0,0l0,0l0,0
			l0,0l0,0l0,0l0,0l0,0l0,0l0,0l0,0l0,0l0,0l0,0l0,0v0l0,0l0,0l0,0l0,0v0l0,0v0l0,0l0,0l0,0v0l0,0v0l0,0v0l0,0l0,0v0v0v0l-0.1,0.1v0
			l0,0l0,0l0,0v0l0,0l0,0l0,0v0l0,0v0v0v0v0v0v0v0v0l0,0v0l0,0l0,0c0,0,0,0.1,0,0.1c0,0.2-0.1,0.4-0.1,0.6c0,0,0,0.1,0,0.1
			c0,0.1,0,0.1-0.1,0.2c0,0-0.1,0.1-0.1,0.1l0,0l0,0l-0.1,0l0,0h0l0,0c0,0-0.1,0-0.1,0h0h-0.1c-0.2,0-0.3-0.1-0.5-0.2l-0.1,0
			c-0.2-0.1-0.3-0.2-0.5-0.3c-0.1-0.1-0.2-0.1-0.3-0.1l0,0l0,0l0,0h0h0h0l0,0h0h0h0h0l0,0h0l0,0l0,0l0,0h0l0,0h0h0h0l0,0h0h0h0h0
			l0,0h0h0l0,0l0,0h0h0l0,0l0,0h0h0h0h0l-0.1,0l0,0l0,0l0,0h0c-0.2,0-0.4-0.1-0.7-0.1l0,0l-0.1,0l-0.2,0l-0.1,0l0,0h0h0h0h0h0h0h0
			h-0.1c-0.1,0-0.3,0-0.4,0.1c-0.1,0-0.2,0.1-0.3,0.2l0,0l0,0l0,0l0,0l0,0l-0.1,0.1l0,0l0,0l0,0l0,0l0,0l0,0l0,0l0,0l0,0l0,0l0,0
			l0,0l0,0l0,0l0,0l0,0l0,0l0,0l0,0l0,0l0,0l0,0l-0.1,0.1l0,0l0,0l0,0l0,0c0,0-0.1,0.1-0.1,0.1l0,0l0,0l0,0l0,0l0,0l-0.1-0.1l0,0
			l0,0l0,0l0,0l0,0l0,0l0,0l0,0c-0.2,0.1-0.4,0.2-0.6,0.2l-0.1,0l0,0h0l-0.1,0c-0.1,0-0.2,0-0.3,0.1l0,0l0,0h0l0,0h0h0h0h0l0,0h0h0
			h0l0,0h0h0l0,0h0h0l0,0l0,0l0,0l0,0l0,0l0,0c-0.1,0.1-0.3,0.1-0.4,0.2c-0.2,0.1-0.3,0.2-0.4,0.3l0,0l0,0l0,0l0,0l0,0l0,0l0,0l0,0
			l0,0l0,0l0,0l-0.1,0.1l0,0l0,0l0,0l-0.1,0.1l-0.1,0.1l-0.1,0.1l0,0l-0.1,0l-0.1,0.1l-0.1,0.1l0,0l-0.1,0.1l0,0l0,0l0,0l0,0l0,0
			l0,0l0,0l0,0l0,0l0,0c-0.2,0.1-0.3,0.3-0.5,0.4c-0.1,0.1-0.2,0.2-0.3,0.3c-0.1,0.2-0.2,0.4-0.3,0.6c-0.1,0.3-0.1,0.6-0.2,0.9
			c0,0.1,0,0.2,0,0.3c0,0,0,0.1,0,0.1c0,0,0,0.1-0.1,0.1c0,0,0,0,0,0c0,0-0.1,0-0.1,0c-0.1,0-0.1,0-0.2,0l-0.1,0h-0.1
			c0,0-0.1,0-0.1,0c-0.1,0-0.1,0-0.2,0.1c-0.2,0-0.3,0.1-0.4,0.3c-0.1,0.1-0.1,0.2-0.1,0.3l0,0c0,0-0.1,0-0.1,0h0h0l0,0h0l0,0h0l0,0
			l0,0l0,0h0l0,0l0,0l0,0l0,0l0,0l0,0l-0.1,0c0,0,0,0-0.1,0c-0.1-0.1-0.1-0.2-0.2-0.2c-0.1-0.1-0.2-0.2-0.3-0.3c0,0,0-0.1-0.1-0.1
			c0,0-0.1-0.1-0.1-0.1l0,0l0,0l0,0l0,0l0,0l0,0v0l0,0l0,0l0,0l0,0l0,0l0,0l0,0c0,0-0.1-0.1-0.1-0.1c0,0-0.1-0.1-0.1-0.1
			c-0.1-0.1-0.2-0.1-0.3-0.1l-0.1-0.1l0,0l-0.1,0h0l-0.1,0c0,0-0.1,0-0.1-0.1l0,0c0,0,0-0.1,0-0.1l0,0c0,0,0-0.1,0-0.1
			c0-0.1,0-0.1,0.1-0.2c0,0,0,0,0.1-0.1c0.1,0,0.1-0.1,0.2-0.1c0,0,0,0,0.1-0.1c0,0,0-0.1,0.1-0.1c0,0,0.1-0.1,0.1-0.2
			c0.1-0.3,0.3-0.5,0.4-0.8c0-0.1,0.1-0.2,0.1-0.2c0.1-0.1,0.2-0.3,0.3-0.4l0,0l0,0l0,0c0.2-0.2,0.4-0.3,0.6-0.4l0.1,0l0,0l0,0
			l0.1-0.1l0.1-0.1l0,0l0.1-0.1l0,0l0.2-0.1c0.1,0,0.1-0.1,0.2-0.1c0.1-0.1,0.2-0.1,0.3-0.2c0.2-0.1,0.3-0.3,0.5-0.5
			c0,0,0-0.1,0.1-0.1l0,0l0,0l0,0l0,0l0,0l0,0l0,0l0,0l0,0l0,0l0,0l0,0l0,0l0,0l0,0l0,0l0,0c0.1-0.1,0.1-0.3,0.1-0.4l0-0.1l0,0v0v0
			v0v0v0v0l0-0.1l0-0.1v0l0,0c0-0.2,0-0.3,0-0.5c0-0.2,0-0.3,0-0.5c0-0.1,0-0.2,0-0.3c0,0,0-0.1,0-0.1c0.1,0,0.2,0,0.3,0l0,0h0
			c0,0,0,0,0,0.1c0,0,0,0.1,0.1,0.1l0,0l0,0l0,0l0,0l0,0l0,0l0,0l0,0l0,0l0,0L-202.3-407.6L-202.3-407.6L-202.3-407.6L-202.3-407.6
			L-202.3-407.6z M-201.6-408.6l0.1-0.2C-201.6-408.7-201.6-408.6-201.6-408.6L-201.6-408.6z M-206.6-384.7c-0.1,0-0.1,0-0.2,0.1
			l0,0h0h0h0h0h0h0h-0.3h0h0h0l-0.1,0l0,0l0,0l-0.1,0l0,0c0,0.1,0,0.3,0,0.4l0,0.1l0,0.1l0,0.1l0,0.1v0l0,0.1c0,0.1,0,0.2,0,0.3
			c0,0.1,0,0.2,0,0.2s0,0.1,0,0.2s0,0.1,0,0.2c0,0.2,0,0.3-0.1,0.5c0,0.1-0.1,0.1-0.2,0.2c0,0,0,0-0.1,0h0h0h0h0h0h0h0h0h0h0h0h0
			l0,0l0,0l0,0l0,0l0,0l0,0l0,0l0,0l0,0l0,0c-0.1-0.1-0.2-0.2-0.3-0.2c-0.2-0.2-0.4-0.4-0.6-0.6c-0.1-0.1-0.2-0.2-0.3-0.3
			c-0.1-0.1-0.2-0.1-0.2-0.2c-0.1,0-0.1-0.1-0.2-0.1c-0.1,0-0.1-0.1-0.2-0.1c-0.2-0.1-0.3-0.2-0.5-0.2c0,0-0.1,0-0.1,0h0
			c0,0-0.1,0-0.1,0c-0.1,0-0.2,0.1-0.2,0.1c-0.1,0.1-0.3,0.2-0.4,0.4l0,0.1v0l0,0l0,0c-0.1,0.1-0.2,0.3-0.3,0.4
			c-0.1,0.1-0.1,0.2-0.2,0.2c-0.1,0.2-0.3,0.3-0.5,0.4c0,0-0.1,0-0.1,0.1c0,0,0,0-0.1,0c-0.1,0-0.1,0-0.2,0c-0.1,0-0.2-0.1-0.3-0.2
			c-0.1-0.1-0.1-0.1-0.1-0.2c0,0,0-0.1,0-0.1c0-0.1,0-0.2,0-0.3c0-0.3,0-0.6,0.1-0.9c0-0.2,0.1-0.5,0.1-0.7l0,0l0-0.1v0l0-0.1v0
			l0-0.1l0,0l0-0.1c0.1-0.2,0.1-0.3,0.2-0.5l0-0.1l0,0l0,0l0,0v0l0,0l0,0l0,0c0,0,0,0,0-0.1l0,0l0,0l0,0l0,0l0,0l0-0.3l0-0.1v-0.1
			l0-0.1c0-0.4,0.1-0.8,0.3-1.1c0-0.1,0.1-0.2,0.2-0.2c0.1-0.1,0.2-0.2,0.2-0.3l0.1-0.1l0,0l0.1-0.1l0.1-0.1l0.1-0.1l0,0l0.1-0.1
			l0,0l0.1-0.1c0.1-0.1,0.2-0.2,0.3-0.4c0.1-0.1,0.1-0.2,0.2-0.3c0.1-0.1,0.1-0.2,0.1-0.3c0-0.1,0.1-0.2,0.1-0.4c0-0.1,0-0.3,0-0.4
			v0l0,0l0,0l0-0.1c-0.1-0.5-0.2-1-0.3-1.4c0-0.1-0.1-0.3-0.1-0.4c0-0.1-0.1-0.2-0.1-0.2c0,0,0,0,0,0c0-0.1,0.1-0.3,0.2-0.4
			c0.1-0.1,0.2-0.2,0.3-0.3c0,0,0.1-0.1,0.1-0.1c0-0.1,0.1-0.2,0.1-0.3c0-0.1,0-0.2,0-0.3v0v0v0c0-0.1,0-0.1,0-0.2
			c0-0.1,0.1-0.1,0.1-0.2c0,0,0,0,0.1-0.1l0,0l0,0l0,0l0,0h0l0,0h0l0,0l0,0h0l0,0l0,0h0l0,0c0.1,0,0.1,0,0.1,0
			c0.2-0.1,0.4-0.1,0.7-0.2l0.1,0l0.1,0l0,0l0,0l0,0l0,0l0,0l0,0l0,0l0,0l0,0l0,0l0,0l0,0l0,0l0,0l0,0l0,0l0,0c0,0,0.1,0,0.1-0.1
			c0.1-0.1,0.3-0.1,0.4-0.2c0.1,0,0.1-0.1,0.2-0.1c0.1,0,0.1-0.1,0.1-0.1c0.1-0.2,0.2-0.4,0.2-0.6c0-0.1,0-0.1,0-0.2
			c0-0.1,0-0.1,0-0.2c0-0.1,0-0.1,0-0.2c0-0.1,0-0.1,0-0.2c0-0.2,0.1-0.3,0.2-0.4c0,0,0.1-0.1,0.1-0.1c0,0,0,0,0,0
			c0.1-0.1,0.1-0.2,0.2-0.3c0-0.1,0.1-0.2,0.1-0.4c0-0.3,0.1-0.6,0.1-0.9v-0.1v-0.4v-0.1v0c0,0,0-0.1,0-0.1v-0.1l0.1-0.1l0.1,0.1
			l0.1,0.1l0,0l0,0l0,0l0,0c0.1,0.1,0.3,0.3,0.4,0.4c0.1,0.1,0.1,0.1,0.2,0.2c0,0.1,0.1,0.1,0.2,0.1c0,0,0.1,0.1,0.1,0.1l0,0l0,0
			l0,0l0,0l0,0l0,0l0,0h0h0l0,0h0h0h0h0h0h0h0.1c0,0,0,0,0.1,0c0.1,0,0.1,0,0.2,0c0.1,0,0.1-0.1,0.2-0.1c0.1-0.1,0.1-0.1,0.1-0.2
			c0,0,0-0.1,0.1-0.1c0,0,0,0,0,0c0,0,0.1,0,0.1-0.1l0.1,0l0,0l0,0l0,0c0,0,0,0,0.1,0c0.1,0,0.2,0,0.3,0c0,0,0.1,0,0.1,0
			c0.1,0,0.1,0,0.2,0c0,0,0.1,0,0.1,0c0,0,0.1,0,0.1-0.1c0.1-0.1,0.2-0.3,0.2-0.5c0-0.1,0-0.2,0-0.4c0-0.3,0.1-0.6,0.1-0.8
			c0-0.2,0.1-0.3,0.2-0.5c0,0,0.1-0.1,0.1-0.1l0.1-0.1l0.1-0.1l0.1-0.1l0,0l0,0l0,0l0,0l0,0l0,0l0,0l0,0l0,0l0,0l0,0l0,0l0.1-0.1
			l0.1-0.1l0,0c0.1-0.1,0.3-0.2,0.4-0.4c0.2-0.1,0.3-0.3,0.5-0.4c0.1-0.1,0.3-0.2,0.4-0.3l0.1,0l0.1,0l0.1,0l0,0l0,0l0,0l0,0l0,0
			l0,0l0,0l0,0l0,0l0,0l0,0l0,0l0,0l0,0l0,0l0,0l0,0l0,0l0,0l0,0l0,0l0.1,0c0.1,0,0.3-0.1,0.5-0.1c0.1,0,0.1,0,0.2,0
			c0,0,0.1,0,0.1,0l0,0l0,0l0,0l0,0l0,0l0,0l0,0l0,0l0,0h0l0,0l0,0l0,0l0,0l0,0l0,0l0,0l0,0h0l0,0l0,0l0,0l0,0l0,0l0,0l0,0l0,0l0,0
			l0,0l0,0l0,0l0,0l0,0l0,0l0,0l0,0l0,0l0,0l0,0c0.1-0.1,0.2-0.2,0.2-0.3c0,0,0.1-0.1,0.1-0.1c0.1,0,0.1-0.1,0.2-0.1
			c0.1,0,0.1,0,0.2,0h0h0h0h0h0h0l0.1,0l0.2,0l0.1,0l0.1,0c0.2,0,0.4,0.1,0.6,0.1l0.1,0l0,0l0,0l0,0l0,0l0,0l0,0l0,0l0,0l0,0l0,0
			l0,0l0,0l0,0l0,0l0,0l0,0l0,0l0,0l0,0c0.2,0.1,0.4,0.2,0.6,0.3c0.1,0.1,0.2,0.1,0.3,0.1l0,0l0,0l0,0l0,0l0,0l0,0l0,0h0h0h0h0h0h0
			h0.1h0.1h0l0.1,0h0l0,0l0,0l0,0l0.1,0c0.1,0,0.2-0.1,0.3-0.2c0,0,0.1-0.1,0.1-0.2c0-0.1,0.1-0.2,0.1-0.2l0,0l0,0l0,0l0,0l0,0v0v0
			l0,0l0,0l0-0.1v0l0-0.1l0,0v0v0l0,0c0,0,0-0.1,0-0.1l0,0l0,0l0,0l0,0l0,0l0,0l0,0l0,0l0,0l0,0l0,0l0,0l0,0l0,0l0,0l0,0
			c0-0.1,0.1-0.1,0.2-0.1c0.1-0.1,0.3-0.2,0.4-0.3l0,0l0,0l0,0l0.1-0.1l0,0l0,0l0,0l0,0c0,0,0.1,0,0.1,0c0,0,0.1,0,0.1,0h0h0h0h0
			h0.1c0.3,0,0.5,0,0.8,0.1c0.1,0,0.1,0,0.2,0h0.1h0h0.1h0.2h0.1h0l0.2,0h0l0.1,0l0.2,0c0.2,0,0.4,0,0.5-0.1l0,0l0,0h0l0,0l0,0l0,0
			l0,0l0,0l0,0l0,0l0,0l0,0l0,0l0,0l0,0l0,0l0,0l0,0l0,0l0.1,0l0.1-0.1l0,0l0,0l0,0l0,0l0.1,0c0.1,0,0.1,0,0.2,0c0.1,0,0.2,0,0.3,0
			c0.1,0,0.1,0,0.2,0l0,0h0l0,0l0,0l0,0c0.1,0,0.2-0.1,0.3-0.2c0,0,0,0,0.1,0c0,0,0,0,0,0c0,0,0.1,0,0.1,0h0.1c0.1,0,0.2,0,0.3,0
			c0,0.5,0,0.9,0.1,1.4l0,0.1l0,0l0,0.1l0,0c0,0.1,0,0.2,0.1,0.2c0,0.1,0.1,0.2,0.1,0.4c0.1,0.2,0.3,0.5,0.5,0.7
			c0.1,0.1,0.1,0.1,0.2,0.2c0,0,0.1,0.1,0.1,0.1c0,0,0,0,0,0c0.1,0,0.2,0,0.3,0h0c0.1,0,0.2-0.1,0.3-0.1c0,0,0.1,0,0.1,0h0
			c0,0,0.1,0,0.1,0c0,0,0.1,0.1,0.1,0.1c0.1,0.1,0.1,0.2,0.1,0.3c0,0,0,0.1,0,0.1c0,0,0,0-0.1,0c-0.1,0-0.1,0.1-0.2,0.1l-0.1,0.1
			c0,0-0.1,0-0.1,0.1c0,0-0.1,0.1-0.1,0.1c0,0.1-0.1,0.1-0.1,0.2c0,0.1,0,0.3,0,0.4v0v0l0,0.1c0,0.1,0,0.2-0.1,0.4l0,0v0l0,0v0l0,0
			v0l0,0v0l0,0v0l0,0l0,0l0,0v0l0,0l0,0l0,0l0,0l0,0l0,0l0,0l0,0l0,0l0,0l0,0l0,0l0,0l0,0l0,0l0,0l0,0l0,0l0,0l0,0l0,0
			c0,0-0.1,0-0.1,0.1l0,0l-0.1,0.1c-0.2,0.1-0.3,0.2-0.5,0.3c-0.1,0.1-0.2,0.1-0.2,0.2l0,0l0,0l0,0l0,0l0,0h0l0,0l0,0l0,0l0,0l0,0
			l0,0l0,0l0,0l0,0l0,0l0,0l0,0l0,0l0,0l0,0l0,0l0,0l0,0l0,0c-0.1,0.1-0.2,0.3-0.3,0.4l0,0l0,0l0,0l0,0v0l0,0v0v0l-0.1,0.1l0,0v0v0
			l0,0v0v0v0l0,0v0v0v0v0v0l0,0v0l0,0c-0.1,0.4,0,0.8,0,1.2c0,0.1,0,0.1,0,0.3c0,0,0,0.1,0,0.1c0.1,0.2,0.2,0.3,0.3,0.5
			c0.1,0.1,0.3,0.3,0.4,0.4c0,0,0,0,0.1,0.1c0.1,0.1,0.2,0.3,0.2,0.5c0,0,0,0.1-0.1,0.1c0,0-0.1,0.1-0.1,0.1
			c-0.1,0.1-0.1,0.1-0.2,0.1l0,0l0,0l0,0h0l0,0h0l0,0h0l0,0h0l0,0h0l0,0h0h0h0l0,0h0h0h0h0h0h0h0h0h0h0h0h0l-0.1,0.1h0h0h0h0h0h0h0
			h-0.5h0h0h0h0h-0.1h0c-0.1,0.4-0.1,0.8-0.1,1.2c0,0.4-0.1,0.8-0.1,1.3c0,0.1,0,0.1,0,0.2v0.1v0.1v0.1v0.1v0v0v0.1c0,0,0,0.1,0,0.1
			c0,0.1,0,0.1,0,0.2c0,0,0,0.1,0,0.1c0,0,0,0,0,0.1c-0.1,0.2-0.2,0.3-0.3,0.4l-0.1,0.1c-0.1,0-0.1,0.1-0.2,0.1c0,0,0,0-0.1,0.1l0,0
			l0,0h0l0,0l0,0h0l0,0l0,0l0,0l0,0l0,0l0,0l0,0l0,0l0,0l0,0v0l0,0l0,0l0,0l0,0l0,0l0,0c0,0,0,0.1,0,0.1c0,0.1,0,0.2,0,0.2
			c0.1,0.2,0.2,0.4,0.3,0.5c0.1,0.1,0.1,0.1,0.2,0.2c0.1,0.1,0.1,0.1,0.2,0.2c0.1,0.1,0.2,0.2,0.3,0.4c0.1,0.1,0.1,0.1,0.2,0.2
			c0.1,0.2,0.2,0.4,0.3,0.6c0.1,0.2,0.1,0.5,0.1,0.7v0.1v0.3v0v0v0.1v0l0,0.1v0l0,0.1v0l0,0v0l0,0l0,0l0,0l0,0l0,0l0,0l0,0
			c0,0,0,0.1,0,0.1c0,0.1,0,0.1,0,0.2c0,0.2-0.1,0.4-0.3,0.6c-0.2,0.2-0.4,0.4-0.6,0.5c-0.1,0-0.1,0.1-0.2,0.1c0,0-0.1,0-0.1,0.1
			c-0.1,0-0.1,0-0.2,0c-0.2,0-0.3,0-0.5,0c-0.1,0-0.2,0-0.3,0.1c0,0.1-0.1,0.1-0.1,0.2c0,0.1-0.1,0.2-0.1,0.3c0,0.1-0.1,0.1-0.1,0.2
			l0,0l0,0l0,0l0,0h0h0h0h0h0h0h0h0h0l0,0h0l0,0h0h0h0h0h0h0h0c-0.1,0-0.2,0-0.3,0c-0.4,0-0.7,0-1.1,0l-0.2,0l-0.2,0l-0.1,0
			c0,0,0,0.1-0.1,0.1c0,0.1-0.1,0.1-0.1,0.2c-0.2,0.2-0.4,0.4-0.6,0.6c-0.1,0.1-0.2,0.1-0.3,0.2l0,0h0l0,0h0l0,0h0l0,0h0
			c-0.1,0-0.2,0-0.3,0.1c-0.2,0-0.4,0-0.6,0c-0.3,0-0.6,0-0.8-0.1h0l-0.1,0l-0.2,0c-0.1,0-0.3,0-0.4-0.1c-0.1,0-0.1,0-0.2,0
			c0,0-0.1,0-0.1,0c-0.2-0.1-0.5-0.2-0.7-0.4c-0.2-0.2-0.4-0.3-0.6-0.5c-0.1-0.1-0.1-0.1-0.1-0.1c-0.2-0.1-0.4-0.2-0.6-0.3l0,0l0,0
			v0c0-0.1,0-0.3-0.1-0.4c0-0.1,0-0.1,0-0.2c0-0.1,0-0.2,0-0.3c0-0.1,0-0.1,0-0.2c0-0.1,0-0.1,0-0.2c0-0.1-0.1-0.1-0.1-0.2l0,0l0,0
			l0,0l0,0l0,0l0,0l0,0l0,0l0,0l0,0l0,0l0,0l0,0l0,0l0,0l0,0l0,0l0,0l0,0l0,0l0,0l0,0l-0.1,0.1l0,0l0,0h0l0,0l0,0l0,0
			c0,0-0.1,0-0.1,0c0,0,0,0-0.1,0h0c0,0-0.1,0-0.1,0c0,0-0.1,0.1-0.1,0.1c0,0,0,0,0,0.1c-0.1,0-0.2-0.1-0.3-0.1
			c-0.3-0.1-0.5-0.1-0.8-0.1c-0.2,0-0.4,0-0.5,0c-0.2,0-0.3,0-0.5,0c-0.1,0-0.2,0-0.4,0c-0.1,0-0.2,0-0.3,0h0c0,0-0.1,0-0.1,0h-0.1
			c-0.2,0-0.3,0-0.5,0.1l-0.1,0c-0.1,0-0.1,0-0.2,0c-0.1,0-0.3,0-0.4,0c-0.1,0-0.1,0-0.2,0c-0.1,0-0.1,0-0.2,0.1
			c-0.1,0-0.1,0.1-0.1,0.1c-0.1,0.1-0.1,0.1-0.2,0.2c-0.1,0.1-0.2,0.3-0.4,0.4c0,0-0.1,0.1-0.1,0.1c-0.1,0.1-0.3,0.2-0.4,0.2h0
			l-0.1,0l-0.1,0h0h0h-0.1h0c0,0-0.1,0-0.1,0c-0.1,0-0.1,0-0.2,0.1c-0.1,0-0.2,0.1-0.2,0.2l-0.3,0.1c-0.1,0.1-0.1,0.3-0.2,0.4
			c0,0.1,0,0.1-0.1,0.2c0,0.1-0.1,0.2-0.1,0.3C-206.6-385.2-206.6-384.9-206.6-384.7z M-204.3-405.1l0.9-2.1c0,0,0,0.1,0,0.1
			c0,0.1,0,0.2,0,0.3c0,0.1,0,0.2,0,0.3c0,0.2-0.1,0.3-0.1,0.5c-0.1,0.2-0.2,0.3-0.3,0.5C-204-405.3-204.2-405.2-204.3-405.1
			L-204.3-405.1z M-204.9-390.1c1.4-0.5,2.3-1.8,2.5-3.2c0.2,0,0.4-0.1,0.6-0.2c-0.1-0.2-0.2-0.5-0.3-0.7h-0.8
			c-0.2-0.7-0.2-1.5,0-2.2h0.8c0.1-0.4,0.2-0.7,0.4-1l-0.5-0.5c0.4-0.6,0.9-1.2,1.6-1.6l0.5,0.5c0.3-0.2,0.7-0.3,1-0.4v-0.8
			c0.7-0.2,1.5-0.2,2.2,0v0.8c0.4,0.1,0.7,0.2,1,0.4l1.2-1.2c-1-0.7-2.2-1-3.4-1c-3.3,0-6,2.7-6,6c0,0.5,0,0.9,0.1,1.4
			c0,0.6-0.2,1.1-0.5,1.6c-0.4,0.4-0.9,0.8-1.4,1.2L-204.9-390.1z M-191.1-400.8c-1.4,0.5-2.3,1.8-2.5,3.2c-0.2,0-0.4,0.1-0.6,0.2
			c0.1,0.2,0.2,0.5,0.3,0.7h0.8c0.2,0.7,0.2,1.5,0,2.2h-0.8c-0.1,0.4-0.2,0.7-0.4,1l0.5,0.5c-0.4,0.6-0.9,1.2-1.6,1.6l-0.5-0.5
			c-0.3,0.2-0.7,0.3-1,0.4v0.8c-0.7,0.2-1.5,0.2-2.2,0v-0.8c-0.4-0.1-0.7-0.2-1-0.4l-1.2,1.2c1,0.7,2.2,1,3.4,1c3.3,0,6-2.7,6-6
			c0-0.5,0-0.9-0.1-1.4c0-0.6,0.2-1.1,0.5-1.6c0.4-0.4,0.9-0.8,1.4-1.2L-191.1-400.8z M-186.4-398.5c-0.1-0.1-0.3-0.3-0.4-0.4
			c0,0-0.1-0.1-0.1-0.1c-0.1-0.1-0.1-0.1-0.1-0.2c0-0.1,0-0.1,0-0.2c0-0.1,0-0.1,0-0.2c0-0.1,0-0.1,0-0.2L-186.4-398.5z
			 M-197.2-391.4c-0.5,0.1-1.1,0.1-1.6,0l0-0.6c-0.4-0.1-0.8-0.2-1.1-0.5l-0.4,0.5c-0.5-0.3-0.8-0.7-1.1-1.1l0.5-0.4
			c-0.2-0.3-0.4-0.7-0.4-1.1l-0.6,0c-0.1-0.5-0.1-1.1,0-1.6l0.6,0c0.1-0.4,0.2-0.8,0.4-1.1l-0.5-0.4c0.3-0.5,0.7-0.8,1.1-1.1
			l0.4,0.5c0.3-0.2,0.7-0.4,1.1-0.5l0-0.6c0.5-0.1,1.1-0.1,1.6,0l0,0.6c0.4,0.1,0.8,0.2,1.1,0.5l0.4-0.5c0.5,0.3,0.8,0.7,1.1,1.1
			l-0.5,0.4c0.2,0.3,0.4,0.7,0.4,1.1l0.6,0c0.1,0.5,0.1,1.1,0,1.6l-0.6,0c-0.1,0.4-0.2,0.8-0.4,1.1l0.5,0.4
			c-0.3,0.5-0.7,0.8-1.1,1.1l-0.4-0.5c-0.3,0.2-0.7,0.4-1.1,0.5L-197.2-391.4z M-198.2-393.2v0.4h0.4v-0.4c0.2,0,0.4,0.2,0.6,0.4
			c0-0.3-0.3-0.6-0.6-0.8v-0.8c0.4,0.1,0.8,0.3,1.1,0.6c0-0.6-0.5-1.1-1.1-1.2v-0.7c0.5,0,1,0.3,1.3,0.7c-0.1-0.7-0.6-1.3-1.3-1.4
			v-0.8c0.7,0.1,1.3,0.4,1.7,0.9c-0.1-1-0.9-1.7-1.9-1.8c-1,0-1.8,0.8-1.8,1.8c0.4-0.5,1-0.8,1.7-0.9v0.8c-0.7,0.1-1.2,0.7-1.3,1.4
			c0.3-0.4,0.8-0.6,1.3-0.7v0.7c-0.6,0.1-1,0.6-1.1,1.2c0.3-0.3,0.6-0.6,1.1-0.6v0.8c-0.3,0.1-0.6,0.4-0.6,0.8
			C-198.6-393-198.4-393.1-198.2-393.2L-198.2-393.2z M-208.1-396.1l0.1-0.3c0,0,0,0.1,0,0.1C-208-396.3-208-396.2-208.1-396.1
			C-208.1-396.2-208.1-396.1-208.1-396.1L-208.1-396.1z M-203.5-387.3L-203.5-387.3c0.2,0,0.3,0,0.4,0c0.1,0,0.1,0,0.1,0
			c0.4,0,0.7-0.1,1.1-0.2c0.1,0,0.2,0,0.3,0c0.1,0,0.2,0,0.2,0c0.3,0,0.6,0,0.9,0c0.2,0,0.4,0,0.6,0.1c0.1,0,0.2,0.1,0.4,0.1
			c0.1,0.1,0.2,0.1,0.3,0.2c0.1,0.1,0.1,0.2,0.1,0.3c0,0.2,0.1,0.3,0.1,0.5c0,0.1,0,0.2,0,0.3c0,0.1,0,0.2,0,0.3
			c0,0.3-0.1,0.6-0.1,0.8c0,0.2,0,0.4,0,0.7c0,0.1,0,0.1,0,0.2c0,0.1,0,0.2-0.1,0.3c0,0,0,0.1,0,0.1c0,0,0,0-0.1,0l-0.1,0
			c-0.1,0.1-0.2,0.1-0.4,0.2c-0.1,0.1-0.3,0.2-0.4,0.3c-0.1,0.1-0.2,0.2-0.3,0.4c-0.1,0.2-0.2,0.3-0.2,0.5c0,0.2-0.1,0.3-0.1,0.5v0
			h-0.1h0h0h0h0h0h0h0c-0.1,0-0.2,0-0.3,0c-0.2,0-0.3,0-0.5,0h-0.1h-0.2h-0.1h0h-0.1h-0.2h-0.1h0h-0.1l-0.5,0c-0.3,0-0.6,0-0.9,0
			c-0.1,0-0.2,0-0.4,0l-0.1,0l0,0h0h-0.1h0h0h0h0h0h0l0,0h0h0l0,0l0,0c-0.1,0-0.1,0-0.2-0.1c0,0,0,0-0.1,0c0,0,0,0,0-0.1
			c0-0.1,0-0.2,0-0.3v0c0-0.1,0-0.1,0-0.2c0-0.1,0-0.1,0-0.2c0,0,0,0,0-0.1c0-0.2,0-0.5-0.1-0.7c0-0.1-0.1-0.2-0.2-0.3
			c-0.1-0.1-0.2-0.2-0.3-0.3l0,0l0,0l0,0l0,0l0,0l0,0l0,0l0,0l0,0l0,0l0,0l0,0l0,0l-0.1,0c-0.1-0.1-0.2-0.1-0.2-0.2
			c-0.1-0.1-0.1-0.2-0.2-0.3c0-0.1,0-0.3,0-0.4c0-0.1,0-0.2,0-0.2c0-0.1,0-0.1,0-0.2c0-0.1,0.1-0.2,0.1-0.2l0,0l1-0.3h0
			c0,0,0,0,0.1,0c0.1,0,0,0,0.1,0c0.1,0,0.1,0,0.2-0.1c0.2-0.1,0.4-0.3,0.5-0.5l0,0l0,0l0,0l0,0l0,0l0,0l0.1-0.1l0-0.1l0,0l0,0l0,0
			l0,0l0,0c0,0,0.1-0.1,0.1-0.1c0,0,0,0,0,0L-203.5-387.3z M-199.2-372c0.4,0,0.8,0,1.2,0c0.4,0,0.8,0,1.2,0L-199.2-372z"/>
	</g>
</symbol>
<use xlink:href="#Bank_x5F_Tejarat_x5F_Color"  width="48" height="48" x="-24" y="-24" transform="matrix(10.5208 0 0 -10.5208 268.5 265.5006)" style="overflow:visible;"/>
</svg>
