<?xml version="1.0" encoding="utf-8"?>
<!-- Generator: Adobe Illustrator 22.1.0, SVG Export Plug-In . SVG Version: 6.00 Build 0)  -->
<svg version="1.1" id="Capa_1" xmlns="http://www.w3.org/2000/svg" xmlns:xlink="http://www.w3.org/1999/xlink" x="0px" y="0px"
	 viewBox="0 0 537 547" style="enable-background:new 0 0 537 547;" xml:space="preserve">
<style type="text/css">
	.st0{fill:none;}
	.st1{fill:#006D08;}
</style>
<symbol  id="Bank_x5F_Tosee_x5F_Saderat_x5F_Color" viewBox="-24 -24 48 48">
	<g id="Bank_x5F_Tosee_x5F_Saderat_x5F_Color_1_" transform="translate(594 396)">
		<rect id="Boundary_139_" x="-618" y="-420" class="st0" width="48" height="48"/>
		<path id="Shape_206_" class="st1" d="M-584.1-420h-19.9l-14.1,14.1v19.9l14.1,14.1h19.9l14.1-14.1v-19.9L-584.1-420z M-601-379
			L-601-379l-10-10V-403l10-10h14.1l10,10v14.1l-10,10H-601z M-594.1-412.5L-594.1-412.5l-11.7,11.7l-4.7,4.8l5.8,5.7h9.4l-5.8-5.7
			l11.7-11.8L-594.1-412.5L-594.1-412.5z M-583.3-401.7h-9.4l5.8,5.7l-11.7,11.8l4.7,4.7l11.7-11.7l4.7-4.8L-583.3-401.7
			L-583.3-401.7z"/>
	</g>
</symbol>
<use xlink:href="#Bank_x5F_Tosee_x5F_Saderat_x5F_Color"  width="48" height="48" x="-24" y="-24" transform="matrix(10.6458 0 0 -10.6458 271.5 273.5)" style="overflow:visible;"/>
</svg>
